<svg width="3600" height="2000" viewBox="0 0 3600 2000" fill="none" xmlns="http://www.w3.org/2000/svg">
<g clip-path="url(#clip0_506_856)">
<path d="M0 0H3600V2000H0V0Z" fill="#FFFEF3"/>
<path d="M0.000244141 1470.6C260.38 1471.62 720.86 1776.85 720.86 2000H0.000244141V1470.6Z" fill="#EDEEDC"/>
<path d="M3600 976.62C3504.56 1064.71 3416.68 1073 3361.68 1073C3077.68 1073 2888.68 680 2485.68 680C2132.68 680 2039.68 941.5 2014.18 985C1988.68 1028.5 1889.68 1303.37 1822.18 1363.18C1754.68 1423 1515.39 1582.71 1409.68 1798C1382.57 1853.2 1358.68 1953 1358.68 2000H3600V976.62Z" fill="#EDEEDC"/>
<path d="M1884.71 954.71C1884.71 954.71 1895.82 958.21 1900.17 959.28L1908.87 968.52C1941.94 1011.06 1998.75 1050.07 2047.43 1078.52C2056.07 1065.26 2065.24 1051.19 2073.82 1038.05C2019.05 1007.28 1953.1 960.87 1925.18 940.8L1923.85 939.34L1911.94 921C1901.87 906.33 1892.04 890.09 1890.36 890.1C1888.01 890.12 1887.18 891.98 1891.97 912.33C1892.28 913.65 1891 914.8 1889.73 914.34C1879.84 910.74 1848.66 899.63 1847.17 901.94C1845.4 904.68 1873.02 915.29 1872.93 918.32C1872.85 921.35 1846.17 910.32 1844.75 913.56C1843.33 916.8 1867.99 926.04 1867.87 927.61C1867.75 929.18 1843.16 922.86 1841.18 924.26C1839.2 925.67 1864.61 935.61 1865.01 937.56C1865.4 939.51 1845.57 938.48 1845.28 940.17C1844.99 941.86 1840.75 939.61 1884.71 954.72V954.71Z" fill="#F5B68B"/>
<path d="M2174.26 1649.57H2131.82V1581.04H2174.26V1649.57Z" fill="#F5B68B"/>
<path d="M2377.48 1626.78L2330.46 1625.18L2315.59 1571.17L2363.49 1566.22L2377.48 1626.78Z" fill="#F5B68B"/>
<path d="M2075.16 1319.88C2075.16 1319.88 2108.5 1555.89 2117.76 1588.84C2117.76 1588.84 2159.43 1603.12 2187.22 1588.84C2187.22 1588.84 2186.83 1382.89 2191.46 1373.63C2191.46 1373.63 2240.93 1424.2 2301.13 1578.1C2301.13 1578.1 2361.33 1585.34 2382.63 1578.1L2312.25 1309.7C2312.25 1309.7 2231.68 1276.36 2228.9 1278.21C2226.12 1280.06 2075.17 1319.89 2075.17 1319.89L2075.16 1319.88Z" fill="#1AA58F"/>
<path d="M2078.75 1669.75L2179.23 1670.43C2181.43 1670.44 2183.19 1668.72 2183.17 1666.57L2183.14 1663.68C2183.12 1661.53 2181.33 1659.78 2179.13 1659.77L2078.65 1659.09C2076.45 1659.08 2074.69 1660.8 2074.71 1662.95L2074.74 1665.84C2074.76 1667.99 2076.55 1669.74 2078.75 1669.75Z" fill="#202222"/>
<path d="M2177.87 1627.35L2181.72 1657.04C2182.2 1660.7 2180.13 1664.01 2177.38 1663.99L2081.82 1663.35C2079.34 1663.33 2076.87 1661.8 2075.54 1658.95C2074.18 1656.02 2073.87 1651.62 2078.1 1645.74C2086.55 1633.98 2114.64 1631.28 2128.29 1621.28L2172.8 1621.58C2175.29 1621.6 2177.43 1624.04 2177.86 1627.35H2177.87Z" fill="#202222"/>
<path d="M2135.21 1638.55C2135.9 1638.14 2136.14 1637 2135.73 1636.14C2133.82 1632.06 2127.87 1622.13 2115.95 1624.08C2115.26 1624.19 2114.8 1625.08 2114.93 1626.01V1626.04C2115.06 1626.93 2115.68 1627.52 2116.35 1627.42C2127.03 1625.71 2132.09 1634.46 2133.64 1637.88C2133.97 1638.61 2134.64 1638.9 2135.21 1638.56V1638.55Z" fill="#222222"/>
<path d="M2125.32 1642.3C2126.01 1641.89 2126.25 1640.75 2125.84 1639.89C2123.93 1635.81 2117.98 1625.88 2106.06 1627.83C2105.37 1627.94 2104.91 1628.83 2105.04 1629.76V1629.79C2105.17 1630.68 2105.79 1631.27 2106.46 1631.17C2117.14 1629.46 2122.2 1638.21 2123.75 1641.63C2124.08 1642.36 2124.75 1642.65 2125.32 1642.31V1642.3Z" fill="#222222"/>
<path d="M2116.12 1645.8C2116.81 1645.39 2117.05 1644.25 2116.64 1643.39C2114.73 1639.31 2108.78 1629.38 2096.86 1631.33C2096.17 1631.44 2095.71 1632.33 2095.84 1633.26V1633.29C2095.97 1634.18 2096.59 1634.77 2097.26 1634.67C2107.94 1632.96 2113 1641.71 2114.55 1645.13C2114.88 1645.86 2115.55 1646.15 2116.12 1645.81V1645.8Z" fill="#222222"/>
<path d="M2426.94 1669.75L2326.46 1670.43C2324.26 1670.44 2322.5 1668.72 2322.52 1666.57L2322.55 1663.68C2322.57 1661.53 2324.36 1659.78 2326.56 1659.77L2427.04 1659.09C2429.24 1659.08 2431 1660.8 2430.98 1662.95L2430.95 1665.84C2430.93 1667.99 2429.13 1669.74 2426.94 1669.75Z" fill="#202222"/>
<path d="M2327.82 1627.35L2323.97 1657.04C2323.49 1660.7 2325.56 1664.01 2328.31 1663.99L2423.87 1663.35C2426.35 1663.33 2428.82 1661.8 2430.15 1658.95C2431.51 1656.02 2431.82 1651.62 2427.59 1645.74C2419.14 1633.98 2391.05 1631.28 2377.4 1621.28L2332.89 1621.58C2330.4 1621.6 2328.26 1624.04 2327.83 1627.35H2327.82Z" fill="#202222"/>
<path d="M2370.48 1638.55C2369.79 1638.14 2369.55 1637 2369.96 1636.14C2371.87 1632.06 2377.82 1622.13 2389.74 1624.08C2390.43 1624.19 2390.89 1625.08 2390.76 1626.01V1626.04C2390.63 1626.93 2390.01 1627.52 2389.34 1627.42C2378.66 1625.71 2373.6 1634.46 2372.05 1637.88C2371.72 1638.61 2371.05 1638.9 2370.48 1638.56V1638.55Z" fill="#222222"/>
<path d="M2380.37 1642.3C2379.68 1641.89 2379.44 1640.75 2379.85 1639.89C2381.76 1635.81 2387.71 1625.88 2399.63 1627.83C2400.32 1627.94 2400.78 1628.83 2400.65 1629.76V1629.79C2400.52 1630.68 2399.9 1631.27 2399.23 1631.17C2388.55 1629.46 2383.49 1638.21 2381.94 1641.63C2381.61 1642.36 2380.94 1642.65 2380.37 1642.31V1642.3Z" fill="#222222"/>
<path d="M2389.57 1645.8C2388.88 1645.39 2388.64 1644.25 2389.05 1643.39C2390.96 1639.31 2396.91 1629.38 2408.83 1631.33C2409.52 1631.44 2409.98 1632.33 2409.85 1633.26V1633.29C2409.73 1634.18 2409.1 1634.77 2408.43 1634.67C2397.75 1632.96 2392.69 1641.71 2391.14 1645.13C2390.81 1645.86 2390.14 1646.15 2389.57 1645.81V1645.8Z" fill="#222222"/>
<path d="M2227.75 966.26L2230.61 1034.02L2214.39 1055.63C2195.8 1078.99 2182.15 1051.21 2152.5 1047.82L2163.13 969.38L2227.75 966.27V966.26Z" fill="#F5B68B"/>
<path d="M2156.36 1019.29L2163.13 969.38L2227.75 966.27L2229.04 996.96C2217.25 1007.07 2195 1016.88 2156.36 1019.29Z" fill="#C67E4D"/>
<path d="M2121.39 891.61C2122.77 902.06 2117.1 911.42 2108.73 912.52C2100.36 913.62 2092.45 906.04 2091.07 895.59C2089.69 885.14 2095.36 875.78 2103.73 874.68C2112.1 873.58 2120.01 881.16 2121.39 891.61Z" fill="#C67E4D"/>
<path d="M2107.07 933.09C2105.73 919.76 2106.82 906.27 2108.68 894.73C2109.08 892.26 2109.33 889.76 2109.54 887.27C2110.38 877.18 2113.09 866.97 2118.12 857.04C2134.29 825.12 2170.23 807.28 2205.47 813.76C2252.95 822.49 2281.82 869.27 2269.92 914.65C2275.58 913.2 2281.3 914.02 2285.61 917.48C2293.89 924.11 2293.87 937.86 2285.57 948.19C2277.27 958.52 2263.83 961.52 2255.55 954.88C2254.4 953.96 2253.43 952.89 2252.6 951.72C2238.53 989.3 2199.02 1010.82 2161.18 1000.25C2132.29 992.18 2109.83 966.47 2107.07 933.08V933.09Z" fill="#F5B68B"/>
<path d="M2189.37 890.54C2193.12 890.1 2196.64 889.88 2200.07 890.03C2203.5 890.17 2206.79 890.74 2209.89 891.78C2212.97 892.86 2216.01 894.21 2218.75 896.26L2219.83 896.96C2220.19 897.2 2220.49 897.51 2220.84 897.77L2222.92 899.41C2224.31 900.54 2225.54 901.85 2227.09 903.01C2226.5 901.24 2225.79 899.46 2224.87 897.79C2223.78 896.25 2222.86 894.49 2221.4 893.18C2218.81 890.25 2215.25 888.15 2211.49 886.87C2207.7 885.6 2203.62 885.33 2199.79 885.99C2195.98 886.69 2192.3 888.1 2189.36 890.53L2189.37 890.54Z" fill="#404040"/>
<path d="M2161.35 884.23C2159.75 880.77 2157.03 877.92 2153.89 875.66C2150.71 873.43 2146.91 871.92 2142.94 871.44C2138.99 870.98 2134.88 871.36 2131.28 872.89C2129.41 873.45 2127.81 874.64 2126.17 875.56C2124.62 876.68 2123.21 877.97 2121.92 879.32C2123.83 878.94 2125.5 878.28 2127.24 877.85L2129.82 877.26C2130.25 877.18 2130.65 877.03 2131.08 876.96L2132.36 876.79C2135.71 876.12 2139.04 876.2 2142.29 876.55C2145.54 876.94 2148.76 877.83 2151.91 879.18C2155.07 880.52 2158.16 882.22 2161.36 884.23H2161.35Z" fill="#404040"/>
<path d="M2166.71 900C2166.85 903.86 2166.35 907.69 2165.41 911.45C2164.93 913.34 2164.31 915.19 2163.46 917.03C2162.58 918.84 2161.52 920.67 2159.73 922.19L2158.98 922.71L2158.32 923.15C2158.04 923.36 2157.66 923.5 2157.43 923.76C2156.88 924.19 2156.46 924.72 2156.18 925.3C2155.54 926.46 2155.7 927.99 2156.23 929.47C2157.43 932.5 2160.43 934.9 2163.77 936.73C2160 936.33 2155.92 934.58 2153.66 930.74C2152.55 928.88 2152.05 926.31 2152.97 923.97C2153.2 923.39 2153.47 922.83 2153.85 922.36C2154.18 921.83 2154.62 921.43 2155.06 921.02C2155.49 920.58 2156.01 920.34 2156.48 920C2156.77 919.82 2156.83 919.75 2156.99 919.64L2157.41 919.35C2158.53 918.44 2159.5 916.97 2160.37 915.46C2161.28 913.95 2161.94 912.23 2162.7 910.56C2164.1 907.14 2165.35 903.6 2166.71 900Z" fill="#C67E4D"/>
<path d="M2127.37 776.98C2144.37 769.86 2174.65 765.43 2204.35 768.94C2198.11 763.26 2194.42 758.91 2196.34 757.86C2211.95 749.35 2254.27 782.6 2267.69 793.71C2270.98 790.4 2282.17 780.37 2291.47 786.98C2302.5 794.82 2278.66 801.38 2278.66 801.38C2278.66 801.38 2294.48 805.4 2297.04 814.45C2298.94 821.14 2289.27 818.63 2284.09 816.86C2285.69 817.63 2287.85 819.17 2290.06 821.6C2290.06 821.6 2309.81 842.86 2306.28 853.11C2305.43 855.59 2303.21 855.51 2300.33 853.97C2301.48 865.26 2303.06 886.56 2298.79 888.74C2296.35 889.99 2294.36 888.47 2292.88 886.29C2287.65 902.57 2281.27 915.04 2281.27 915.04C2262.42 909.23 2243.42 927.77 2243.42 927.77C2251.4 902.53 2239.12 851.03 2239.12 851.03C2239.12 851.03 2161.25 871.61 2176.4 851.64C2176.4 851.64 2086.05 868.77 2110 829.74C2110 829.74 2077.47 822.88 2120.69 795.75C2120.69 795.75 2096.96 789.73 2127.37 776.99V776.98Z" fill="#404040"/>
<path d="M2182.77 907.49C2183.26 908.64 2184.47 910.55 2185.76 911.88C2191.74 917.72 2202.47 917.09 2207.74 912.02C2197.58 913.92 2189.66 912.17 2182.77 907.49Z" fill="#202222"/>
<path d="M2126.4 897.26C2126.89 898.41 2128.1 900.32 2129.39 901.65C2135.37 907.49 2146.1 906.86 2151.37 901.79C2141.21 903.69 2133.29 901.94 2126.4 897.26Z" fill="#202222"/>
<path d="M2180.39 950.49C2180.39 950.49 2154.71 939.85 2138.61 941.56C2138.61 941.56 2134.58 963.92 2154.73 968.33C2175.6 972.89 2180.38 950.49 2180.38 950.49H2180.39Z" fill="#C67E4D"/>
<path d="M2178.4 949.7C2177.59 951.1 2176.41 952.92 2175.55 953.38C2174.1 954.15 2144.72 946.93 2143.65 946.56C2143.13 946.38 2142.64 943.88 2142.29 941.37C2155.45 941.35 2172.64 947.48 2178.41 949.69L2178.4 949.7Z" fill="#FFFEF3"/>
<path d="M2362.25 1121.07C2362.25 1121.07 2409.44 1241.99 2312.88 1240.07L2307.92 1207.84C2307.92 1207.84 2316.44 1196.23 2318.11 1193.31C2319.78 1190.38 2331.27 1182.81 2331.27 1182.81L2320.28 1144.84L2362.26 1121.07H2362.25Z" fill="#F19A5E"/>
<path d="M2230.75 1032.17H2285.7L2377.08 1101.32C2377.08 1101.32 2367.82 1155.03 2306.7 1159.97L2318.35 1307.99C2318.35 1307.99 2178.2 1345.03 2064.6 1320.34C2064.6 1320.34 2069 1124.78 2079.5 1096.38L2030.72 1092.06C2030.72 1092.06 2031.95 1034.64 2040.6 1003.15L2154.2 1023.53C2154.2 1023.53 2186.3 1070.45 2230.76 1032.17H2230.75Z" fill="#1AA58F"/>
<g style="mix-blend-mode:multiply" opacity="0.3">
<path d="M2259.89 1032.17H2285.69L2377.07 1101.32C2377.07 1101.32 2367.81 1155.03 2306.69 1159.97L2318.34 1307.99C2318.34 1307.99 2178.19 1345.03 2064.59 1320.34C2064.59 1320.34 2064.98 1302.86 2065.82 1277.6C2268.42 1271.45 2266.7 1093.99 2259.91 1032.17H2259.89Z" fill="#1AA58F"/>
</g>
<path d="M2301.75 1137.56L2296.81 1121.07C2296.81 1121.07 2213.24 1106.87 2185.72 1151.63V1162.13C2185.72 1162.13 2222.41 1158.12 2223.34 1158.12C2224.27 1158.12 2273.66 1147.01 2275.82 1146.39C2277.98 1145.77 2301.75 1137.56 2301.75 1137.56Z" fill="#EDE6F4"/>
<path d="M2168.08 1154.72C2168.08 1154.72 2118.69 1109.03 2077.01 1135.27V1154.72C2077.01 1154.72 2108.5 1159.35 2109.42 1159.35C2110.34 1159.35 2168.07 1154.72 2168.07 1154.72H2168.08Z" fill="#EDE6F4"/>
<path d="M2157.58 1157.19C2157.58 1157.19 2122.08 1118.6 2068.36 1149.63L2121.77 1278.13C2121.77 1278.13 2155.3 1257.37 2200.58 1272.73L2189.37 1213.69L2157.57 1157.2L2157.58 1157.19Z" fill="#B0C990"/>
<path d="M2305.14 1135.89C2305.14 1135.89 2241.24 1113 2188.76 1152.84C2188.76 1152.84 2211.6 1265.54 2212.53 1267.7C2213.46 1269.86 2229.33 1268.8 2229.33 1268.8C2229.33 1268.8 2287.23 1251.03 2322.73 1270.79L2305.13 1135.89H2305.14Z" fill="#B0C990"/>
<path d="M2188.76 1152.84L2232.6 1278.12C2232.6 1278.12 2214.7 1287.76 2203.89 1281.59L2157.58 1157.18C2157.58 1157.18 2167.77 1143.6 2188.76 1152.83V1152.84Z" fill="#202222"/>
<path d="M2310.74 1177.3C2310.74 1177.3 2312.91 1175.37 2315.36 1181.66C2317.81 1187.95 2334.94 1195.82 2331.97 1216.44C2329 1237.07 2306.62 1243.71 2295.44 1245.11C2284.25 1246.51 2271.49 1244.41 2272.19 1241.09C2272.89 1237.77 2283.38 1239.87 2285.3 1236.2C2287.22 1232.53 2268 1236.38 2267.12 1228.33C2267.12 1228.33 2266.95 1226.93 2268.69 1226.58C2270.44 1226.23 2282.59 1226.32 2283.98 1225.44C2285.38 1224.57 2256.27 1215.74 2256.8 1210.32C2257.32 1204.9 2283.37 1213.81 2285.99 1211.28C2288.61 1208.75 2261.17 1197.74 2262.39 1190.74C2262.39 1190.74 2262.22 1188.99 2265.19 1188.99C2268.16 1188.99 2298.46 1196.19 2309.7 1193.38L2310.73 1177.29L2310.74 1177.3Z" fill="#F5B68B"/>
<path d="M2806.3 862.91C2814.07 882.43 2838.98 941.15 2851.85 957.75C2897.17 1016.22 2895.41 1108.32 2896.04 1127.62C2896.9 1154.04 2888.53 1180.86 2871.92 1201.42C2834.26 1248.03 2765.62 1254.25 2716.66 1288.79C2700.85 1299.95 2686.76 1314.27 2668.57 1320.9C2651.67 1327.06 2633.13 1325.86 2615.15 1325.46C2579.24 1324.66 2543.26 1327.36 2507.88 1333.53C2489.64 1336.71 2470.44 1340.74 2453.02 1334.48C2425.05 1324.42 2412.07 1290.58 2414.94 1260.99C2417.81 1231.4 2432.52 1204.52 2444.48 1177.31C2449.64 1165.57 2454.41 1152.54 2450.94 1140.2C2448.43 1131.27 2441.97 1124.1 2436.87 1116.36C2413.24 1080.5 2421.7 1027.2 2455.27 1000.43C2472.29 986.86 2493.61 980.2 2513.59 971.54C2533.57 962.88 2553.69 950.84 2563.22 931.27C2568.34 920.76 2569.94 908.95 2572.69 897.59C2588.31 832.95 2636.32 787.75 2703.94 787.99C2769.93 788.23 2798.47 843.24 2806.3 862.9V862.91Z" fill="#1A1A1A"/>
<path d="M2914.3 882.81C2915.34 883.3 2916.53 882.45 2916.37 881.3C2915.13 872.44 2911.41 844.53 2913.59 843.7C2916.19 842.72 2920.12 867.57 2922.65 868.04C2925.18 868.51 2920.74 844.36 2923.68 843.76C2926.62 843.16 2929.94 865.31 2931.27 865.49C2932.6 865.67 2931.69 844.1 2933.21 842.71C2934.73 841.31 2938.5 865.62 2940.05 866.29C2941.6 866.96 2944.26 848.9 2945.71 848.96C2947.17 849.02 2948.15 848.82 2952.93 888.06L2955.86 910.72L2948.31 916.82L2930.94 916.2C2930.94 916.2 2895.64 879.55 2896.1 877.5C2896.53 875.55 2898.22 875.19 2914.3 882.8V882.81Z" fill="#F5B68B"/>
<path d="M2827.35 1069.58L2824.26 1004.74L2842.08 1005.83C2877.87 1015 2916.13 1008.1 2923.16 1004.03C2938.08 995.4 2920.69 903.74 2920.69 903.74L2953.85 906.45C2953.85 906.45 2998.03 1023.83 2957.75 1047.96C2917.48 1072.08 2836.15 1071.26 2836.15 1071.26L2827.34 1069.58H2827.35Z" fill="#F5B68B"/>
<path d="M2571.09 1400.91L2525.3 1624.97L2484.36 1650.5C2484.36 1650.5 2487.65 1659.35 2488.49 1659.91C2489.33 1660.47 2508.34 1662.81 2508.34 1662.81L2556.99 1655.72L2570.97 1645.67L2653.53 1434.85L2649.32 1423.88L2571.1 1400.91H2571.09Z" fill="#F5B68B"/>
<path d="M2814.44 1397.8L2721.94 1422.01L2727.18 1647.09C2727.18 1647.09 2727.72 1646.97 2728.67 1646.73L2741.16 1655.71L2789.81 1662.8C2789.81 1662.8 2808.82 1660.46 2809.66 1659.9C2810.5 1659.34 2813.79 1650.49 2813.79 1650.49L2773.36 1625.28L2814.44 1397.79V1397.8Z" fill="#F5B68B"/>
<path d="M2552.75 1490.66L2525.3 1624.97L2484.36 1650.5C2484.36 1650.5 2487.65 1659.35 2488.49 1659.91C2489.33 1660.47 2508.34 1662.81 2508.34 1662.81L2556.99 1655.72L2570.97 1645.67L2626.33 1504.31C2601.91 1501.34 2574.97 1495.83 2552.75 1490.67V1490.66Z" fill="#1AA58F"/>
<path d="M2793.56 1513.44C2760.55 1514.71 2737.93 1513.58 2724.05 1512.27L2727.19 1647.09C2727.19 1647.09 2727.73 1646.97 2728.68 1646.73L2741.17 1655.71L2789.82 1662.8C2789.82 1662.8 2808.83 1660.46 2809.67 1659.9C2810.51 1659.34 2813.8 1650.49 2813.8 1650.49L2773.37 1625.28L2793.57 1513.43L2793.56 1513.44Z" fill="#1AA58F"/>
<path d="M2484.36 1650.5L2472.62 1658.13C2467.18 1661.6 2469.63 1670.03 2476.09 1670.03H2565.27C2568.42 1670.03 2570.97 1667.48 2570.97 1664.33V1645.67C2511.58 1664.58 2491.06 1658.83 2484.37 1650.5H2484.36Z" fill="#222222"/>
<path d="M2813.79 1650.5L2825.53 1658.13C2830.97 1661.6 2828.52 1670.03 2822.06 1670.03H2732.88C2729.73 1670.03 2727.18 1667.48 2727.18 1664.33V1645.67C2786.57 1664.58 2807.09 1658.83 2813.78 1650.5H2813.79Z" fill="#222222"/>
<path d="M2674.93 965.58L2672.39 1025.89L2686.83 1045.13C2703.38 1065.92 2715.53 1041.2 2741.93 1038.17L2732.46 968.35L2674.94 965.58H2674.93Z" fill="#F5B68B"/>
<path d="M2737.22 1003.52L2732.45 968.36L2674.93 965.59L2673.06 1010C2709.63 1026.58 2737.22 1003.53 2737.22 1003.53V1003.52Z" fill="#C67E4D"/>
<path d="M2769.17 944.71C2771.96 932.74 2772.55 920.34 2772.22 909.62C2772.15 907.32 2772.22 905.02 2772.32 902.73C2772.75 893.45 2771.48 883.84 2768.07 874.22C2757.12 843.27 2726.52 822.81 2693.7 824.56C2649.48 826.91 2617.7 866.07 2623.18 908.75C2618.2 906.76 2612.9 906.84 2608.57 909.47C2600.26 914.53 2598.66 927.04 2604.99 937.42C2611.33 947.8 2623.2 952.11 2631.51 947.05C2632.66 946.35 2633.67 945.49 2634.57 944.52C2642.94 980.37 2676.35 1004.6 2712.02 999.44C2739.18 995.51 2762.7 974.82 2769.16 944.7L2769.17 944.71Z" fill="#F5B68B"/>
<path d="M2699.31 899.85C2695.95 899.01 2692.77 898.39 2689.62 898.12C2686.48 897.84 2683.42 897.97 2680.47 898.56C2677.54 899.18 2674.61 900.05 2671.87 901.59L2670.8 902.1C2670.45 902.28 2670.13 902.52 2669.78 902.72L2667.7 903.97C2666.3 904.84 2665.03 905.89 2663.47 906.76C2664.21 905.22 2665.08 903.69 2666.11 902.27C2667.28 901 2668.33 899.51 2669.81 898.49C2672.52 896.13 2676 894.63 2679.58 893.91C2683.18 893.2 2686.93 893.44 2690.34 894.49C2693.73 895.57 2696.91 897.29 2699.3 899.86L2699.31 899.85Z" fill="#1F1F1F"/>
<path d="M2725.57 897.41C2727.44 894.45 2730.25 892.17 2733.38 890.48C2736.54 888.82 2740.18 887.9 2743.85 887.93C2747.5 887.98 2751.2 888.81 2754.3 890.63C2755.94 891.36 2757.25 892.63 2758.64 893.67C2759.92 894.87 2761.05 896.22 2762.07 897.6C2760.38 897.03 2758.93 896.23 2757.4 895.64L2755.12 894.79C2754.74 894.66 2754.39 894.48 2754.01 894.37L2752.86 894.06C2749.88 893.06 2746.85 892.73 2743.85 892.67C2740.84 892.64 2737.81 893.08 2734.78 893.93C2731.74 894.78 2728.73 895.97 2725.58 897.41H2725.57Z" fill="#1F1F1F"/>
<path d="M2710.96 907.39C2710.35 911.05 2710.35 914.76 2710.79 918.46C2711.01 920.32 2711.38 922.16 2711.96 924.02C2712.58 925.86 2713.35 927.72 2714.88 929.4L2715.53 929.99L2716.11 930.49C2716.35 930.73 2716.69 930.91 2716.88 931.18C2717.35 931.66 2717.68 932.21 2717.88 932.8C2718.35 933.99 2718 935.42 2717.32 936.77C2715.81 939.51 2712.65 941.42 2709.24 942.75C2712.88 942.83 2716.99 941.67 2719.61 938.29C2720.89 936.65 2721.69 934.27 2721.1 931.93C2720.96 931.35 2720.76 930.79 2720.46 930.28C2720.21 929.74 2719.84 929.3 2719.47 928.85C2719.12 928.38 2718.65 928.08 2718.24 927.7C2717.98 927.49 2717.93 927.42 2717.8 927.3L2717.44 926.97C2716.49 925.97 2715.75 924.45 2715.1 922.9C2714.42 921.34 2714 919.63 2713.49 917.94C2712.58 914.51 2711.83 910.98 2710.98 907.39H2710.96Z" fill="#C67E4D"/>
<path d="M2752.72 824.46C2747.4 820.42 2744.63 818.71 2727.18 813.61C2709.73 808.5 2712.92 814.25 2693.77 816.38C2674.62 818.51 2674.62 820.21 2655.32 824.47C2636.02 828.73 2645.46 828.73 2632.06 836.81C2618.65 844.9 2628.87 860.64 2628.87 860.64C2628.87 860.64 2601.17 902.7 2623.19 908.76C2670.52 921.79 2695.2 853.12 2695.2 853.12C2697.04 863.41 2689.95 883.2 2689.95 883.2C2719.18 866.88 2721.59 849.01 2721.59 849.01C2723.01 861.46 2714.92 892.21 2714.92 892.21C2737.05 876.25 2745.07 853.19 2745.07 853.19C2755.28 856.38 2782.31 885.54 2782.31 885.54L2767.45 841.05L2767.1 840L2752.73 824.46H2752.72Z" fill="#1A1A1A"/>
<path d="M2698.41 916.45C2697.86 917.48 2696.58 919.14 2695.27 920.28C2689.23 925.2 2679.32 923.72 2674.86 918.57C2684.14 921.18 2691.63 920.22 2698.42 916.45H2698.41Z" fill="#202222"/>
<path d="M2751.59 911.67C2751.04 912.7 2749.76 914.36 2748.45 915.5C2742.41 920.42 2732.5 918.94 2728.04 913.8C2737.32 916.41 2744.81 915.45 2751.59 911.68V911.67Z" fill="#202222"/>
<path d="M2694.76 955.07C2694.76 955.07 2718.1 949.33 2731.65 952.72C2731.65 952.72 2732.23 971.84 2714.43 973.05C2695.99 974.31 2694.76 955.07 2694.76 955.07Z" fill="#C67E4D"/>
<path d="M2696.56 954.65C2697.08 955.92 2697.85 957.58 2698.53 958.06C2699.67 958.88 2725.73 956.44 2726.7 956.26C2727.17 956.18 2727.9 954.15 2728.53 952.11C2717.28 950.49 2701.78 953.51 2696.56 954.65Z" fill="#FFFEF3"/>
<path d="M2820.17 1280.76L2871.1 1426.05C2871.1 1426.05 2815.07 1460.04 2785.74 1451.19C2756.41 1442.34 2762.62 1433.03 2739.34 1438.15C2716.06 1443.27 2640.25 1458.49 2619.22 1448.86C2587.01 1434.11 2596.87 1429.31 2569.4 1427.91C2541.93 1426.51 2527.21 1436.39 2505.33 1425.68L2594.3 1269.77L2646.69 1257.97L2820.18 1280.76H2820.17Z" fill="#202222"/>
<path d="M2555.2 1103.38C2555.2 1103.38 2513.2 1211.02 2599.15 1209.31L2603.56 1180.62C2603.56 1180.62 2595.98 1170.29 2594.49 1167.68C2593 1165.08 2582.78 1158.34 2582.78 1158.34L2592.57 1124.54L2555.2 1103.38Z" fill="#F19A5E"/>
<path d="M2672.26 1024.25H2623.35L2542.01 1085.8C2542.01 1085.8 2550.25 1133.61 2604.66 1138.01L2594.29 1269.77C2594.29 1269.77 2719.05 1302.75 2820.17 1280.76C2820.17 1280.76 2816.25 1106.68 2806.91 1081.4L2850.33 1077.55C2850.33 1077.55 2849.23 1026.44 2841.54 998.41L2740.42 1016.55C2740.42 1016.55 2711.84 1058.32 2672.27 1024.24L2672.26 1024.25Z" fill="#F2F7FF"/>
<path d="M2646.31 1024.25H2623.34L2542 1085.8C2542 1085.8 2550.24 1133.61 2604.65 1138.01L2594.28 1269.77C2594.28 1269.77 2719.04 1302.75 2820.16 1280.76C2820.16 1280.76 2819.81 1265.2 2819.07 1242.71C2638.73 1237.24 2640.26 1079.27 2646.3 1024.24L2646.31 1024.25Z" fill="#F2F8FF"/>
<path d="M2609.06 1118.06L2613.46 1103.39C2613.46 1103.39 2687.85 1090.75 2712.35 1130.59V1139.93C2712.35 1139.93 2679.69 1136.36 2678.86 1136.36C2678.03 1136.36 2634.07 1126.47 2632.15 1125.92C2630.23 1125.37 2609.07 1118.06 2609.07 1118.06H2609.06Z" fill="#EDE6F4"/>
<path d="M2728.04 1133.34C2728.04 1133.34 2772.01 1092.67 2809.1 1116.03V1133.34C2809.1 1133.34 2781.07 1137.46 2780.25 1137.46C2779.43 1137.46 2728.04 1133.34 2728.04 1133.34Z" fill="#EDE6F4"/>
<path d="M2737.38 1135.54C2737.38 1135.54 2768.98 1101.19 2816.8 1128.81L2769.26 1243.2C2769.26 1243.2 2739.42 1224.72 2699.1 1238.39L2709.08 1185.83L2737.38 1135.54Z" fill="#B0C990"/>
<path d="M2606.03 1116.58C2606.03 1116.58 2662.91 1096.2 2709.63 1131.67C2709.63 1131.67 2689.3 1231.99 2688.47 1233.92C2687.65 1235.84 2673.51 1234.9 2673.51 1234.9C2673.51 1234.9 2621.97 1219.09 2590.37 1236.67L2606.03 1116.58Z" fill="#B0C990"/>
<path d="M2709.63 1131.67L2670.61 1243.19C2670.61 1243.19 2686.55 1251.77 2696.17 1246.28L2737.39 1135.54C2737.39 1135.54 2728.32 1123.45 2709.64 1131.67H2709.63Z" fill="#202222"/>
<path d="M2601.05 1153.44C2601.05 1153.44 2599.12 1151.72 2596.94 1157.32C2594.76 1162.92 2579.51 1169.92 2582.16 1188.28C2584.81 1206.64 2604.72 1212.55 2614.68 1213.8C2624.64 1215.04 2636 1213.18 2635.37 1210.22C2634.75 1207.26 2625.41 1209.13 2623.7 1205.86C2621.99 1202.59 2639.1 1206.02 2639.88 1198.86C2639.88 1198.86 2640.04 1197.61 2638.48 1197.3C2636.92 1196.99 2626.11 1197.07 2624.87 1196.29C2623.63 1195.51 2649.53 1187.65 2649.06 1182.83C2648.59 1178.01 2625.41 1185.94 2623.08 1183.68C2620.75 1181.43 2645.17 1171.63 2644.08 1165.4C2644.08 1165.4 2644.24 1163.84 2641.59 1163.84C2638.94 1163.84 2611.97 1170.25 2601.97 1167.75L2601.05 1153.42V1153.44Z" fill="#F5B68B"/>
<path d="M3424.7 1155.27C3424.89 1156.3 3426.15 1156.72 3426.91 1155.99C3432.78 1150.37 3451.35 1132.78 3453.12 1133.95C3455.23 1135.34 3439.01 1151.45 3440.01 1153.57C3441.01 1155.69 3456.43 1139.57 3458.44 1141.42C3460.45 1143.27 3445.9 1157.49 3446.48 1158.57C3447.06 1159.65 3462.46 1147.51 3464.29 1147.88C3466.13 1148.26 3451.26 1163.21 3451.59 1164.72C3451.92 1166.22 3465.61 1159.31 3466.34 1160.42C3467.07 1161.53 3467.74 1162.14 3441.38 1186.53L3426.25 1200.74L3417.74 1198.42L3408.96 1185.3C3408.96 1185.3 3417.18 1139.81 3418.93 1139.06C3420.6 1138.34 3421.76 1139.4 3424.7 1155.28V1155.27Z" fill="#F5B68B"/>
<path d="M3241.93 1189.82L3288.04 1153.06L3296.72 1166.77C3309 1198.01 3334.43 1222.51 3341.17 1225.53C3355.46 1231.93 3413.71 1170.38 3413.71 1170.38L3429.35 1196.24C3429.35 1196.24 3366.39 1291.2 3327.21 1274.37C3288.02 1257.54 3245.38 1197.21 3245.38 1197.21L3241.94 1189.83L3241.93 1189.82Z" fill="#F5B68B"/>
<path d="M3124.76 1599.34H3168.48V1669.94H3124.76V1599.34Z" fill="#F5B68B"/>
<path d="M2915.41 1646.46L2963.85 1644.81L2979.16 1589.18L2929.82 1584.07L2915.41 1646.46Z" fill="#F5B68B"/>
<path d="M3226.84 1330.3C3226.84 1330.3 3192.5 1573.42 3182.95 1607.37C3182.95 1607.37 3140.02 1622.08 3111.4 1607.37C3111.4 1607.37 3111.8 1395.21 3107.03 1385.67C3107.03 1385.67 3056.06 1437.76 2994.05 1596.3C2994.05 1596.3 2932.04 1603.76 2910.09 1596.3L2982.6 1319.8C2982.6 1319.8 3065.6 1285.46 3068.46 1287.36C3071.32 1289.27 3226.83 1330.29 3226.83 1330.29L3226.84 1330.3Z" fill="#B5CD96"/>
<path d="M3111.53 1031.43L3111.79 1061.52L3157.27 1059.97L3160.99 1016.49L3111.53 1031.43Z" fill="#F5B68B"/>
<path d="M3111.68 1048.86C3121.34 1052.61 3136.68 1056.05 3157.83 1053.4L3160.99 1016.49L3111.53 1031.43L3111.68 1048.86Z" fill="#C67E4D"/>
<path d="M3219.69 933.73C3215.87 944.71 3219.9 956.09 3228.7 959.15C3237.5 962.21 3247.73 955.79 3251.55 944.81C3255.37 933.83 3251.34 922.45 3242.54 919.39C3233.74 916.33 3223.51 922.75 3219.69 933.73Z" fill="#C67E4D"/>
<path d="M3225.89 981.73C3230.32 967.63 3232.15 952.81 3232.72 939.94C3232.84 937.18 3233.13 934.43 3233.46 931.68C3234.81 920.6 3234.16 908.96 3230.94 897.11C3220.6 859.01 3185.77 831.72 3146.25 830.85C3093.01 829.68 3051.37 873.75 3054.09 925.43C3048.3 922.6 3041.94 922.21 3036.51 924.98C3026.09 930.3 3023.03 945.15 3029.7 958.17C3036.36 971.18 3050.21 977.42 3060.63 972.11C3062.08 971.37 3063.37 970.43 3064.52 969.36C3071.32 1013.1 3109.19 1045.17 3152.43 1042.21C3185.44 1039.95 3215.45 1017.2 3225.88 981.74L3225.89 981.73Z" fill="#F5B68B"/>
<path d="M3148.54 928.23C3144.59 926.92 3140.84 925.9 3137.09 925.29C3133.36 924.68 3129.68 924.55 3126.09 924.99C3122.52 925.47 3118.94 926.25 3115.52 927.84L3114.19 928.36C3113.75 928.54 3113.35 928.81 3112.92 929.01L3110.31 930.32C3108.56 931.23 3106.94 932.38 3105 933.28C3106.03 931.5 3107.2 929.74 3108.56 928.14C3110.08 926.72 3111.47 925.03 3113.33 923.94C3116.78 921.36 3121.1 919.88 3125.45 919.34C3129.83 918.82 3134.3 919.44 3138.29 921C3142.26 922.6 3145.91 924.95 3148.54 928.24V928.23Z" fill="#1AA58F"/>
<path d="M3176.27 928.97C3178.77 925.59 3182.34 923.12 3186.25 921.38C3190.18 919.68 3194.63 918.9 3199.02 919.27C3203.38 919.66 3207.75 920.98 3211.29 923.44C3213.19 924.46 3214.64 926.1 3216.21 927.47C3217.63 929.02 3218.87 930.74 3219.96 932.48C3217.99 931.64 3216.33 930.56 3214.54 929.71L3211.88 928.49C3211.44 928.31 3211.03 928.05 3210.58 927.89L3209.23 927.42C3205.76 925.95 3202.15 925.29 3198.56 924.94C3194.96 924.63 3191.29 924.88 3187.58 925.63C3183.86 926.37 3180.15 927.52 3176.25 928.97H3176.27Z" fill="#1AA58F"/>
<path d="M3159.96 933.5C3158.92 937.75 3158.59 942.12 3158.77 946.52C3158.87 948.73 3159.13 950.93 3159.66 953.17C3160.22 955.39 3160.97 957.66 3162.62 959.76L3163.33 960.51L3163.96 961.15C3164.23 961.45 3164.61 961.7 3164.8 962.03C3165.31 962.64 3165.65 963.32 3165.83 964.03C3166.28 965.47 3165.74 967.13 3164.81 968.65C3162.78 971.74 3158.9 973.71 3154.76 974.98C3159.04 975.4 3163.98 974.39 3167.36 970.65C3169.02 968.84 3170.17 966.1 3169.68 963.29C3169.56 962.6 3169.39 961.91 3169.07 961.29C3168.82 960.63 3168.42 960.08 3168.03 959.52C3167.66 958.93 3167.14 958.55 3166.68 958.06C3166.39 957.79 3166.34 957.7 3166.2 957.54L3165.81 957.12C3164.78 955.85 3164.04 954 3163.42 952.13C3162.76 950.24 3162.42 948.18 3161.96 946.15C3161.19 942.03 3160.62 937.81 3159.94 933.5H3159.96Z" fill="#C67E4D"/>
<path d="M3244.49 878.62C3244.49 878.62 3258.98 877.45 3263.56 871.54C3263.56 871.54 3245.72 877.8 3237.82 857.5C3229.92 837.2 3210.22 816.79 3182.2 811.03C3154.18 805.27 3081.63 810.6 3063.31 828.89C3045 847.19 3038.39 864.83 3040.16 889.23C3041.93 913.63 3034.57 923.89 3027.28 924.14C3027.28 924.14 3036.38 927.64 3045.71 922.47C3045.71 922.47 3045.07 933.2 3035.5 936.41C3035.5 936.41 3058.51 934.16 3063.4 920.22C3063.4 920.22 3063.45 946.84 3057.56 952.91C3057.56 952.91 3075.89 945.26 3080.32 901.43C3080.32 901.43 3155.21 872.63 3167.8 838.08C3167.8 838.08 3157.54 872.66 3145.6 878.17C3145.6 878.17 3177.22 879.59 3193.96 848.84C3193.96 848.84 3217.24 866.34 3223.4 878.2C3229.35 889.65 3234.07 918.53 3234.13 920.61L3243.98 887.64C3243.98 887.64 3252.1 893.93 3263.48 889.16C3263.48 889.16 3247.3 884.89 3244.5 878.59L3244.49 878.62Z" fill="#1AA58F"/>
<path d="M3175.23 1058.25L3086.26 1053.23C3086.26 1053.23 3080.89 1073.11 3089.57 1074.67C3098.25 1076.22 3113.4 1090.18 3120.38 1088.81C3127.36 1087.43 3130.46 1084.42 3138.16 1084.32C3145.87 1084.22 3161.49 1078.46 3163.55 1075.92C3165.61 1073.38 3175.35 1065.57 3174.84 1065.07C3174.34 1064.57 3175.23 1058.25 3175.23 1058.25Z" fill="#F5B68B"/>
<path d="M3223.14 1690.73L3119.63 1691.43C3117.37 1691.44 3115.55 1689.66 3115.57 1687.45L3115.6 1684.47C3115.62 1682.26 3117.47 1680.45 3119.73 1680.44L3223.24 1679.74C3225.5 1679.73 3227.32 1681.51 3227.3 1683.72L3227.27 1686.7C3227.25 1688.91 3225.4 1690.72 3223.14 1690.73Z" fill="#202222"/>
<path d="M3121.04 1647.05L3117.07 1677.64C3116.58 1681.41 3118.71 1684.82 3121.54 1684.8L3219.98 1684.14C3222.54 1684.12 3225.08 1682.55 3226.45 1679.6C3227.85 1676.58 3228.17 1672.05 3223.82 1665.99C3215.11 1653.87 3186.18 1651.1 3172.11 1640.8L3126.26 1641.11C3123.7 1641.13 3121.49 1643.64 3121.05 1647.05H3121.04Z" fill="#1AA58F"/>
<path d="M3164.98 1658.59C3164.27 1658.17 3164.02 1657 3164.44 1656.1C3166.41 1651.9 3172.54 1641.66 3184.81 1643.68C3185.52 1643.8 3185.99 1644.72 3185.86 1645.67V1645.7C3185.73 1646.62 3185.09 1647.23 3184.4 1647.12C3173.4 1645.36 3168.18 1654.38 3166.59 1657.9C3166.25 1658.65 3165.56 1658.95 3164.97 1658.6L3164.98 1658.59Z" fill="#EDEEDC"/>
<path d="M3175.17 1662.45C3174.46 1662.03 3174.21 1660.86 3174.63 1659.96C3176.6 1655.76 3182.73 1645.53 3195 1647.54C3195.71 1647.66 3196.18 1648.58 3196.05 1649.53V1649.56C3195.92 1650.48 3195.28 1651.09 3194.59 1650.98C3183.59 1649.22 3178.37 1658.24 3176.78 1661.76C3176.44 1662.51 3175.75 1662.81 3175.16 1662.46L3175.17 1662.45Z" fill="#EDEEDC"/>
<path d="M3184.65 1666.06C3183.94 1665.64 3183.69 1664.47 3184.11 1663.57C3186.08 1659.37 3192.21 1649.14 3204.48 1651.15C3205.19 1651.27 3205.66 1652.18 3205.53 1653.14V1653.17C3205.4 1654.09 3204.76 1654.7 3204.07 1654.59C3193.07 1652.83 3187.85 1661.85 3186.26 1665.37C3185.92 1666.12 3185.23 1666.42 3184.64 1666.07L3184.65 1666.06Z" fill="#EDEEDC"/>
<path d="M2864.45 1690.73L2967.96 1691.43C2970.22 1691.44 2972.04 1689.66 2972.02 1687.45L2971.99 1684.47C2971.97 1682.26 2970.12 1680.45 2967.86 1680.44L2864.35 1679.74C2862.09 1679.73 2860.27 1681.51 2860.29 1683.72L2860.32 1686.7C2860.34 1688.91 2862.19 1690.72 2864.45 1690.73Z" fill="#202222"/>
<path d="M2966.56 1647.05L2970.53 1677.64C2971.02 1681.41 2968.89 1684.82 2966.06 1684.8L2867.62 1684.14C2865.06 1684.12 2862.52 1682.55 2861.15 1679.6C2859.75 1676.58 2859.43 1672.05 2863.78 1665.99C2872.49 1653.87 2901.42 1651.1 2915.49 1640.8L2961.34 1641.11C2963.9 1641.13 2966.11 1643.64 2966.55 1647.05H2966.56Z" fill="#1AA58F"/>
<path d="M2922.61 1658.59C2923.32 1658.17 2923.57 1657 2923.15 1656.1C2921.18 1651.9 2915.05 1641.66 2902.78 1643.68C2902.07 1643.8 2901.6 1644.72 2901.73 1645.67V1645.7C2901.86 1646.62 2902.5 1647.23 2903.19 1647.12C2914.19 1645.36 2919.41 1654.38 2921 1657.9C2921.34 1658.65 2922.03 1658.95 2922.62 1658.6L2922.61 1658.59Z" fill="#EDEEDC"/>
<path d="M2912.43 1662.45C2913.14 1662.03 2913.39 1660.86 2912.97 1659.96C2911 1655.76 2904.87 1645.53 2892.6 1647.54C2891.89 1647.66 2891.42 1648.58 2891.55 1649.53V1649.56C2891.68 1650.48 2892.32 1651.09 2893.01 1650.98C2904.01 1649.22 2909.23 1658.24 2910.82 1661.76C2911.16 1662.51 2911.85 1662.81 2912.44 1662.46L2912.43 1662.45Z" fill="#EDEEDC"/>
<path d="M2902.95 1666.06C2903.66 1665.64 2903.91 1664.47 2903.49 1663.57C2901.52 1659.37 2895.39 1649.14 2883.12 1651.15C2882.41 1651.27 2881.94 1652.18 2882.07 1653.14V1653.17C2882.2 1654.09 2882.84 1654.7 2883.53 1654.59C2894.53 1652.83 2899.75 1661.85 2901.34 1665.37C2901.68 1666.12 2902.37 1666.42 2902.96 1666.07L2902.95 1666.06Z" fill="#EDEEDC"/>
<path d="M3245.29 1200.99C3251.01 1080.8 3226.85 1062.56 3226.85 1062.55C3228.23 1063.24 3229.51 1064.01 3230.67 1064.88C3246.52 1076.77 3312.08 1161.56 3312.08 1161.56C3312.08 1161.56 3285.37 1202.27 3245.3 1200.99H3245.29Z" fill="#B5CD96"/>
<path d="M2853.41 1290.72C2853.41 1290.72 2863.18 1283.76 2867.1 1281.32L2872.69 1269.5C2891.56 1217.3 2934.81 1161 2973.46 1117.65C2986.14 1127.89 2999.61 1138.76 3012.19 1148.91C2968.31 1196.49 2918.46 1262.93 2897.49 1291.49L2896.65 1293.35L2890.82 1315.11C2885.62 1332.69 2881.15 1351.73 2879.51 1352.25C2877.2 1352.98 2875.8 1351.42 2874.01 1329.96C2873.89 1328.57 2872.28 1327.84 2871.17 1328.7C2862.63 1335.37 2835.61 1356.18 2833.41 1354.39C2830.8 1352.27 2854.49 1333.08 2853.44 1330.14C2852.4 1327.2 2829.76 1346.49 2827.34 1343.77C2824.92 1341.05 2846.14 1324.15 2845.52 1322.65C2844.9 1321.15 2822.83 1335.17 2820.44 1334.42C2818.05 1333.67 2839.79 1315.84 2839.55 1313.81C2839.31 1311.77 2820.21 1319.09 2819.39 1317.53C2818.57 1315.97 2815.14 1319.52 2853.4 1290.73L2853.41 1290.72Z" fill="#F5B68B"/>
<path d="M3006.14 1189.74C3006.14 1189.74 2954.94 1159.53 2943.02 1129C2943.02 1129 3015.53 1057.45 3032.7 1052.68C3051.78 1081.3 3006.15 1189.74 3006.15 1189.74H3006.14Z" fill="#B5CD96"/>
<path d="M3032.7 1052.68C3043.36 1049.72 3095.19 1052.68 3095.19 1052.68C3095.19 1052.68 3118.09 1090.68 3171.51 1058.09C3171.51 1058.09 3208.39 1052.86 3226.84 1062.12C3226.84 1062.12 3251.01 1080.35 3245.28 1200.56C3245.28 1200.56 3236.38 1323.31 3233.83 1336.03C3233.83 1336.03 3076.1 1358.29 2973.06 1328.4L3006.13 1189.75C3006.13 1189.75 3051.76 1081.31 3032.68 1052.69L3032.7 1052.68Z" fill="#B5CD96"/>
<path d="M3305.66 1153.34C3309.66 1158.45 3312.06 1161.56 3312.06 1161.56C3312.06 1161.56 3285.35 1202.27 3245.28 1200.99C3245.46 1197.16 3245.61 1193.43 3245.74 1189.8C3271.47 1185.06 3292.5 1167.4 3305.66 1153.34Z" fill="#EDEEDC"/>
<path d="M2954.71 1117.65C2960.16 1128.17 2975.52 1156.55 3012.19 1174.43C3008.63 1183.84 3006.14 1189.74 3006.14 1189.74C3006.14 1189.74 2954.94 1159.53 2943.02 1129C2943.02 1129 2947.59 1124.48 2954.72 1117.65H2954.71Z" fill="#EDEEDC"/>
<path opacity="0.3" d="M3209.47 1057.47C3215.86 1058.26 3221.99 1059.69 3226.84 1062.12C3226.84 1062.12 3251.01 1080.35 3245.28 1200.56C3245.28 1200.56 3236.38 1323.31 3233.83 1336.03C3233.83 1336.03 3076.1 1358.29 2973.06 1328.4L2981.68 1292.28C3222.98 1289.46 3213.44 1094.95 3209.47 1057.47Z" fill="#A5C183"/>
<g style="mix-blend-mode:multiply" opacity="0.3">
<path d="M3116.17 1392.63C3118.87 1397.49 3127.51 1562.91 3130.07 1613.05C3123.58 1612.12 3117.19 1610.35 3111.4 1607.37C3111.4 1607.37 3111.8 1395.21 3107.03 1385.67C3107.03 1385.67 3112.99 1386.91 3116.17 1392.63Z" fill="#B5CD96"/>
</g>
<path d="M3170.69 987.42C3170.69 987.42 3146.3 981.92 3132.3 985.9C3132.3 985.9 3132.15 1006.34 3150.68 1007.15C3169.87 1008 3170.69 987.41 3170.69 987.41V987.42Z" fill="#C67E4D"/>
<path d="M3168.81 987.03C3168.3 988.4 3167.54 990.19 3166.85 990.73C3165.68 991.64 3138.54 989.73 3137.54 989.57C3137.05 989.49 3136.24 987.35 3135.54 985.18C3147.2 983.15 3163.37 985.95 3168.82 987.03H3168.81Z" fill="#FFFEF3"/>
<path d="M3178.95 944.66C3179.72 945.84 3181.45 947.7 3183.14 948.92C3190.94 954.18 3202.7 951.33 3207.51 944.66C3196.63 948.81 3187.51 948.46 3178.94 944.66H3178.95Z" fill="#202222"/>
<path d="M3114.46 944.66C3115.23 945.84 3116.96 947.7 3118.65 948.92C3126.45 954.18 3138.21 951.33 3143.02 944.66C3132.14 948.81 3123.02 948.46 3114.45 944.66H3114.46Z" fill="#202222"/>
<path d="M1515.23 1130.55C1515.2 1131.69 1513.92 1132.35 1512.99 1131.7C1505.74 1126.67 1482.82 1110.99 1481.12 1112.54C1479.1 1114.39 1499.24 1128.9 1498.53 1131.34C1497.82 1133.78 1478.53 1119.13 1476.69 1121.46C1474.85 1123.79 1492.88 1136.55 1492.45 1137.8C1492.02 1139.05 1473.43 1128.67 1471.53 1129.38C1469.63 1130.1 1488.12 1143.6 1488.02 1145.26C1487.92 1146.93 1472.06 1141.85 1471.47 1143.16C1470.88 1144.47 1470.26 1145.24 1502.69 1166.9L1521.34 1179.55L1530.06 1175.61L1537.24 1160.05C1537.24 1160.05 1520.66 1112.68 1518.65 1112.17C1516.74 1111.68 1515.68 1113.01 1515.23 1130.55Z" fill="#F5B68B"/>
<path d="M1717.11 1136.38L1661.39 1104.84L1654.43 1121.02C1646.6 1156.61 1623.52 1187.23 1616.81 1191.61C1602.58 1200.91 1529.6 1144.86 1529.6 1144.86L1517.25 1175.26C1517.25 1175.26 1600.98 1266.33 1640.12 1241.59C1679.26 1216.85 1714.68 1144.87 1714.68 1144.87L1717.11 1136.37V1136.38Z" fill="#F5B68B"/>
<path d="M1659.2 1011.54C1669.82 983.92 1680.16 994.86 1699.33 961.46C1702.38 956.15 1704.58 949.28 1706.11 942.94C1710.71 924 1720.66 906.7 1735.41 893.96C1780.36 855.14 1831.22 872.37 1831.22 872.37C1831.22 872.37 1818.03 947.41 1815.5 962.62C1826.74 977.9 1838.06 993.51 1838.06 993.51C1838.06 993.51 1861.72 1116.86 1824.59 1127.26C1787.46 1137.66 1780.7 1120.97 1762.57 1112.28C1744.44 1103.58 1726.74 1127.32 1699.65 1110.8C1678.96 1098.18 1689.47 1066.72 1678.52 1060.82C1667.58 1054.92 1647.72 1041.35 1659.19 1011.54H1659.2Z" fill="#242424"/>
<path d="M1850.47 934.6C1851.13 934.31 1868.15 924.71 1884.09 915.71L1785.11 805.52C1785.11 805.52 1815.11 799.71 1816.93 799.48C1818.75 799.25 1861.77 812.64 1861.77 812.64L1906.12 824.65C1939.96 948.15 1982.11 970.51 1982.12 970.52C1987.21 973.9 1992.02 978.41 1996.89 986.28C2013.68 1013.45 1996.69 1030.46 1987.03 1038.29C1977.37 1046.12 1993.53 1075.09 1975.54 1091.32C1951.98 1112.57 1930.19 1092.53 1913.98 1104.44C1897.77 1116.35 1894.23 1134 1855.82 1130.66C1817.41 1127.32 1817.78 1001.73 1817.78 1001.73C1817.78 1001.73 1849.22 935.14 1850.47 934.59V934.6Z" fill="#242424"/>
<path d="M1790.32 999.82H1846.36V1098.17H1790.32V999.82Z" fill="#F5B68B"/>
<path d="M1790.42 1016.63V983.09H1846.36V1011.62C1834.32 1018.09 1816.48 1021.82 1790.42 1016.63Z" fill="#C67E4D"/>
<path d="M1711.92 890.34C1717.28 887.7 1723.5 888.17 1729.13 891.02C1727.2 840.35 1768.52 797.73 1820.57 799.53C1872.62 797.73 1913.94 840.35 1912.01 891.02C1917.64 888.17 1923.86 887.7 1929.22 890.34C1939.5 895.41 1942.69 909.94 1936.36 922.79C1930.02 935.64 1916.55 941.95 1906.27 936.87C1904.84 936.17 1903.57 935.26 1902.42 934.23C1896.53 976.12 1861.58 1007.53 1820.58 1006.94C1779.58 1007.52 1744.63 976.12 1738.74 934.23C1737.59 935.27 1736.32 936.17 1734.89 936.87C1724.61 941.94 1711.14 935.63 1704.8 922.79C1698.46 909.94 1701.66 895.41 1711.94 890.34H1711.92Z" fill="#F5B68B"/>
<path d="M1835.23 893.27C1839.08 891.93 1842.74 890.89 1846.4 890.24C1850.05 889.59 1853.65 889.42 1857.16 889.8C1860.66 890.22 1864.18 890.94 1867.54 892.45L1868.85 892.94C1869.28 893.11 1869.67 893.37 1870.11 893.56L1872.68 894.81C1874.41 895.68 1876.01 896.78 1877.93 897.63C1876.9 895.89 1875.73 894.19 1874.37 892.63C1872.86 891.26 1871.48 889.62 1869.64 888.57C1866.22 886.08 1861.98 884.69 1857.71 884.22C1853.42 883.77 1849.04 884.44 1845.16 886.02C1841.3 887.65 1837.75 890 1835.23 893.27Z" fill="#202222"/>
<path d="M1804.21 893.15C1801.71 889.87 1798.18 887.49 1794.34 885.83C1790.46 884.21 1786.1 883.51 1781.8 883.93C1777.53 884.37 1773.27 885.73 1769.84 888.19C1768 889.22 1766.59 890.85 1765.08 892.21C1763.71 893.75 1762.53 895.45 1761.49 897.18C1763.41 896.34 1765.02 895.25 1766.76 894.39L1769.34 893.16C1769.77 892.97 1770.17 892.72 1770.6 892.55L1771.91 892.07C1775.29 890.58 1778.82 889.89 1782.31 889.5C1785.83 889.15 1789.43 889.34 1793.07 890.02C1796.72 890.69 1800.37 891.77 1804.21 893.13V893.15Z" fill="#202222"/>
<path d="M1816.76 898.49C1817.14 902.53 1816.86 906.58 1816.1 910.59C1815.72 912.6 1815.18 914.59 1814.4 916.56C1813.59 918.52 1812.6 920.5 1810.8 922.2L1810.05 922.79L1809.38 923.29C1809.1 923.53 1808.71 923.7 1808.49 923.98C1807.94 924.47 1807.54 925.04 1807.28 925.68C1806.68 926.94 1806.95 928.53 1807.59 930.06C1809.03 933.17 1812.32 935.5 1815.94 937.21C1811.97 937.02 1807.58 935.43 1804.98 931.54C1803.71 929.66 1803.02 926.99 1803.84 924.48C1804.04 923.86 1804.29 923.26 1804.67 922.73C1804.99 922.16 1805.42 921.71 1805.86 921.25C1806.28 920.76 1806.81 920.48 1807.29 920.09C1807.59 919.88 1807.65 919.81 1807.8 919.68L1808.22 919.35C1809.34 918.33 1810.26 916.73 1811.08 915.09C1811.94 913.44 1812.52 911.61 1813.22 909.8C1814.47 906.13 1815.57 902.33 1816.77 898.48L1816.76 898.49Z" fill="#C67E4D"/>
<path d="M1928.12 889.8C1928.12 889.8 1933.79 784.93 1816.93 778C1816.93 778 1820.56 881.02 1912 891.02L1919.05 877.32L1928.12 889.79V889.8Z" fill="#242424"/>
<path d="M1816.93 778C1816.93 778 1722.13 772.69 1717.11 888.76C1717.11 888.76 1724 888.26 1729.13 891.02C1729.13 891.02 1804.21 872.24 1822.85 799.48L1816.93 778Z" fill="#242424"/>
<path d="M1868.09 1033.76H1760.71C1760.71 1033.76 1744.94 1058.1 1745.92 1059.66C1746.9 1061.21 1774.87 1093.33 1788.33 1095.91C1801.8 1098.5 1817.85 1108.86 1828.73 1103.16C1839.61 1097.46 1864.98 1087.62 1864.98 1087.62C1864.98 1087.62 1876.36 1071.56 1877.92 1064.83C1879.48 1058.1 1868.09 1033.75 1868.09 1033.75V1033.76Z" fill="#F5B68B"/>
<path d="M1962.7 1433.59L2013.64 1682.83L2059.18 1711.22C2059.18 1711.22 2055.52 1721.06 2054.59 1721.69C2053.66 1722.32 2032.51 1724.92 2032.51 1724.92L1978.39 1717.03L1962.84 1705.85L1871 1471.34L1875.69 1459.14L1962.7 1433.59Z" fill="#F5B68B"/>
<path d="M1692 1430.14L1794.89 1457.07L1789.06 1707.44C1789.06 1707.44 1788.46 1707.3 1787.4 1707.04L1773.51 1717.03L1719.39 1724.92C1719.39 1724.92 1698.24 1722.31 1697.31 1721.69C1696.38 1721.07 1692.72 1711.22 1692.72 1711.22L1737.69 1683.18L1691.99 1430.13L1692 1430.14Z" fill="#F5B68B"/>
<path d="M1921.27 1166.34C1921.27 1166.34 1927.2 1215.36 1944.37 1280.11L1937.5 1324.48L1764.51 1360.04L1685.44 1293.75L1684.09 1280.11C1701.27 1215.36 1707.19 1166.34 1707.19 1166.34C1647.8 1169.79 1613.96 1131.12 1613.96 1131.12C1613.96 1131.12 1629.66 1112.88 1657.46 1081.4C1694.06 1039.97 1760.36 1033.75 1760.36 1033.75C1769.68 1087.61 1858.77 1087.61 1868.09 1033.75C1868.09 1033.75 1934.38 1039.96 1970.98 1081.4C1998.79 1112.88 2014.49 1131.12 2014.49 1131.12C2014.49 1131.12 1980.65 1169.79 1921.26 1166.34H1921.27Z" fill="#1AA58F"/>
<path d="M1803.88 1474.84H1803.87C1685.58 1471.53 1628.81 1429.45 1628.81 1429.45C1654.14 1379.65 1671.93 1325.94 1684.09 1280.11C1684.09 1280.11 1728.25 1315.5 1733.43 1112.48H1895.02C1900.2 1315.51 1944.36 1280.11 1944.36 1280.11C1956.52 1325.94 1974.31 1379.65 1999.64 1429.45C1999.64 1429.45 1942.87 1471.53 1824.58 1474.84H1824.57C1822.89 1474.89 1821.19 1474.93 1819.49 1474.96C1817.75 1474.99 1816 1475.02 1814.24 1475.03H1814.22C1812.46 1475.02 1810.71 1474.99 1808.97 1474.96C1807.26 1474.93 1805.57 1474.89 1803.89 1474.84H1803.88Z" fill="#B5CD96"/>
<g style="mix-blend-mode:multiply" opacity="0.3">
<path d="M1831.52 1112.48H1895.02C1900.2 1315.51 1944.36 1280.11 1944.36 1280.11C1956.52 1325.94 1974.31 1379.65 1999.64 1429.45C1999.64 1429.45 1942.87 1471.53 1824.58 1474.84H1824.57C1822.89 1474.89 1821.19 1474.93 1819.49 1474.96C1817.75 1474.99 1816 1475.02 1814.24 1475.03H1814.22C1812.46 1475.02 1810.71 1474.99 1808.97 1474.96C1807.26 1474.93 1805.57 1474.89 1803.89 1474.84H1803.88C1685.59 1471.53 1628.82 1429.45 1628.82 1429.45C1631.7 1423.78 1634.47 1418.06 1637.16 1412.32C1888.13 1372.35 1844.5 1159.75 1831.53 1112.48H1831.52Z" fill="#B5CD96"/>
</g>
<path d="M1897.05 1039.46C1897.05 1039.46 1889.33 1115.59 1888.29 1128.54C1888.29 1128.54 1879.49 1130.09 1864.98 1128.54L1868.09 1033.76C1868.09 1033.76 1886.64 1027.56 1897.04 1039.46H1897.05Z" fill="#B5CD96"/>
<path d="M1731.75 1039.46C1731.75 1039.46 1739.47 1115.59 1740.51 1128.54C1740.51 1128.54 1749.31 1130.09 1763.82 1128.54L1760.71 1033.76C1760.71 1033.76 1742.16 1027.56 1731.75 1039.46Z" fill="#B5CD96"/>
<path d="M1774.58 1236.19C1775.03 1233.93 1802.79 1233 1811.61 1232.77C1812.75 1232.74 1813.39 1231.45 1812.74 1230.51C1802.72 1216.11 1802.79 1214.41 1804.62 1213.67C1805.88 1213.16 1824.22 1225.26 1836.63 1233.6C1854.08 1233.77 1925.52 1233.58 1930.76 1219.61C1932.85 1214.03 1933.65 1191.44 1927.88 1166.54C1951.84 1166.7 1971.3 1160.08 1985.66 1152.51C1988.22 1179.44 1989.54 1219.57 1979.13 1246.11C1964.45 1283.53 1871.05 1270.5 1846.67 1266.4L1824.15 1267.24C1785.19 1268.98 1785.23 1267.99 1784.93 1266.59C1784.63 1265.18 1800.42 1259.89 1799.51 1258.48C1798.6 1257.08 1775.71 1257.14 1776.82 1255.44C1777.93 1253.74 1799.06 1251.11 1798.67 1249.84C1798.28 1248.57 1776.19 1248.96 1776.3 1245.99C1776.41 1243.03 1800.63 1243.42 1799.75 1241.03C1798.88 1238.64 1774.06 1238.87 1774.59 1236.18L1774.58 1236.19Z" fill="#F5B68B"/>
<path d="M1837.36 914.06C1838.2 915.34 1840.07 917.36 1841.91 918.69C1850.38 924.4 1863.14 921.31 1868.37 914.06C1856.56 918.56 1846.66 918.19 1837.35 914.06H1837.36Z" fill="#202222"/>
<path d="M1767.33 914.06C1768.17 915.34 1770.04 917.36 1771.88 918.69C1780.35 924.4 1793.11 921.31 1798.34 914.06C1786.53 918.56 1776.63 918.19 1767.32 914.06H1767.33Z" fill="#202222"/>
<path d="M1835.23 951.41C1835.23 951.41 1808.54 946.49 1793.52 951.41C1793.52 951.41 1794.24 973.59 1814.38 973.68C1835.24 973.78 1835.24 951.41 1835.24 951.41H1835.23Z" fill="#C67E4D"/>
<path d="M1833.16 951.06C1832.67 952.57 1831.92 954.54 1831.19 955.16C1829.96 956.2 1800.44 955.29 1799.34 955.16C1798.8 955.1 1797.83 952.81 1796.98 950.48C1809.54 947.77 1827.21 950.12 1833.16 951.06Z" fill="#FFFEF3"/>
<path d="M1910.04 1089.17C1910.55 1095.82 1911.21 1102.45 1912.01 1109.06C1912.78 1115.67 1913.69 1122.27 1914.62 1128.86C1915.59 1135.44 1916.6 1142.02 1917.74 1148.58C1918.85 1155.14 1920.1 1161.69 1921.5 1168.21C1920.99 1161.56 1920.34 1154.93 1919.54 1148.32C1918.77 1141.71 1917.86 1135.11 1916.93 1128.53C1915.95 1121.95 1914.95 1115.37 1913.81 1108.81C1912.7 1102.25 1911.45 1095.7 1910.05 1089.18L1910.04 1089.17Z" fill="#FEFEFE"/>
<path d="M1718.61 1087.6C1718.1 1094.25 1717.44 1100.88 1716.64 1107.49C1715.87 1114.1 1714.96 1120.7 1714.03 1127.28C1713.05 1133.86 1712.05 1140.44 1710.91 1147C1709.8 1153.56 1708.55 1160.11 1707.15 1166.63C1707.66 1159.98 1708.31 1153.35 1709.11 1146.74C1709.88 1140.13 1710.79 1133.53 1711.72 1126.95C1712.7 1120.37 1713.7 1113.79 1714.84 1107.23C1715.95 1100.67 1717.2 1094.12 1718.6 1087.6H1718.61Z" fill="#FEFEFE"/>
<path d="M1871.61 1117.14C1871.61 1120.71 1874.5 1123.6 1878.07 1123.6C1881.64 1123.6 1884.53 1120.71 1884.53 1117.14C1884.53 1113.57 1881.64 1110.68 1878.07 1110.68C1874.5 1110.68 1871.61 1113.57 1871.61 1117.14Z" fill="#1AA58F"/>
<path d="M1745.1 1117.14C1745.1 1120.71 1747.99 1123.6 1751.56 1123.6C1755.13 1123.6 1758.02 1120.71 1758.02 1117.14C1758.02 1113.57 1755.13 1110.68 1751.56 1110.68C1747.99 1110.68 1745.1 1113.57 1745.1 1117.14Z" fill="#1AA58F"/>
<path d="M1871.3 1152.51H1758.54V1175.27C1758.54 1193.6 1773.42 1208.48 1791.75 1208.48H1838.1C1856.43 1208.48 1871.31 1193.6 1871.31 1175.27V1152.51H1871.3Z" fill="#B5CD96"/>
<path d="M1990.11 1409.77C1993.16 1416.38 1996.34 1422.95 1999.64 1429.45C1999.64 1429.45 1942.87 1471.53 1824.58 1474.84H1824.57C1822.89 1474.89 1821.19 1474.93 1819.49 1474.96C1817.75 1474.99 1816 1475.02 1814.24 1475.03H1814.22C1812.46 1475.02 1810.71 1474.99 1808.97 1474.96C1807.26 1474.93 1805.57 1474.89 1803.89 1474.84H1803.88C1685.59 1471.53 1628.82 1429.45 1628.82 1429.45C1631.36 1424.47 1633.79 1419.44 1636.18 1414.38C1812.77 1494.65 1947.86 1433.8 1990.12 1409.76L1990.11 1409.77Z" fill="#B5CD96"/>
<path d="M1983.1 1533.44L2013.63 1682.84L2059.17 1711.23C2059.17 1711.23 2055.51 1721.07 2054.58 1721.7C2053.65 1722.33 2032.5 1724.93 2032.5 1724.93L1978.38 1717.04L1962.83 1705.86L1901.25 1548.61C1928.42 1545.3 1958.39 1539.17 1983.09 1533.44H1983.1Z" fill="#1AA58F"/>
<path d="M1715.23 1558.78C1751.95 1560.19 1777.12 1558.94 1792.56 1557.47L1789.07 1707.45C1789.07 1707.45 1788.47 1707.31 1787.41 1707.05L1773.52 1717.04L1719.4 1724.93C1719.4 1724.93 1698.25 1722.32 1697.32 1721.7C1696.39 1721.08 1692.73 1711.23 1692.73 1711.23L1737.7 1683.19L1715.23 1558.77V1558.78Z" fill="#1AA58F"/>
<path d="M2059.18 1711.23L2072.24 1719.72C2078.29 1723.58 2075.56 1732.95 2068.38 1732.95H1969.18C1965.68 1732.95 1962.84 1730.11 1962.84 1726.61V1705.85C2028.91 1726.88 2051.73 1720.48 2059.17 1711.23H2059.18Z" fill="#222222"/>
<path d="M1692.73 1711.23L1679.67 1719.72C1673.62 1723.58 1676.35 1732.95 1683.53 1732.95H1782.73C1786.23 1732.95 1789.07 1730.11 1789.07 1726.61V1705.85C1723 1726.88 1700.18 1720.48 1692.74 1711.23H1692.73Z" fill="#222222"/>
<path d="M2572.52 553.1C2572.37 552.58 2572.21 552.01 2572.05 551.43C2567.05 533.59 2562.02 515.75 2557.08 497.89C2556.61 496.19 2556.03 495.61 2554.14 495.71C2537.46 496.66 2520.77 497.47 2504.08 498.33C2503.52 498.36 2502.96 498.43 2502.35 498.49C2502.39 498.8 2502.39 499.02 2502.45 499.23C2505.27 509.26 2508.11 519.28 2510.93 529.31C2512.68 535.53 2514.39 541.76 2516.12 547.98C2517.75 553.82 2519.48 559.64 2521 565.51C2521.95 569.16 2524.2 571.4 2527.66 572.58C2534.2 574.82 2542.83 572.25 2547.02 566.82C2551.12 561.51 2549.38 555.13 2543.02 553.02C2536 550.69 2529.74 552.43 2524.33 557.39C2523.96 557.73 2523.62 558.12 2523.26 558.48C2523.23 558.51 2523.15 558.49 2522.96 558.51C2518.83 543.79 2514.7 529.05 2510.49 514.04C2514.43 513.82 2518.29 513.6 2522.16 513.38C2527.41 513.08 2532.66 512.77 2537.91 512.5C2543.83 512.19 2549.76 511.97 2555.68 511.61C2557.04 511.53 2557.25 512.26 2557.52 513.24C2561.27 526.78 2565.05 540.32 2568.82 553.86C2569.43 556.04 2570.12 558.21 2570.64 560.41C2571.53 564.18 2573.99 566.47 2577.57 567.39C2584.68 569.22 2591.01 567.55 2596.03 562.15C2601.1 556.7 2599.09 549.56 2591.93 547.51C2585.19 545.58 2579.17 547.31 2574 552C2573.62 552.34 2573.28 552.72 2572.92 553.07C2572.89 553.1 2572.81 553.07 2572.52 553.08V553.1Z" fill="#FFFEF3"/>
<path d="M2971.82 626.22C2971.96 625.63 2972.11 624.98 2972.26 624.32C2976.93 604.02 2981.57 583.7 2986.31 563.42C2986.76 561.49 2986.5 560.6 2984.58 559.69C2967.61 551.64 2950.7 543.46 2933.77 535.32C2933.2 535.05 2932.61 534.82 2931.98 534.55C2931.86 534.87 2931.74 535.1 2931.68 535.34C2929.07 546.76 2926.47 558.18 2923.85 569.59C2922.23 576.67 2920.56 583.74 2918.92 590.81C2917.38 597.45 2915.96 604.12 2914.3 610.73C2913.27 614.84 2914.29 618.26 2917.06 621.3C2922.31 627.03 2932.21 629.14 2939.27 626.04C2946.17 623.01 2947.9 615.78 2942.75 610.27C2937.08 604.19 2929.96 602.54 2921.95 604.52C2921.4 604.66 2920.86 604.86 2920.31 605.02C2920.26 605.03 2920.2 604.98 2920 604.89C2923.85 588.14 2927.71 571.36 2931.63 554.29C2935.64 556.19 2939.57 558.06 2943.5 559.92C2948.84 562.46 2954.19 564.97 2959.52 567.53C2965.53 570.42 2971.5 573.39 2977.53 576.22C2978.92 576.87 2978.73 577.7 2978.47 578.81C2974.88 594.2 2971.32 609.59 2967.75 624.98C2967.17 627.46 2966.69 629.97 2966.02 632.43C2964.87 636.63 2966.06 640.22 2969.1 643.05C2975.13 648.69 2982.28 650.44 2990.14 647.82C2998.08 645.17 2999.94 637.04 2993.98 631.16C2988.36 625.63 2981.5 624.1 2973.86 625.94C2973.31 626.07 2972.77 626.26 2972.22 626.42C2972.18 626.43 2972.11 626.37 2971.82 626.22Z" fill="#1AA58F"/>
<path d="M2760.59 498.75C2761 474.12 2761.41 449.59 2761.81 425.06C2757.45 432.53 2751.91 438.97 2746.25 445.29C2742.77 449.18 2738.95 452.77 2735.54 456.71C2731.96 460.85 2729.06 465.45 2728.59 471.13C2728.19 475.89 2730.07 479.74 2733.53 482.96C2731.16 476.78 2732.52 471.43 2737.06 466.86C2738.45 465.46 2740.05 464.21 2741.7 463.12C2746.31 460.06 2751.41 458.1 2756.9 456.55C2756.96 457.25 2757.04 457.77 2757.03 458.28C2756.78 473.87 2756.71 489.47 2756.17 505.06C2755.93 512.13 2759.93 516.27 2764.69 518.24C2771.27 520.96 2777.87 520.91 2784.2 517.54C2788.19 515.42 2791.08 512.33 2790.96 507.34C2790.88 503.99 2789.32 501.26 2786.77 499.47C2778.56 493.74 2770.01 493.35 2761.34 498.59C2761.19 498.68 2760.97 498.67 2760.58 498.74L2760.59 498.75Z" fill="#365447"/>
<path d="M2753.42 630.96C2753.42 630.96 2754.92 645.75 2766.59 646.77C2754.92 647.79 2753.42 662.58 2753.42 662.58C2753.42 662.58 2751.92 647.79 2740.25 646.77C2751.92 645.75 2753.42 630.96 2753.42 630.96Z" fill="#B5D37A"/>
<path d="M2622.82 340.93C2622.82 340.93 2625.57 368.09 2647.01 369.97C2625.58 371.85 2622.82 399.01 2622.82 399.01C2622.82 399.01 2620.07 371.85 2598.63 369.97C2620.07 368.09 2622.82 340.93 2622.82 340.93Z" fill="#B5CD96"/>
<path d="M2899.48 360.99C2899.48 360.99 2902.23 388.15 2923.67 390.03C2902.23 391.91 2899.48 419.07 2899.48 419.07C2899.48 419.07 2896.72 391.91 2875.29 390.03C2896.72 388.15 2899.48 360.99 2899.48 360.99Z" fill="#B5CD96"/>
<path d="M2280.07 535.54C2280.02 534.98 2279.96 534.37 2279.9 533.75C2278.12 514.62 2276.31 495.48 2274.6 476.34C2274.44 474.52 2273.95 473.81 2272.01 473.57C2254.82 471.43 2237.64 469.15 2220.46 466.92C2219.88 466.85 2219.3 466.82 2218.67 466.76C2218.65 467.08 2218.61 467.31 2218.63 467.54C2219.64 478.29 2220.67 489.05 2221.67 499.8C2222.29 506.47 2222.88 513.14 2223.49 519.82C2224.06 526.08 2224.74 532.34 2225.2 538.61C2225.49 542.51 2227.37 545.21 2230.68 547.07C2236.93 550.57 2246.22 549.56 2251.51 544.8C2256.68 540.15 2256.1 533.32 2250 529.98C2243.27 526.3 2236.56 526.91 2230.12 530.96C2229.67 531.24 2229.26 531.57 2228.83 531.87C2228.79 531.89 2228.72 531.87 2228.52 531.84C2227.05 516.06 2225.58 500.25 2224.08 484.16C2228.14 484.67 2232.12 485.16 2236.1 485.66C2241.51 486.34 2246.93 487 2252.33 487.7C2258.43 488.49 2264.51 489.37 2270.62 490.1C2272.03 490.27 2272.1 491.05 2272.19 492.1C2273.5 506.61 2274.82 521.13 2276.15 535.64C2276.36 537.98 2276.66 540.32 2276.78 542.66C2276.99 546.67 2279.07 549.47 2282.55 551.07C2289.47 554.26 2296.23 553.73 2302.36 549.16C2308.54 544.55 2307.83 536.88 2300.9 533.46C2294.38 530.24 2287.93 530.88 2281.77 534.7C2281.32 534.98 2280.91 535.3 2280.47 535.59C2280.43 535.61 2280.36 535.58 2280.06 535.53L2280.07 535.54Z" fill="#B5CD96"/>
<path d="M2393.02 704.91C2396.68 676.41 2400.33 648.02 2403.97 619.64C2397.95 627.74 2390.7 634.48 2383.32 641.08C2378.78 645.14 2373.89 648.81 2369.43 652.94C2364.74 657.28 2360.79 662.24 2359.5 668.76C2358.42 674.23 2360.1 678.93 2363.69 683.11C2361.75 675.63 2364.01 669.61 2369.87 664.9C2371.67 663.46 2373.68 662.22 2375.73 661.16C2381.47 658.21 2387.64 656.6 2394.2 655.51C2394.17 656.33 2394.2 656.94 2394.13 657.53C2391.82 675.58 2389.72 693.65 2387.08 711.65C2385.88 719.82 2389.99 725.14 2395.26 728.03C2402.54 732.03 2410.2 732.83 2417.97 729.75C2422.87 727.81 2426.62 724.6 2427.13 718.8C2427.48 714.91 2426.02 711.54 2423.29 709.14C2414.52 701.43 2404.65 699.88 2393.93 704.83C2393.74 704.92 2393.49 704.87 2393.03 704.9L2393.02 704.91Z" fill="#1AA58F"/>
<path d="M2112.02 605.66C2112.02 605.66 2113.34 618.71 2123.64 619.61C2113.34 620.51 2112.02 633.56 2112.02 633.56C2112.02 633.56 2110.7 620.51 2100.4 619.61C2110.7 618.71 2112.02 605.66 2112.02 605.66Z" fill="#B5D37A"/>
<path d="M2156.36 364.41C2156.36 364.41 2158.79 388.37 2177.7 390.03C2158.79 391.69 2156.36 415.65 2156.36 415.65C2156.36 415.65 2153.93 391.68 2135.02 390.03C2153.93 388.37 2156.36 364.41 2156.36 364.41Z" fill="#1AA58F"/>
<path d="M2407.87 335.37C2407.87 335.37 2410.3 359.33 2429.21 360.99C2410.3 362.65 2407.87 386.61 2407.87 386.61C2407.87 386.61 2405.44 362.65 2386.53 360.99C2405.44 359.33 2407.87 335.37 2407.87 335.37Z" fill="#365447"/>
<path d="M1952.68 658.06C1952.63 657.53 1952.58 656.94 1952.52 656.35C1950.82 638.04 1949.09 619.74 1947.45 601.43C1947.29 599.68 1946.83 599.01 1944.97 598.78C1928.52 596.73 1912.09 594.55 1895.65 592.42C1895.1 592.35 1894.54 592.32 1893.93 592.27C1893.91 592.58 1893.88 592.8 1893.9 593.01C1894.87 603.3 1895.85 613.59 1896.81 623.88C1897.41 630.26 1897.96 636.65 1898.55 643.03C1899.1 649.02 1899.75 655 1900.19 661C1900.46 664.73 1902.26 667.32 1905.43 669.09C1911.41 672.44 1920.3 671.47 1925.35 666.92C1930.29 662.47 1929.74 655.93 1923.91 652.74C1917.48 649.22 1911.06 649.8 1904.89 653.67C1904.46 653.94 1904.07 654.26 1903.65 654.54C1903.62 654.56 1903.54 654.54 1903.35 654.51C1901.94 639.41 1900.54 624.28 1899.11 608.89C1902.99 609.38 1906.8 609.85 1910.61 610.33C1915.79 610.98 1920.97 611.61 1926.14 612.28C1931.97 613.04 1937.8 613.88 1943.64 614.58C1944.98 614.74 1945.05 615.49 1945.14 616.49C1946.39 630.38 1947.66 644.26 1948.93 658.14C1949.13 660.38 1949.42 662.62 1949.54 664.86C1949.74 668.7 1951.73 671.37 1955.06 672.91C1961.68 675.97 1968.15 675.46 1974.01 671.09C1979.93 666.68 1979.24 659.35 1972.62 656.07C1966.38 652.99 1960.21 653.6 1954.32 657.26C1953.89 657.53 1953.49 657.83 1953.08 658.12C1953.05 658.14 1952.97 658.11 1952.69 658.06H1952.68Z" fill="#365447"/>
<path d="M1667.09 704.05C1666.91 703.72 1666.71 703.35 1666.51 702.98C1660.3 691.54 1654.07 680.1 1647.9 668.64C1647.31 667.55 1646.82 667.24 1645.55 667.61C1634.27 670.86 1622.97 674.03 1611.67 677.22C1611.29 677.33 1610.92 677.46 1610.51 677.6C1610.59 677.8 1610.62 677.96 1610.69 678.09C1614.19 684.52 1617.7 690.94 1621.19 697.37C1623.36 701.36 1625.5 705.36 1627.66 709.35C1629.69 713.1 1631.78 716.81 1633.74 720.59C1634.96 722.94 1636.85 724.12 1639.41 724.4C1644.24 724.91 1649.75 721.81 1651.77 717.43C1653.75 713.16 1651.56 709.05 1646.88 708.6C1641.71 708.1 1637.69 710.27 1634.76 714.51C1634.56 714.8 1634.39 715.12 1634.2 715.42C1634.18 715.45 1634.13 715.45 1634 715.49C1628.88 706.05 1623.74 696.6 1618.52 686.98C1621.18 686.21 1623.8 685.46 1626.41 684.71C1629.96 683.69 1633.51 682.65 1637.06 681.65C1641.07 680.52 1645.09 679.44 1649.09 678.27C1650.01 678 1650.26 678.47 1650.6 679.1C1655.29 687.79 1659.98 696.48 1664.68 705.16C1665.44 706.56 1666.25 707.94 1666.95 709.37C1668.15 711.81 1670.19 713 1672.79 713.07C1677.95 713.21 1682.02 711.08 1684.62 706.6C1687.24 702.08 1684.75 697.5 1679.53 697.21C1674.61 696.94 1670.76 699.06 1667.95 703.09C1667.75 703.38 1667.57 703.69 1667.38 703.99C1667.36 704.01 1667.31 704.01 1667.11 704.06L1667.09 704.05Z" fill="#1AA58F"/>
<path d="M1835.49 459.89C1828.24 438.33 1821.03 416.86 1813.81 395.39C1812.32 403.24 1809.49 410.55 1806.52 417.8C1804.69 422.26 1802.48 426.56 1800.73 431.05C1798.89 435.76 1797.79 440.66 1799.13 445.75C1800.25 450.02 1803.07 452.78 1807.08 454.52C1803.11 449.87 1802.64 444.8 1805.18 439.42C1805.96 437.77 1806.96 436.19 1808.06 434.73C1811.12 430.64 1814.96 427.37 1819.25 424.32C1819.51 424.91 1819.75 425.34 1819.9 425.79C1824.49 439.44 1829.25 453.03 1833.59 466.76C1835.56 472.99 1840.32 475.36 1845.08 475.6C1851.64 475.93 1857.37 473.85 1861.84 468.97C1864.66 465.89 1866.21 462.31 1864.58 458.01C1863.48 455.12 1861.28 453.22 1858.51 452.46C1849.6 450 1842.04 452.31 1836.11 459.55C1836.01 459.68 1835.81 459.73 1835.5 459.91L1835.49 459.89Z" fill="#B5CD96"/>
<path d="M1785.11 543.02C1785.11 543.02 1786.07 552.45 1793.51 553.1C1786.07 553.75 1785.11 563.18 1785.11 563.18C1785.11 563.18 1784.15 553.75 1776.71 553.1C1784.15 552.45 1785.11 543.02 1785.11 543.02Z" fill="#B5D37A"/>
<path d="M2019.42 472.9C2019.42 472.9 2021.18 490.22 2034.84 491.42C2021.17 492.62 2019.42 509.94 2019.42 509.94C2019.42 509.94 2017.66 492.62 2004 491.42C2017.67 490.22 2019.42 472.9 2019.42 472.9Z" fill="#1AA58F"/>
<path d="M1655.74 528.45C1655.74 528.45 1657.5 545.77 1671.16 546.97C1657.49 548.17 1655.74 565.49 1655.74 565.49C1655.74 565.49 1653.98 548.17 1640.32 546.97C1653.99 545.77 1655.74 528.45 1655.74 528.45Z" fill="#365447"/>
<path d="M3365.43 743.08C3365.61 742.32 3365.8 741.47 3366 740.62C3372.06 714.25 3378.09 687.87 3384.25 661.53C3384.84 659.02 3384.5 657.87 3382.01 656.69C3359.97 646.24 3338.01 635.62 3316.02 625.05C3315.28 624.7 3314.52 624.4 3313.69 624.05C3313.53 624.47 3313.37 624.76 3313.3 625.07C3309.91 639.9 3306.54 654.72 3303.13 669.55C3301.02 678.74 3298.85 687.92 3296.73 697.11C3294.74 705.74 3292.88 714.4 3290.73 722.98C3289.39 728.32 3290.71 732.76 3294.32 736.7C3301.14 744.14 3314 746.88 3323.17 742.85C3332.13 738.91 3334.37 729.52 3327.69 722.37C3320.32 714.48 3311.08 712.33 3300.68 714.9C3299.96 715.08 3299.26 715.34 3298.55 715.55C3298.49 715.57 3298.4 715.49 3298.14 715.38C3303.14 693.63 3308.15 671.84 3313.25 649.67C3318.45 652.14 3323.56 654.56 3328.66 656.99C3335.6 660.28 3342.54 663.55 3349.47 666.88C3357.27 670.63 3365.02 674.49 3372.86 678.16C3374.67 679.01 3374.41 680.08 3374.08 681.53C3369.42 701.51 3364.79 721.5 3360.16 741.49C3359.41 744.71 3358.78 747.97 3357.91 751.16C3356.42 756.61 3357.96 761.27 3361.91 764.95C3369.75 772.27 3379.03 774.55 3389.23 771.14C3399.53 767.7 3401.96 757.14 3394.21 749.51C3386.92 742.32 3378 740.34 3368.09 742.73C3367.37 742.9 3366.67 743.15 3365.96 743.35C3365.9 743.37 3365.82 743.28 3365.44 743.09L3365.43 743.08Z" fill="#365447"/>
<path d="M3173.78 546.46C3174.31 514.48 3174.84 482.62 3175.37 450.76C3169.71 460.47 3162.52 468.82 3155.16 477.03C3150.64 482.08 3145.68 486.74 3141.25 491.87C3136.6 497.25 3132.84 503.22 3132.22 510.6C3131.7 516.78 3134.14 521.78 3138.63 525.96C3135.56 517.93 3137.32 510.99 3143.22 505.05C3145.03 503.23 3147.1 501.61 3149.24 500.19C3155.22 496.21 3161.85 493.67 3168.97 491.65C3169.04 492.56 3169.15 493.23 3169.14 493.9C3168.81 514.15 3168.72 534.41 3168.03 554.65C3167.71 563.84 3172.91 569.21 3179.1 571.77C3187.64 575.3 3196.22 575.23 3204.44 570.86C3209.63 568.1 3213.37 564.09 3213.22 557.61C3213.12 553.26 3211.1 549.71 3207.78 547.39C3197.12 539.94 3186.02 539.44 3174.76 546.25C3174.56 546.37 3174.28 546.35 3173.78 546.44V546.46Z" fill="#1AA58F"/>
<path d="M3328.44 467.94C3328.44 467.94 3329.79 481.2 3340.25 482.12C3329.78 483.04 3328.44 496.3 3328.44 496.3C3328.44 496.3 3327.1 483.04 3316.63 482.12C3327.1 481.2 3328.44 467.94 3328.44 467.94Z" fill="#B5D37A"/>
<path d="M3152.17 619.05C3152.17 619.05 3154.64 643.41 3173.86 645.1C3154.64 646.79 3152.17 671.15 3152.17 671.15C3152.17 671.15 3149.7 646.79 3130.47 645.1C3149.69 643.41 3152.17 619.05 3152.17 619.05Z" fill="#FFFEF3"/>
<path d="M3056.93 372.97C3056.93 372.97 3059.4 397.33 3078.62 399.02C3059.4 400.7 3056.93 425.07 3056.93 425.07C3056.93 425.07 3054.46 400.71 3035.23 399.02C3054.45 397.33 3056.93 372.97 3056.93 372.97Z" fill="#365447"/>
</g>
<defs>
<clipPath id="clip0_506_856">
<rect width="3600" height="2000" fill="white" transform="matrix(-1 0 0 1 3600 0)"/>
</clipPath>
</defs>
</svg>
