<svg width="2113" height="1959" viewBox="0 0 2113 1959" fill="none" xmlns="http://www.w3.org/2000/svg">
<path d="M872.609 660.598C459.505 1042.03 390.156 776.015 185.982 829.5C-28.5708 837.667 -37.282 1128.99 57.9805 1238.7C184.492 1384.4 180.781 1349.04 323.749 1429.88C466.078 1510.36 395.595 1723.3 630.693 1885.26C872.384 2051.75 1073.19 1901.97 1203.54 1773.52C1461.48 1519.36 2016.02 1671.01 2108.12 1238.7C2178.14 910.028 1388.99 183.813 872.609 660.598Z" fill="#EDEEDC"/>
<path d="M481.879 619.34C481.879 619.34 492.989 622.84 497.339 623.91L506.039 633.15C539.109 675.69 595.919 714.7 644.599 743.15C653.239 729.89 662.409 715.82 670.989 702.68C616.219 671.91 550.269 625.5 522.349 605.43L521.019 603.97L509.109 585.63C499.039 570.96 489.209 554.72 487.529 554.73C485.179 554.75 484.349 556.61 489.139 576.96C489.449 578.28 488.169 579.43 486.899 578.97C477.009 575.37 445.829 564.26 444.339 566.57C442.569 569.31 470.189 579.92 470.099 582.95C470.019 585.98 443.339 574.95 441.919 578.19C440.499 581.43 465.159 590.67 465.039 592.24C464.919 593.81 440.329 587.49 438.349 588.89C436.369 590.3 461.779 600.24 462.179 602.19C462.569 604.14 442.739 603.11 442.449 604.8C442.159 606.49 437.919 604.24 481.879 619.35V619.34Z" fill="#F5B68B"/>
<path d="M771.429 1314.2H728.989V1245.67H771.429V1314.2Z" fill="#F5B68B"/>
<path d="M974.649 1291.41L927.629 1289.81L912.759 1235.8L960.659 1230.85L974.649 1291.41Z" fill="#F5B68B"/>
<path d="M672.33 984.51C672.33 984.51 705.67 1220.52 714.93 1253.47C714.93 1253.47 756.6 1267.75 784.39 1253.47C784.39 1253.47 784 1047.52 788.63 1038.26C788.63 1038.26 838.1 1088.83 898.3 1242.73C898.3 1242.73 958.5 1249.97 979.8 1242.73L909.42 974.33C909.42 974.33 828.85 940.99 826.07 942.84C823.29 944.69 672.34 984.52 672.34 984.52L672.33 984.51Z" fill="#1AA58F"/>
<path d="M675.92 1334.38L776.4 1335.06C778.6 1335.07 780.36 1333.35 780.34 1331.2L780.31 1328.31C780.29 1326.16 778.5 1324.41 776.3 1324.4L675.82 1323.72C673.62 1323.71 671.86 1325.43 671.88 1327.58L671.91 1330.47C671.93 1332.62 673.72 1334.37 675.92 1334.38Z" fill="#202222"/>
<path d="M775.04 1291.98L778.89 1321.67C779.37 1325.33 777.3 1328.64 774.55 1328.62L678.99 1327.98C676.51 1327.96 674.04 1326.43 672.71 1323.58C671.35 1320.65 671.04 1316.25 675.27 1310.37C683.72 1298.61 711.81 1295.91 725.46 1285.91L769.97 1286.21C772.46 1286.23 774.6 1288.67 775.03 1291.98H775.04Z" fill="#202222"/>
<path d="M732.38 1303.18C733.07 1302.77 733.31 1301.63 732.9 1300.77C730.99 1296.69 725.04 1286.76 713.12 1288.71C712.43 1288.82 711.97 1289.71 712.1 1290.64V1290.67C712.23 1291.56 712.85 1292.15 713.52 1292.05C724.2 1290.34 729.26 1299.09 730.81 1302.51C731.14 1303.24 731.81 1303.53 732.38 1303.19V1303.18Z" fill="#222222"/>
<path d="M722.489 1306.93C723.179 1306.52 723.419 1305.38 723.009 1304.52C721.099 1300.44 715.149 1290.51 703.229 1292.46C702.539 1292.57 702.079 1293.46 702.209 1294.39V1294.42C702.339 1295.31 702.959 1295.9 703.629 1295.8C714.309 1294.09 719.369 1302.84 720.919 1306.26C721.249 1306.99 721.919 1307.28 722.489 1306.94V1306.93Z" fill="#222222"/>
<path d="M713.29 1310.43C713.98 1310.02 714.22 1308.88 713.81 1308.02C711.9 1303.94 705.95 1294.01 694.03 1295.96C693.34 1296.07 692.88 1296.96 693.01 1297.89V1297.92C693.14 1298.81 693.76 1299.4 694.43 1299.3C705.11 1297.59 710.17 1306.34 711.72 1309.76C712.05 1310.49 712.72 1310.78 713.29 1310.44V1310.43Z" fill="#222222"/>
<path d="M1024.11 1334.38L923.629 1335.06C921.429 1335.07 919.669 1333.35 919.689 1331.2L919.719 1328.31C919.739 1326.16 921.529 1324.41 923.729 1324.4L1024.21 1323.72C1026.41 1323.71 1028.17 1325.43 1028.15 1327.58L1028.12 1330.47C1028.1 1332.62 1026.3 1334.37 1024.11 1334.38Z" fill="#202222"/>
<path d="M924.989 1291.98L921.139 1321.67C920.659 1325.33 922.73 1328.64 925.48 1328.62L1021.04 1327.98C1023.52 1327.96 1025.99 1326.43 1027.32 1323.58C1028.68 1320.65 1028.99 1316.25 1024.76 1310.37C1016.31 1298.61 988.22 1295.91 974.57 1285.91L930.06 1286.21C927.57 1286.23 925.429 1288.67 924.999 1291.98H924.989Z" fill="#202222"/>
<path d="M967.649 1303.18C966.959 1302.77 966.719 1301.63 967.129 1300.77C969.039 1296.69 974.989 1286.76 986.909 1288.71C987.599 1288.82 988.059 1289.71 987.929 1290.64V1290.67C987.799 1291.56 987.179 1292.15 986.509 1292.05C975.829 1290.34 970.769 1299.09 969.219 1302.51C968.889 1303.24 968.219 1303.53 967.649 1303.19V1303.18Z" fill="#222222"/>
<path d="M977.54 1306.93C976.85 1306.52 976.61 1305.38 977.02 1304.52C978.93 1300.44 984.88 1290.51 996.8 1292.46C997.49 1292.57 997.95 1293.46 997.82 1294.39V1294.42C997.69 1295.31 997.07 1295.9 996.4 1295.8C985.72 1294.09 980.66 1302.84 979.11 1306.26C978.78 1306.99 978.11 1307.28 977.54 1306.94V1306.93Z" fill="#222222"/>
<path d="M986.739 1310.43C986.049 1310.02 985.809 1308.88 986.219 1308.02C988.129 1303.94 994.079 1294.01 1006 1295.96C1006.69 1296.07 1007.15 1296.96 1007.02 1297.89V1297.92C1006.9 1298.81 1006.27 1299.4 1005.6 1299.3C994.919 1297.59 989.859 1306.34 988.309 1309.76C987.979 1310.49 987.309 1310.78 986.739 1310.44V1310.43Z" fill="#222222"/>
<path d="M824.919 630.89L827.779 698.65L811.559 720.26C792.969 743.62 779.319 715.84 749.669 712.45L760.299 634.01L824.919 630.9V630.89Z" fill="#F5B68B"/>
<path d="M753.53 683.92L760.3 634.01L824.92 630.9L826.21 661.59C814.42 671.7 792.17 681.51 753.53 683.92Z" fill="#C67E4D"/>
<path d="M718.56 556.24C719.94 566.69 714.27 576.05 705.9 577.15C697.53 578.25 689.62 570.67 688.24 560.22C686.86 549.77 692.53 540.41 700.9 539.31C709.27 538.21 717.18 545.79 718.56 556.24Z" fill="#C67E4D"/>
<path d="M704.239 597.72C702.899 584.39 703.989 570.9 705.849 559.36C706.249 556.89 706.499 554.39 706.709 551.9C707.549 541.81 710.259 531.6 715.289 521.67C731.459 489.75 767.399 471.91 802.639 478.39C850.119 487.12 878.989 533.9 867.089 579.28C872.749 577.83 878.469 578.65 882.779 582.11C891.059 588.74 891.039 602.49 882.739 612.82C874.439 623.15 860.999 626.15 852.719 619.51C851.569 618.59 850.599 617.52 849.769 616.35C835.699 653.93 796.189 675.45 758.349 664.88C729.459 656.81 706.999 631.1 704.239 597.71V597.72Z" fill="#F5B68B"/>
<path d="M786.54 555.17C790.29 554.73 793.81 554.51 797.24 554.66C800.67 554.8 803.96 555.37 807.06 556.41C810.14 557.49 813.18 558.84 815.92 560.89L817 561.59C817.36 561.83 817.66 562.14 818.01 562.4L820.09 564.04C821.48 565.17 822.71 566.48 824.26 567.64C823.67 565.87 822.96 564.09 822.04 562.42C820.95 560.88 820.03 559.12 818.57 557.81C815.98 554.88 812.42 552.78 808.66 551.5C804.87 550.23 800.79 549.96 796.96 550.62C793.15 551.32 789.47 552.73 786.53 555.16L786.54 555.17Z" fill="#404040"/>
<path d="M758.519 548.86C756.919 545.4 754.199 542.55 751.059 540.29C747.879 538.06 744.079 536.55 740.109 536.07C736.159 535.61 732.049 535.99 728.449 537.52C726.579 538.08 724.979 539.27 723.339 540.19C721.789 541.31 720.379 542.6 719.089 543.95C720.999 543.57 722.669 542.91 724.409 542.48L726.989 541.89C727.419 541.81 727.819 541.66 728.249 541.59L729.529 541.42C732.879 540.75 736.209 540.83 739.459 541.18C742.709 541.57 745.929 542.46 749.079 543.81C752.239 545.15 755.329 546.85 758.529 548.86H758.519Z" fill="#404040"/>
<path d="M763.879 564.63C764.019 568.49 763.519 572.32 762.579 576.08C762.099 577.97 761.479 579.82 760.629 581.66C759.749 583.47 758.689 585.3 756.899 586.82L756.149 587.34L755.489 587.78C755.209 587.99 754.829 588.13 754.599 588.39C754.049 588.82 753.629 589.35 753.349 589.93C752.709 591.09 752.869 592.62 753.399 594.1C754.599 597.13 757.599 599.53 760.939 601.36C757.169 600.96 753.089 599.21 750.829 595.37C749.719 593.51 749.219 590.94 750.139 588.6C750.369 588.02 750.639 587.46 751.019 586.99C751.349 586.46 751.789 586.06 752.229 585.65C752.659 585.21 753.179 584.97 753.649 584.63C753.939 584.45 753.999 584.38 754.159 584.27L754.579 583.98C755.699 583.07 756.669 581.6 757.539 580.09C758.449 578.58 759.109 576.86 759.869 575.19C761.269 571.77 762.519 568.23 763.879 564.63Z" fill="#C67E4D"/>
<path d="M724.54 441.61C741.54 434.49 771.82 430.06 801.52 433.57C795.28 427.89 791.59 423.54 793.51 422.49C809.12 413.98 851.439 447.23 864.859 458.34C868.149 455.03 879.34 445 888.64 451.61C899.67 459.45 875.83 466.01 875.83 466.01C875.83 466.01 891.65 470.03 894.21 479.08C896.11 485.77 886.44 483.26 881.26 481.49C882.86 482.26 885.02 483.8 887.23 486.23C887.23 486.23 906.98 507.49 903.45 517.74C902.6 520.22 900.379 520.14 897.499 518.6C898.649 529.89 900.23 551.19 895.96 553.37C893.52 554.62 891.53 553.1 890.05 550.92C884.82 567.2 878.44 579.67 878.44 579.67C859.59 573.86 840.59 592.4 840.59 592.4C848.57 567.16 836.29 515.66 836.29 515.66C836.29 515.66 758.42 536.24 773.57 516.27C773.57 516.27 683.22 533.4 707.17 494.37C707.17 494.37 674.639 487.51 717.859 460.38C717.859 460.38 694.13 454.36 724.54 441.62V441.61Z" fill="#404040"/>
<path d="M779.939 572.12C780.429 573.27 781.639 575.18 782.929 576.51C788.909 582.35 799.639 581.72 804.909 576.65C794.749 578.55 786.829 576.8 779.939 572.12Z" fill="#202222"/>
<path d="M723.569 561.89C724.059 563.04 725.269 564.95 726.559 566.28C732.539 572.12 743.269 571.49 748.539 566.42C738.379 568.32 730.459 566.57 723.569 561.89Z" fill="#202222"/>
<path d="M777.56 615.12C777.56 615.12 751.88 604.48 735.78 606.19C735.78 606.19 731.75 628.55 751.9 632.96C772.77 637.52 777.55 615.12 777.55 615.12H777.56Z" fill="#C67E4D"/>
<path d="M775.57 614.33C774.76 615.73 773.58 617.55 772.72 618.01C771.27 618.78 741.89 611.56 740.82 611.19C740.3 611.01 739.81 608.51 739.46 606C752.62 605.98 769.81 612.11 775.58 614.32L775.57 614.33Z" fill="#FFFEF3"/>
<path d="M959.42 785.7C959.42 785.7 1006.61 906.62 910.05 904.7L905.09 872.47C905.09 872.47 913.61 860.86 915.28 857.94C916.95 855.01 928.44 847.44 928.44 847.44L917.45 809.47L959.43 785.7H959.42Z" fill="#F19A5E"/>
<path d="M827.92 696.8H882.87L974.25 765.95C974.25 765.95 964.99 819.66 903.87 824.6L915.52 972.62C915.52 972.62 775.37 1009.66 661.77 984.97C661.77 984.97 666.17 789.41 676.67 761.01L627.89 756.69C627.89 756.69 629.12 699.27 637.77 667.78L751.37 688.16C751.37 688.16 783.47 735.08 827.93 696.8H827.92Z" fill="#1AA58F"/>
<g style="mix-blend-mode:multiply" opacity="0.3">
<path d="M857.059 696.8H882.859L974.239 765.95C974.239 765.95 964.979 819.66 903.859 824.6L915.509 972.62C915.509 972.62 775.359 1009.66 661.759 984.97C661.759 984.97 662.149 967.49 662.989 942.23C865.589 936.08 863.869 758.62 857.079 696.8H857.059Z" fill="#1AA58F"/>
</g>
<path d="M898.92 802.19L893.98 785.7C893.98 785.7 810.41 771.5 782.89 816.26V826.76C782.89 826.76 819.58 822.75 820.51 822.75C821.44 822.75 870.83 811.64 872.99 811.02C875.15 810.4 898.92 802.19 898.92 802.19Z" fill="#EDE6F4"/>
<path d="M765.25 819.35C765.25 819.35 715.86 773.66 674.18 799.9V819.35C674.18 819.35 705.67 823.98 706.59 823.98C707.51 823.98 765.24 819.35 765.24 819.35H765.25Z" fill="#EDE6F4"/>
<path d="M754.75 821.82C754.75 821.82 719.25 783.23 665.53 814.26L718.94 942.76C718.94 942.76 752.47 922 797.75 937.36L786.54 878.32L754.74 821.83L754.75 821.82Z" fill="#B0C990"/>
<path d="M902.309 800.52C902.309 800.52 838.409 777.63 785.929 817.47C785.929 817.47 808.769 930.17 809.699 932.33C810.629 934.49 826.499 933.43 826.499 933.43C826.499 933.43 884.399 915.66 919.899 935.42L902.299 800.52H902.309Z" fill="#B0C990"/>
<path d="M785.93 817.47L829.77 942.75C829.77 942.75 811.87 952.39 801.06 946.22L754.75 821.81C754.75 821.81 764.94 808.23 785.93 817.46V817.47Z" fill="#202222"/>
<path d="M907.91 841.93C907.91 841.93 910.08 840 912.53 846.29C914.98 852.58 932.11 860.45 929.14 881.07C926.17 901.7 903.79 908.34 892.61 909.74C881.42 911.14 868.66 909.04 869.36 905.72C870.06 902.4 880.55 904.5 882.47 900.83C884.39 897.16 865.17 901.01 864.29 892.96C864.29 892.96 864.12 891.56 865.86 891.21C867.61 890.86 879.76 890.95 881.15 890.07C882.55 889.2 853.44 880.37 853.97 874.95C854.49 869.53 880.54 878.44 883.16 875.91C885.78 873.38 858.34 862.37 859.56 855.37C859.56 855.37 859.39 853.62 862.36 853.62C865.33 853.62 895.63 860.82 906.87 858.01L907.9 841.92L907.91 841.93Z" fill="#F5B68B"/>
<path d="M1403.47 527.54C1411.24 547.06 1436.15 605.78 1449.02 622.38C1494.34 680.85 1492.58 772.95 1493.21 792.25C1494.07 818.67 1485.7 845.49 1469.09 866.05C1431.43 912.66 1362.79 918.88 1313.83 953.42C1298.02 964.58 1283.93 978.9 1265.74 985.53C1248.84 991.69 1230.3 990.49 1212.32 990.09C1176.41 989.29 1140.43 991.99 1105.05 998.16C1086.81 1001.34 1067.61 1005.37 1050.19 999.11C1022.22 989.05 1009.24 955.21 1012.11 925.62C1014.98 896.03 1029.69 869.15 1041.65 841.94C1046.81 830.2 1051.58 817.17 1048.11 804.83C1045.6 795.9 1039.14 788.73 1034.04 780.99C1010.41 745.13 1018.87 691.83 1052.44 665.06C1069.46 651.49 1090.78 644.83 1110.76 636.17C1130.74 627.51 1150.86 615.47 1160.39 595.9C1165.51 585.39 1167.11 573.58 1169.86 562.22C1185.48 497.58 1233.49 452.38 1301.11 452.62C1367.1 452.86 1395.64 507.87 1403.47 527.53V527.54Z" fill="#1A1A1A"/>
<path d="M1511.47 547.44C1512.51 547.93 1513.7 547.08 1513.54 545.93C1512.3 537.07 1508.58 509.16 1510.76 508.33C1513.36 507.35 1517.29 532.2 1519.82 532.67C1522.35 533.14 1517.91 508.99 1520.85 508.39C1523.79 507.79 1527.11 529.94 1528.44 530.12C1529.77 530.3 1528.86 508.73 1530.38 507.34C1531.9 505.94 1535.67 530.25 1537.22 530.92C1538.77 531.59 1541.43 513.53 1542.88 513.59C1544.34 513.65 1545.32 513.45 1550.1 552.69L1553.03 575.35L1545.48 581.45L1528.11 580.83C1528.11 580.83 1492.81 544.18 1493.27 542.13C1493.7 540.18 1495.39 539.82 1511.47 547.43V547.44Z" fill="#F5B68B"/>
<path d="M1424.52 734.21L1421.43 669.37L1439.25 670.46C1475.04 679.63 1513.3 672.73 1520.33 668.66C1535.25 660.03 1517.86 568.37 1517.86 568.37L1551.02 571.08C1551.02 571.08 1595.2 688.46 1554.92 712.59C1514.65 736.71 1433.32 735.89 1433.32 735.89L1424.51 734.21H1424.52Z" fill="#F5B68B"/>
<path d="M1168.26 1065.54L1122.47 1289.6L1081.53 1315.13C1081.53 1315.13 1084.82 1323.98 1085.66 1324.54C1086.5 1325.1 1105.51 1327.44 1105.51 1327.44L1154.16 1320.35L1168.14 1310.3L1250.7 1099.48L1246.49 1088.51L1168.27 1065.54H1168.26Z" fill="#F5B68B"/>
<path d="M1411.61 1062.43L1319.11 1086.64L1324.35 1311.72C1324.35 1311.72 1324.89 1311.6 1325.84 1311.36L1338.33 1320.34L1386.98 1327.43C1386.98 1327.43 1405.99 1325.09 1406.83 1324.53C1407.67 1323.97 1410.96 1315.12 1410.96 1315.12L1370.53 1289.91L1411.61 1062.42V1062.43Z" fill="#F5B68B"/>
<path d="M1149.92 1155.29L1122.47 1289.6L1081.53 1315.13C1081.53 1315.13 1084.82 1323.98 1085.66 1324.54C1086.5 1325.1 1105.51 1327.44 1105.51 1327.44L1154.16 1320.35L1168.14 1310.3L1223.5 1168.94C1199.08 1165.97 1172.14 1160.46 1149.92 1155.3V1155.29Z" fill="#1AA58F"/>
<path d="M1390.73 1178.07C1357.72 1179.34 1335.1 1178.21 1321.22 1176.9L1324.36 1311.72C1324.36 1311.72 1324.9 1311.6 1325.85 1311.36L1338.34 1320.34L1386.99 1327.43C1386.99 1327.43 1406 1325.09 1406.84 1324.53C1407.68 1323.97 1410.97 1315.12 1410.97 1315.12L1370.54 1289.91L1390.74 1178.06L1390.73 1178.07Z" fill="#1AA58F"/>
<path d="M1081.53 1315.13L1069.79 1322.76C1064.35 1326.23 1066.8 1334.66 1073.26 1334.66H1162.44C1165.59 1334.66 1168.14 1332.11 1168.14 1328.96V1310.3C1108.75 1329.21 1088.23 1323.46 1081.54 1315.13H1081.53Z" fill="#222222"/>
<path d="M1410.96 1315.13L1422.7 1322.76C1428.14 1326.23 1425.69 1334.66 1419.23 1334.66H1330.05C1326.9 1334.66 1324.35 1332.11 1324.35 1328.96V1310.3C1383.74 1329.21 1404.26 1323.46 1410.95 1315.13H1410.96Z" fill="#222222"/>
<path d="M1272.1 630.21L1269.56 690.52L1284 709.76C1300.55 730.55 1312.7 705.83 1339.1 702.8L1329.63 632.98L1272.11 630.21H1272.1Z" fill="#F5B68B"/>
<path d="M1334.39 668.15L1329.62 632.99L1272.1 630.22L1270.23 674.63C1306.8 691.21 1334.39 668.16 1334.39 668.16V668.15Z" fill="#C67E4D"/>
<path d="M1366.34 609.34C1369.13 597.37 1369.72 584.97 1369.39 574.25C1369.32 571.95 1369.39 569.65 1369.49 567.36C1369.92 558.08 1368.65 548.47 1365.24 538.85C1354.29 507.9 1323.69 487.44 1290.87 489.19C1246.65 491.54 1214.87 530.7 1220.35 573.38C1215.37 571.39 1210.07 571.47 1205.74 574.1C1197.43 579.16 1195.83 591.67 1202.16 602.05C1208.5 612.43 1220.37 616.74 1228.68 611.68C1229.83 610.98 1230.84 610.12 1231.74 609.15C1240.11 645 1273.52 669.23 1309.19 664.07C1336.35 660.14 1359.87 639.45 1366.33 609.33L1366.34 609.34Z" fill="#F5B68B"/>
<path d="M1296.48 564.48C1293.12 563.64 1289.94 563.02 1286.79 562.75C1283.65 562.47 1280.59 562.6 1277.64 563.19C1274.71 563.81 1271.78 564.68 1269.04 566.22L1267.97 566.73C1267.62 566.91 1267.3 567.15 1266.95 567.35L1264.87 568.6C1263.47 569.47 1262.2 570.52 1260.64 571.39C1261.38 569.85 1262.25 568.32 1263.28 566.9C1264.45 565.63 1265.5 564.14 1266.98 563.12C1269.69 560.76 1273.17 559.26 1276.75 558.54C1280.35 557.83 1284.1 558.07 1287.51 559.12C1290.9 560.2 1294.08 561.92 1296.47 564.49L1296.48 564.48Z" fill="#1F1F1F"/>
<path d="M1322.74 562.04C1324.61 559.08 1327.42 556.8 1330.55 555.11C1333.71 553.45 1337.35 552.53 1341.02 552.56C1344.67 552.61 1348.37 553.44 1351.47 555.26C1353.11 555.99 1354.42 557.26 1355.81 558.3C1357.09 559.5 1358.22 560.85 1359.24 562.23C1357.55 561.66 1356.1 560.86 1354.57 560.27L1352.29 559.42C1351.91 559.29 1351.56 559.11 1351.18 559L1350.03 558.69C1347.05 557.69 1344.02 557.36 1341.02 557.3C1338.01 557.27 1334.98 557.71 1331.95 558.56C1328.91 559.41 1325.9 560.6 1322.75 562.04H1322.74Z" fill="#1F1F1F"/>
<path d="M1308.13 572.02C1307.52 575.68 1307.52 579.39 1307.96 583.09C1308.18 584.95 1308.55 586.79 1309.13 588.65C1309.75 590.49 1310.52 592.35 1312.05 594.03L1312.7 594.62L1313.28 595.12C1313.52 595.36 1313.86 595.54 1314.05 595.81C1314.52 596.29 1314.85 596.84 1315.05 597.43C1315.52 598.62 1315.17 600.05 1314.49 601.4C1312.98 604.14 1309.82 606.05 1306.41 607.38C1310.05 607.46 1314.16 606.3 1316.78 602.92C1318.06 601.28 1318.86 598.9 1318.27 596.56C1318.13 595.98 1317.93 595.42 1317.63 594.91C1317.38 594.37 1317.01 593.93 1316.64 593.48C1316.29 593.01 1315.82 592.71 1315.41 592.33C1315.15 592.12 1315.1 592.05 1314.97 591.93L1314.61 591.6C1313.66 590.6 1312.92 589.08 1312.27 587.53C1311.59 585.97 1311.17 584.26 1310.66 582.57C1309.75 579.14 1309 575.61 1308.15 572.02H1308.13Z" fill="#C67E4D"/>
<path d="M1349.89 489.09C1344.57 485.05 1341.8 483.34 1324.35 478.24C1306.9 473.13 1310.09 478.88 1290.94 481.01C1271.79 483.14 1271.79 484.84 1252.49 489.1C1233.19 493.36 1242.63 493.36 1229.23 501.44C1215.82 509.53 1226.04 525.27 1226.04 525.27C1226.04 525.27 1198.34 567.33 1220.36 573.39C1267.69 586.42 1292.37 517.75 1292.37 517.75C1294.21 528.04 1287.12 547.83 1287.12 547.83C1316.35 531.51 1318.76 513.64 1318.76 513.64C1320.18 526.09 1312.09 556.84 1312.09 556.84C1334.22 540.88 1342.24 517.82 1342.24 517.82C1352.45 521.01 1379.48 550.17 1379.48 550.17L1364.62 505.68L1364.27 504.63L1349.9 489.09H1349.89Z" fill="#1A1A1A"/>
<path d="M1295.58 581.08C1295.03 582.11 1293.75 583.77 1292.44 584.91C1286.4 589.83 1276.49 588.35 1272.03 583.2C1281.31 585.81 1288.8 584.85 1295.59 581.08H1295.58Z" fill="#202222"/>
<path d="M1348.76 576.3C1348.21 577.33 1346.93 578.99 1345.62 580.13C1339.58 585.05 1329.67 583.57 1325.21 578.43C1334.49 581.04 1341.98 580.08 1348.76 576.31V576.3Z" fill="#202222"/>
<path d="M1291.93 619.7C1291.93 619.7 1315.27 613.96 1328.82 617.35C1328.82 617.35 1329.4 636.47 1311.6 637.68C1293.16 638.94 1291.93 619.7 1291.93 619.7Z" fill="#C67E4D"/>
<path d="M1293.73 619.28C1294.25 620.55 1295.02 622.21 1295.7 622.69C1296.84 623.51 1322.9 621.07 1323.87 620.89C1324.34 620.81 1325.07 618.78 1325.7 616.74C1314.45 615.12 1298.95 618.14 1293.73 619.28Z" fill="#FFFEF3"/>
<path d="M1417.34 945.39L1468.27 1090.68C1468.27 1090.68 1412.24 1124.67 1382.91 1115.82C1353.58 1106.97 1359.79 1097.66 1336.51 1102.78C1313.23 1107.9 1237.42 1123.12 1216.39 1113.49C1184.18 1098.74 1194.04 1093.94 1166.57 1092.54C1139.1 1091.14 1124.38 1101.02 1102.5 1090.31L1191.47 934.4L1243.86 922.6L1417.35 945.39H1417.34Z" fill="#202222"/>
<path d="M1152.37 768.01C1152.37 768.01 1110.37 875.65 1196.32 873.94L1200.73 845.25C1200.73 845.25 1193.15 834.92 1191.66 832.31C1190.17 829.71 1179.95 822.97 1179.95 822.97L1189.74 789.17L1152.37 768.01Z" fill="#F19A5E"/>
<path d="M1269.43 688.88H1220.52L1139.18 750.43C1139.18 750.43 1147.42 798.24 1201.83 802.64L1191.46 934.4C1191.46 934.4 1316.22 967.38 1417.34 945.39C1417.34 945.39 1413.42 771.31 1404.08 746.03L1447.5 742.18C1447.5 742.18 1446.4 691.07 1438.71 663.04L1337.59 681.18C1337.59 681.18 1309.01 722.95 1269.44 688.87L1269.43 688.88Z" fill="#F2F7FF"/>
<path d="M1243.48 688.88H1220.51L1139.17 750.43C1139.17 750.43 1147.41 798.24 1201.82 802.64L1191.45 934.4C1191.45 934.4 1316.21 967.38 1417.33 945.39C1417.33 945.39 1416.98 929.83 1416.24 907.34C1235.9 901.87 1237.43 743.9 1243.47 688.87L1243.48 688.88Z" fill="#F2F8FF"/>
<path d="M1206.23 782.69L1210.63 768.02C1210.63 768.02 1285.02 755.38 1309.52 795.22V804.56C1309.52 804.56 1276.86 800.99 1276.03 800.99C1275.2 800.99 1231.24 791.1 1229.32 790.55C1227.4 790 1206.24 782.69 1206.24 782.69H1206.23Z" fill="#EDE6F4"/>
<path d="M1325.21 797.97C1325.21 797.97 1369.18 757.3 1406.27 780.66V797.97C1406.27 797.97 1378.24 802.09 1377.42 802.09C1376.6 802.09 1325.21 797.97 1325.21 797.97Z" fill="#EDE6F4"/>
<path d="M1334.55 800.17C1334.55 800.17 1366.15 765.82 1413.97 793.44L1366.43 907.83C1366.43 907.83 1336.59 889.35 1296.27 903.02L1306.25 850.46L1334.55 800.17Z" fill="#B0C990"/>
<path d="M1203.2 781.21C1203.2 781.21 1260.08 760.83 1306.8 796.3C1306.8 796.3 1286.47 896.62 1285.64 898.55C1284.82 900.47 1270.68 899.53 1270.68 899.53C1270.68 899.53 1219.14 883.72 1187.54 901.3L1203.2 781.21Z" fill="#B0C990"/>
<path d="M1306.8 796.3L1267.78 907.82C1267.78 907.82 1283.72 916.4 1293.34 910.91L1334.56 800.17C1334.56 800.17 1325.49 788.08 1306.81 796.3H1306.8Z" fill="#202222"/>
<path d="M1198.22 818.07C1198.22 818.07 1196.29 816.35 1194.11 821.95C1191.93 827.55 1176.68 834.55 1179.33 852.91C1181.98 871.27 1201.89 877.18 1211.85 878.43C1221.81 879.67 1233.17 877.81 1232.54 874.85C1231.92 871.89 1222.58 873.76 1220.87 870.49C1219.16 867.22 1236.27 870.65 1237.05 863.49C1237.05 863.49 1237.21 862.24 1235.65 861.93C1234.09 861.62 1223.28 861.7 1222.04 860.92C1220.8 860.14 1246.7 852.28 1246.23 847.46C1245.76 842.64 1222.58 850.57 1220.25 848.31C1217.92 846.06 1242.34 836.26 1241.25 830.03C1241.25 830.03 1241.41 828.47 1238.76 828.47C1236.11 828.47 1209.14 834.88 1199.14 832.38L1198.22 818.05V818.07Z" fill="#F5B68B"/>
<path d="M2021.87 819.9C2022.06 820.93 2023.32 821.35 2024.08 820.62C2029.95 815 2048.52 797.41 2050.29 798.58C2052.4 799.97 2036.18 816.08 2037.18 818.2C2038.18 820.32 2053.6 804.2 2055.61 806.05C2057.62 807.9 2043.07 822.12 2043.65 823.2C2044.23 824.28 2059.63 812.14 2061.46 812.51C2063.3 812.89 2048.43 827.84 2048.76 829.35C2049.09 830.85 2062.78 823.94 2063.51 825.05C2064.24 826.16 2064.91 826.77 2038.55 851.16L2023.42 865.37L2014.91 863.05L2006.13 849.93C2006.13 849.93 2014.35 804.44 2016.1 803.69C2017.77 802.97 2018.93 804.03 2021.87 819.91V819.9Z" fill="#F5B68B"/>
<path d="M1839.1 854.45L1885.21 817.69L1893.89 831.4C1906.17 862.64 1931.6 887.14 1938.34 890.16C1952.63 896.56 2010.88 835.01 2010.88 835.01L2026.52 860.87C2026.52 860.87 1963.56 955.83 1924.38 939C1885.19 922.17 1842.55 861.84 1842.55 861.84L1839.11 854.46L1839.1 854.45Z" fill="#F5B68B"/>
<path d="M1721.93 1263.97H1765.65V1334.57H1721.93V1263.97Z" fill="#F5B68B"/>
<path d="M1512.58 1311.09L1561.02 1309.44L1576.33 1253.81L1526.99 1248.7L1512.58 1311.09Z" fill="#F5B68B"/>
<path d="M1824.01 994.93C1824.01 994.93 1789.67 1238.05 1780.12 1272C1780.12 1272 1737.19 1286.71 1708.57 1272C1708.57 1272 1708.97 1059.84 1704.2 1050.3C1704.2 1050.3 1653.23 1102.39 1591.22 1260.93C1591.22 1260.93 1529.21 1268.39 1507.26 1260.93L1579.77 984.43C1579.77 984.43 1662.77 950.09 1665.63 951.99C1668.49 953.9 1824 994.92 1824 994.92L1824.01 994.93Z" fill="#B5CD96"/>
<path d="M1708.7 696.06L1708.96 726.15L1754.44 724.6L1758.16 681.12L1708.7 696.06Z" fill="#F5B68B"/>
<path d="M1708.85 713.49C1718.51 717.24 1733.85 720.68 1755 718.03L1758.16 681.12L1708.7 696.06L1708.85 713.49Z" fill="#C67E4D"/>
<path d="M1816.86 598.36C1813.04 609.34 1817.07 620.72 1825.87 623.78C1834.67 626.84 1844.9 620.42 1848.72 609.44C1852.54 598.46 1848.51 587.08 1839.71 584.02C1830.91 580.96 1820.68 587.38 1816.86 598.36Z" fill="#C67E4D"/>
<path d="M1823.06 646.36C1827.49 632.26 1829.32 617.44 1829.89 604.57C1830.01 601.81 1830.3 599.06 1830.63 596.31C1831.98 585.23 1831.33 573.59 1828.11 561.74C1817.77 523.64 1782.94 496.35 1743.42 495.48C1690.18 494.31 1648.54 538.38 1651.26 590.06C1645.47 587.23 1639.11 586.84 1633.68 589.61C1623.26 594.93 1620.2 609.78 1626.87 622.8C1633.53 635.81 1647.38 642.05 1657.8 636.74C1659.25 636 1660.54 635.06 1661.69 633.99C1668.49 677.73 1706.36 709.8 1749.6 706.84C1782.61 704.58 1812.62 681.83 1823.05 646.37L1823.06 646.36Z" fill="#F5B68B"/>
<path d="M1745.71 592.86C1741.76 591.55 1738.01 590.53 1734.26 589.92C1730.53 589.31 1726.85 589.18 1723.26 589.62C1719.69 590.1 1716.11 590.88 1712.69 592.47L1711.36 592.99C1710.92 593.17 1710.52 593.44 1710.09 593.64L1707.48 594.95C1705.73 595.86 1704.11 597.01 1702.17 597.91C1703.2 596.13 1704.37 594.37 1705.73 592.77C1707.25 591.35 1708.64 589.66 1710.5 588.57C1713.95 585.99 1718.27 584.51 1722.62 583.97C1727 583.45 1731.47 584.07 1735.46 585.63C1739.43 587.23 1743.08 589.58 1745.71 592.87V592.86Z" fill="#1AA58F"/>
<path d="M1773.44 593.6C1775.94 590.22 1779.51 587.75 1783.42 586.01C1787.35 584.31 1791.8 583.53 1796.19 583.9C1800.55 584.29 1804.92 585.61 1808.46 588.07C1810.36 589.09 1811.81 590.73 1813.38 592.1C1814.8 593.65 1816.04 595.37 1817.13 597.11C1815.16 596.27 1813.5 595.19 1811.71 594.34L1809.05 593.12C1808.61 592.94 1808.2 592.68 1807.75 592.52L1806.4 592.05C1802.93 590.58 1799.32 589.92 1795.73 589.57C1792.13 589.26 1788.46 589.51 1784.75 590.26C1781.03 591 1777.32 592.15 1773.42 593.6H1773.44Z" fill="#1AA58F"/>
<path d="M1757.13 598.13C1756.09 602.38 1755.76 606.75 1755.94 611.15C1756.04 613.36 1756.3 615.56 1756.83 617.8C1757.39 620.02 1758.14 622.29 1759.79 624.39L1760.5 625.14L1761.13 625.78C1761.4 626.08 1761.78 626.33 1761.97 626.66C1762.48 627.27 1762.82 627.95 1763 628.66C1763.45 630.1 1762.91 631.76 1761.98 633.28C1759.95 636.37 1756.07 638.34 1751.93 639.61C1756.21 640.03 1761.15 639.02 1764.53 635.28C1766.19 633.47 1767.34 630.73 1766.85 627.92C1766.73 627.23 1766.56 626.54 1766.24 625.92C1765.99 625.26 1765.59 624.71 1765.2 624.15C1764.83 623.56 1764.31 623.18 1763.85 622.69C1763.56 622.42 1763.51 622.33 1763.37 622.17L1762.98 621.75C1761.95 620.48 1761.21 618.63 1760.59 616.76C1759.93 614.87 1759.59 612.81 1759.13 610.78C1758.36 606.66 1757.79 602.44 1757.11 598.13H1757.13Z" fill="#C67E4D"/>
<path d="M1841.66 543.25C1841.66 543.25 1856.15 542.08 1860.73 536.17C1860.73 536.17 1842.89 542.43 1834.99 522.13C1827.09 501.83 1807.39 481.42 1779.37 475.66C1751.35 469.9 1678.8 475.23 1660.48 493.52C1642.17 511.82 1635.56 529.46 1637.33 553.86C1639.1 578.26 1631.74 588.52 1624.45 588.77C1624.45 588.77 1633.55 592.27 1642.88 587.1C1642.88 587.1 1642.24 597.83 1632.67 601.04C1632.67 601.04 1655.68 598.79 1660.57 584.85C1660.57 584.85 1660.62 611.47 1654.73 617.54C1654.73 617.54 1673.06 609.89 1677.49 566.06C1677.49 566.06 1752.38 537.26 1764.97 502.71C1764.97 502.71 1754.71 537.29 1742.77 542.8C1742.77 542.8 1774.39 544.22 1791.13 513.47C1791.13 513.47 1814.41 530.97 1820.57 542.83C1826.52 554.28 1831.24 583.16 1831.3 585.24L1841.15 552.27C1841.15 552.27 1849.27 558.56 1860.65 553.79C1860.65 553.79 1844.47 549.52 1841.67 543.22L1841.66 543.25Z" fill="#1AA58F"/>
<path d="M1772.4 722.88L1683.43 717.86C1683.43 717.86 1678.06 737.74 1686.74 739.3C1695.42 740.85 1710.57 754.81 1717.55 753.44C1724.53 752.06 1727.63 749.05 1735.33 748.95C1743.04 748.85 1758.66 743.09 1760.72 740.55C1762.78 738.01 1772.52 730.2 1772.01 729.7C1771.51 729.2 1772.4 722.88 1772.4 722.88Z" fill="#F5B68B"/>
<path d="M1820.31 1355.36L1716.8 1356.06C1714.54 1356.07 1712.72 1354.29 1712.74 1352.08L1712.77 1349.1C1712.79 1346.89 1714.64 1345.08 1716.9 1345.07L1820.41 1344.37C1822.67 1344.36 1824.49 1346.14 1824.47 1348.35L1824.44 1351.33C1824.42 1353.54 1822.57 1355.35 1820.31 1355.36Z" fill="#202222"/>
<path d="M1718.21 1311.68L1714.24 1342.27C1713.75 1346.04 1715.88 1349.45 1718.71 1349.43L1817.15 1348.77C1819.71 1348.75 1822.25 1347.18 1823.62 1344.23C1825.02 1341.21 1825.34 1336.68 1820.99 1330.62C1812.28 1318.5 1783.35 1315.73 1769.28 1305.43L1723.43 1305.74C1720.87 1305.76 1718.66 1308.27 1718.22 1311.68H1718.21Z" fill="#1AA58F"/>
<path d="M1762.15 1323.22C1761.44 1322.8 1761.19 1321.63 1761.61 1320.73C1763.58 1316.53 1769.71 1306.29 1781.98 1308.31C1782.69 1308.43 1783.16 1309.35 1783.03 1310.3V1310.33C1782.9 1311.25 1782.26 1311.86 1781.57 1311.75C1770.57 1309.99 1765.35 1319.01 1763.76 1322.53C1763.42 1323.28 1762.73 1323.58 1762.14 1323.23L1762.15 1323.22Z" fill="#EDEEDC"/>
<path d="M1772.34 1327.08C1771.63 1326.66 1771.38 1325.49 1771.8 1324.59C1773.77 1320.39 1779.9 1310.16 1792.17 1312.17C1792.88 1312.29 1793.35 1313.21 1793.22 1314.16V1314.19C1793.09 1315.11 1792.45 1315.72 1791.76 1315.61C1780.76 1313.85 1775.54 1322.87 1773.95 1326.39C1773.61 1327.14 1772.92 1327.44 1772.33 1327.09L1772.34 1327.08Z" fill="#EDEEDC"/>
<path d="M1781.82 1330.69C1781.11 1330.27 1780.86 1329.1 1781.28 1328.2C1783.25 1324 1789.38 1313.77 1801.65 1315.78C1802.36 1315.9 1802.83 1316.81 1802.7 1317.77V1317.8C1802.57 1318.72 1801.93 1319.33 1801.24 1319.22C1790.24 1317.46 1785.02 1326.48 1783.43 1330C1783.09 1330.75 1782.4 1331.05 1781.81 1330.7L1781.82 1330.69Z" fill="#EDEEDC"/>
<path d="M1461.62 1355.36L1565.13 1356.06C1567.39 1356.07 1569.21 1354.29 1569.19 1352.08L1569.16 1349.1C1569.14 1346.89 1567.29 1345.08 1565.03 1345.07L1461.52 1344.37C1459.26 1344.36 1457.44 1346.14 1457.46 1348.35L1457.49 1351.33C1457.51 1353.54 1459.36 1355.35 1461.62 1355.36Z" fill="#202222"/>
<path d="M1563.73 1311.68L1567.7 1342.27C1568.19 1346.04 1566.06 1349.45 1563.23 1349.43L1464.79 1348.77C1462.23 1348.75 1459.69 1347.18 1458.32 1344.23C1456.92 1341.21 1456.6 1336.68 1460.95 1330.62C1469.66 1318.5 1498.59 1315.73 1512.66 1305.43L1558.51 1305.74C1561.07 1305.76 1563.28 1308.27 1563.72 1311.68H1563.73Z" fill="#1AA58F"/>
<path d="M1519.78 1323.22C1520.49 1322.8 1520.74 1321.63 1520.32 1320.73C1518.35 1316.53 1512.22 1306.29 1499.95 1308.31C1499.24 1308.43 1498.77 1309.35 1498.9 1310.3V1310.33C1499.03 1311.25 1499.67 1311.86 1500.36 1311.75C1511.36 1309.99 1516.58 1319.01 1518.17 1322.53C1518.51 1323.28 1519.2 1323.58 1519.79 1323.23L1519.78 1323.22Z" fill="#EDEEDC"/>
<path d="M1509.6 1327.08C1510.31 1326.66 1510.56 1325.49 1510.14 1324.59C1508.17 1320.39 1502.04 1310.16 1489.77 1312.17C1489.06 1312.29 1488.59 1313.21 1488.72 1314.16V1314.19C1488.85 1315.11 1489.49 1315.72 1490.18 1315.61C1501.18 1313.85 1506.4 1322.87 1507.99 1326.39C1508.33 1327.14 1509.02 1327.44 1509.61 1327.09L1509.6 1327.08Z" fill="#EDEEDC"/>
<path d="M1500.12 1330.69C1500.83 1330.27 1501.08 1329.1 1500.66 1328.2C1498.69 1324 1492.56 1313.77 1480.29 1315.78C1479.58 1315.9 1479.11 1316.81 1479.24 1317.77V1317.8C1479.37 1318.72 1480.01 1319.33 1480.7 1319.22C1491.7 1317.46 1496.92 1326.48 1498.51 1330C1498.85 1330.75 1499.54 1331.05 1500.13 1330.7L1500.12 1330.69Z" fill="#EDEEDC"/>
<path d="M1842.46 865.62C1848.18 745.43 1824.02 727.19 1824.02 727.18C1825.4 727.87 1826.68 728.64 1827.84 729.51C1843.69 741.4 1909.25 826.19 1909.25 826.19C1909.25 826.19 1882.54 866.9 1842.47 865.62H1842.46Z" fill="#B5CD96"/>
<path d="M1450.58 955.35C1450.58 955.35 1460.35 948.39 1464.27 945.95L1469.86 934.13C1488.73 881.93 1531.98 825.63 1570.63 782.28C1583.31 792.52 1596.78 803.39 1609.36 813.54C1565.48 861.12 1515.63 927.56 1494.66 956.12L1493.82 957.98L1487.99 979.74C1482.79 997.32 1478.32 1016.36 1476.68 1016.88C1474.37 1017.61 1472.97 1016.05 1471.18 994.59C1471.06 993.2 1469.45 992.47 1468.34 993.33C1459.8 1000 1432.78 1020.81 1430.58 1019.02C1427.97 1016.9 1451.66 997.71 1450.61 994.77C1449.57 991.83 1426.93 1011.12 1424.51 1008.4C1422.09 1005.68 1443.31 988.78 1442.69 987.28C1442.07 985.78 1420 999.8 1417.61 999.05C1415.22 998.3 1436.96 980.47 1436.72 978.44C1436.48 976.4 1417.38 983.72 1416.56 982.16C1415.74 980.6 1412.31 984.15 1450.57 955.36L1450.58 955.35Z" fill="#F5B68B"/>
<path d="M1603.31 854.37C1603.31 854.37 1552.11 824.16 1540.19 793.63C1540.19 793.63 1612.7 722.08 1629.87 717.31C1648.95 745.93 1603.32 854.37 1603.32 854.37H1603.31Z" fill="#B5CD96"/>
<path d="M1629.87 717.31C1640.53 714.35 1692.36 717.31 1692.36 717.31C1692.36 717.31 1715.26 755.31 1768.68 722.72C1768.68 722.72 1805.56 717.49 1824.01 726.75C1824.01 726.75 1848.18 744.98 1842.45 865.19C1842.45 865.19 1833.55 987.94 1831 1000.66C1831 1000.66 1673.27 1022.92 1570.23 993.03L1603.3 854.38C1603.3 854.38 1648.93 745.94 1629.85 717.32L1629.87 717.31Z" fill="#B5CD96"/>
<path d="M1902.83 817.97C1906.83 823.08 1909.23 826.19 1909.23 826.19C1909.23 826.19 1882.52 866.9 1842.45 865.62C1842.63 861.79 1842.78 858.06 1842.91 854.43C1868.64 849.69 1889.67 832.03 1902.83 817.97Z" fill="#EDEEDC"/>
<path d="M1551.88 782.28C1557.33 792.8 1572.69 821.18 1609.36 839.06C1605.8 848.47 1603.31 854.37 1603.31 854.37C1603.31 854.37 1552.11 824.16 1540.19 793.63C1540.19 793.63 1544.76 789.11 1551.89 782.28H1551.88Z" fill="#EDEEDC"/>
<path opacity="0.3" d="M1806.64 722.1C1813.03 722.89 1819.16 724.32 1824.01 726.75C1824.01 726.75 1848.18 744.98 1842.45 865.19C1842.45 865.19 1833.55 987.94 1831 1000.66C1831 1000.66 1673.27 1022.92 1570.23 993.03L1578.85 956.91C1820.15 954.09 1810.61 759.58 1806.64 722.1Z" fill="#A5C183"/>
<g style="mix-blend-mode:multiply" opacity="0.3">
<path d="M1713.34 1057.26C1716.04 1062.12 1724.68 1227.54 1727.24 1277.68C1720.75 1276.75 1714.36 1274.98 1708.57 1272C1708.57 1272 1708.97 1059.84 1704.2 1050.3C1704.2 1050.3 1710.16 1051.54 1713.34 1057.26Z" fill="#B5CD96"/>
</g>
<path d="M1767.86 652.05C1767.86 652.05 1743.47 646.55 1729.47 650.53C1729.47 650.53 1729.32 670.97 1747.85 671.78C1767.04 672.63 1767.86 652.04 1767.86 652.04V652.05Z" fill="#C67E4D"/>
<path d="M1765.98 651.66C1765.47 653.03 1764.71 654.82 1764.02 655.36C1762.85 656.27 1735.71 654.36 1734.71 654.2C1734.22 654.12 1733.41 651.98 1732.71 649.81C1744.37 647.78 1760.54 650.58 1765.99 651.66H1765.98Z" fill="#FFFEF3"/>
<path d="M1776.12 609.29C1776.89 610.47 1778.62 612.33 1780.31 613.55C1788.11 618.81 1799.87 615.96 1804.68 609.29C1793.8 613.44 1784.68 613.09 1776.11 609.29H1776.12Z" fill="#202222"/>
<path d="M1711.63 609.29C1712.4 610.47 1714.13 612.33 1715.82 613.55C1723.62 618.81 1735.38 615.96 1740.19 609.29C1729.31 613.44 1720.19 613.09 1711.62 609.29H1711.63Z" fill="#202222"/>
<path d="M112.399 795.18C112.369 796.32 111.089 796.98 110.159 796.33C102.909 791.3 79.9893 775.62 78.2893 777.17C76.2693 779.02 96.4092 793.53 95.6992 795.97C94.9892 798.41 75.6991 783.76 73.8591 786.09C72.0191 788.42 90.0491 801.18 89.6191 802.43C89.1891 803.68 70.5992 793.3 68.6992 794.01C66.7992 794.73 85.2892 808.23 85.1892 809.89C85.0892 811.56 69.2292 806.48 68.6392 807.79C68.0492 809.1 67.4291 809.87 99.8591 831.53L118.509 844.18L127.229 840.24L134.409 824.68C134.409 824.68 117.829 777.31 115.819 776.8C113.909 776.31 112.849 777.64 112.399 795.18Z" fill="#F5B68B"/>
<path d="M314.279 801.01L258.559 769.47L251.599 785.65C243.769 821.24 220.689 851.86 213.979 856.24C199.749 865.54 126.769 809.49 126.769 809.49L114.419 839.89C114.419 839.89 198.149 930.96 237.289 906.22C276.429 881.48 311.849 809.5 311.849 809.5L314.279 801V801.01Z" fill="#F5B68B"/>
<path d="M256.369 676.17C266.989 648.55 277.329 659.49 296.499 626.09C299.549 620.78 301.749 613.91 303.279 607.57C307.879 588.63 317.829 571.33 332.579 558.59C377.529 519.77 428.389 537 428.389 537C428.389 537 415.199 612.04 412.669 627.25C423.909 642.53 435.229 658.14 435.229 658.14C435.229 658.14 458.889 781.49 421.759 791.89C384.629 802.29 377.869 785.6 359.739 776.91C341.609 768.21 323.909 791.95 296.819 775.43C276.129 762.81 286.639 731.35 275.689 725.45C264.749 719.55 244.889 705.98 256.359 676.17H256.369Z" fill="#242424"/>
<path d="M447.639 599.23C448.299 598.94 465.319 589.34 481.259 580.34L382.279 470.15C382.279 470.15 412.279 464.34 414.099 464.11C415.919 463.88 458.939 477.27 458.939 477.27L503.289 489.28C537.129 612.78 579.279 635.14 579.289 635.15C584.379 638.53 589.189 643.04 594.059 650.91C610.849 678.08 593.859 695.09 584.199 702.92C574.539 710.75 590.699 739.72 572.709 755.95C549.149 777.2 527.359 757.16 511.149 769.07C494.939 780.98 491.399 798.63 452.989 795.29C414.579 791.95 414.949 666.36 414.949 666.36C414.949 666.36 446.389 599.77 447.639 599.22V599.23Z" fill="#242424"/>
<path d="M387.489 664.45H443.529V762.8H387.489V664.45Z" fill="#F5B68B"/>
<path d="M387.589 681.26V647.72H443.529V676.25C431.489 682.72 413.649 686.45 387.589 681.26Z" fill="#C67E4D"/>
<path d="M309.089 554.97C314.449 552.33 320.669 552.8 326.299 555.65C324.369 504.98 365.689 462.36 417.739 464.16C469.789 462.36 511.109 504.98 509.179 555.65C514.809 552.8 521.029 552.33 526.389 554.97C536.669 560.04 539.859 574.57 533.529 587.42C527.189 600.27 513.719 606.58 503.439 601.5C502.009 600.8 500.739 599.89 499.589 598.86C493.699 640.75 458.749 672.16 417.749 671.57C376.749 672.15 341.799 640.75 335.909 598.86C334.759 599.9 333.489 600.8 332.059 601.5C321.779 606.57 308.309 600.26 301.969 587.42C295.629 574.57 298.829 560.04 309.109 554.97H309.089Z" fill="#F5B68B"/>
<path d="M432.4 557.9C436.25 556.56 439.91 555.52 443.57 554.87C447.22 554.22 450.82 554.05 454.33 554.43C457.83 554.85 461.35 555.57 464.71 557.08L466.02 557.57C466.45 557.74 466.84 558 467.28 558.19L469.85 559.44C471.58 560.31 473.18 561.41 475.1 562.26C474.07 560.52 472.9 558.82 471.54 557.26C470.03 555.89 468.65 554.25 466.81 553.2C463.39 550.71 459.15 549.32 454.88 548.85C450.59 548.4 446.21 549.07 442.33 550.65C438.47 552.28 434.92 554.63 432.4 557.9Z" fill="#202222"/>
<path d="M401.379 557.78C398.879 554.5 395.349 552.12 391.509 550.46C387.629 548.84 383.269 548.14 378.969 548.56C374.699 549 370.439 550.36 367.009 552.82C365.169 553.85 363.759 555.48 362.249 556.84C360.879 558.38 359.699 560.08 358.659 561.81C360.579 560.97 362.189 559.88 363.929 559.02L366.509 557.79C366.939 557.6 367.339 557.35 367.769 557.18L369.079 556.7C372.459 555.21 375.989 554.52 379.479 554.13C382.999 553.78 386.599 553.97 390.239 554.65C393.889 555.32 397.539 556.4 401.379 557.76V557.78Z" fill="#202222"/>
<path d="M413.929 563.12C414.309 567.16 414.029 571.21 413.269 575.22C412.889 577.23 412.349 579.22 411.569 581.19C410.759 583.15 409.769 585.13 407.969 586.83L407.219 587.42L406.549 587.92C406.269 588.16 405.879 588.33 405.659 588.61C405.109 589.1 404.709 589.67 404.449 590.31C403.849 591.57 404.119 593.16 404.759 594.69C406.199 597.8 409.489 600.13 413.109 601.84C409.139 601.65 404.749 600.06 402.149 596.17C400.879 594.29 400.189 591.62 401.009 589.11C401.209 588.49 401.459 587.89 401.839 587.36C402.159 586.79 402.589 586.34 403.029 585.88C403.449 585.39 403.979 585.11 404.459 584.72C404.759 584.51 404.819 584.44 404.969 584.31L405.389 583.98C406.509 582.96 407.429 581.36 408.249 579.72C409.109 578.07 409.689 576.24 410.389 574.43C411.639 570.76 412.739 566.96 413.939 563.11L413.929 563.12Z" fill="#C67E4D"/>
<path d="M525.289 554.43C525.289 554.43 530.959 449.56 414.099 442.63C414.099 442.63 417.729 545.65 509.169 555.65L516.219 541.95L525.289 554.42V554.43Z" fill="#242424"/>
<path d="M414.1 442.63C414.1 442.63 319.3 437.32 314.28 553.39C314.28 553.39 321.17 552.89 326.3 555.65C326.3 555.65 401.38 536.87 420.02 464.11L414.1 442.63Z" fill="#242424"/>
<path d="M465.259 698.39H357.879C357.879 698.39 342.11 722.73 343.09 724.29C344.07 725.84 372.039 757.96 385.499 760.54C398.969 763.13 415.019 773.49 425.899 767.79C436.779 762.09 462.149 752.25 462.149 752.25C462.149 752.25 473.53 736.19 475.09 729.46C476.65 722.73 465.259 698.38 465.259 698.38V698.39Z" fill="#F5B68B"/>
<path d="M559.87 1098.22L610.81 1347.46L656.35 1375.85C656.35 1375.85 652.69 1385.69 651.76 1386.32C650.83 1386.95 629.68 1389.55 629.68 1389.55L575.56 1381.66L560.01 1370.48L468.17 1135.97L472.859 1123.77L559.87 1098.22Z" fill="#F5B68B"/>
<path d="M289.17 1094.77L392.06 1121.7L386.23 1372.07C386.23 1372.07 385.63 1371.93 384.57 1371.67L370.68 1381.66L316.56 1389.55C316.56 1389.55 295.41 1386.94 294.48 1386.32C293.55 1385.7 289.89 1375.85 289.89 1375.85L334.859 1347.81L289.16 1094.76L289.17 1094.77Z" fill="#F5B68B"/>
<path d="M518.439 830.97C518.439 830.97 524.369 879.99 541.539 944.74L534.669 989.11L361.679 1024.67L282.609 958.38L281.259 944.74C298.439 879.99 304.359 830.97 304.359 830.97C244.969 834.42 211.129 795.75 211.129 795.75C211.129 795.75 226.829 777.51 254.629 746.03C291.229 704.6 357.529 698.38 357.529 698.38C366.849 752.24 455.939 752.24 465.259 698.38C465.259 698.38 531.549 704.59 568.149 746.03C595.959 777.51 611.659 795.75 611.659 795.75C611.659 795.75 577.819 834.42 518.429 830.97H518.439Z" fill="#1AA58F"/>
<path d="M401.05 1139.47H401.04C282.75 1136.16 225.98 1094.08 225.98 1094.08C251.31 1044.28 269.1 990.57 281.26 944.74C281.26 944.74 325.42 980.13 330.6 777.11H492.19C497.37 980.14 541.53 944.74 541.53 944.74C553.69 990.57 571.48 1044.28 596.81 1094.08C596.81 1094.08 540.04 1136.16 421.75 1139.47H421.74C420.06 1139.52 418.36 1139.56 416.66 1139.59C414.92 1139.62 413.17 1139.65 411.41 1139.66H411.39C409.63 1139.65 407.88 1139.62 406.14 1139.59C404.43 1139.56 402.74 1139.52 401.06 1139.47H401.05Z" fill="#B5CD96"/>
<g style="mix-blend-mode:multiply" opacity="0.3">
<path d="M428.69 777.11H492.19C497.37 980.14 541.53 944.74 541.53 944.74C553.69 990.57 571.48 1044.28 596.81 1094.08C596.81 1094.08 540.04 1136.16 421.75 1139.47H421.74C420.06 1139.52 418.36 1139.56 416.66 1139.59C414.92 1139.62 413.17 1139.65 411.41 1139.66H411.39C409.63 1139.65 407.88 1139.62 406.14 1139.59C404.43 1139.56 402.74 1139.52 401.06 1139.47H401.05C282.76 1136.16 225.99 1094.08 225.99 1094.08C228.87 1088.41 231.64 1082.69 234.33 1076.95C485.3 1036.98 441.67 824.38 428.7 777.11H428.69Z" fill="#B5CD96"/>
</g>
<path d="M494.219 704.09C494.219 704.09 486.499 780.22 485.459 793.17C485.459 793.17 476.659 794.72 462.149 793.17L465.259 698.39C465.259 698.39 483.809 692.19 494.209 704.09H494.219Z" fill="#B5CD96"/>
<path d="M328.919 704.09C328.919 704.09 336.639 780.22 337.679 793.17C337.679 793.17 346.479 794.72 360.989 793.17L357.879 698.39C357.879 698.39 339.329 692.19 328.919 704.09Z" fill="#B5CD96"/>
<path d="M371.75 900.82C372.2 898.56 399.96 897.63 408.78 897.4C409.92 897.37 410.56 896.08 409.91 895.14C399.89 880.74 399.96 879.04 401.79 878.3C403.05 877.79 421.39 889.89 433.8 898.23C451.25 898.4 522.69 898.21 527.93 884.24C530.02 878.66 530.82 856.07 525.05 831.17C549.01 831.33 568.47 824.71 582.83 817.14C585.39 844.07 586.71 884.2 576.3 910.74C561.62 948.16 468.22 935.13 443.84 931.03L421.32 931.87C382.36 933.61 382.4 932.62 382.1 931.22C381.8 929.81 397.59 924.52 396.68 923.11C395.77 921.71 372.88 921.77 373.99 920.07C375.1 918.37 396.23 915.74 395.84 914.47C395.45 913.2 373.36 913.59 373.47 910.62C373.58 907.66 397.8 908.05 396.92 905.66C396.05 903.27 371.23 903.5 371.76 900.81L371.75 900.82Z" fill="#F5B68B"/>
<path d="M434.529 578.69C435.369 579.97 437.239 581.99 439.079 583.32C447.549 589.03 460.309 585.94 465.539 578.69C453.729 583.19 443.829 582.82 434.519 578.69H434.529Z" fill="#202222"/>
<path d="M364.499 578.69C365.339 579.97 367.209 581.99 369.049 583.32C377.519 589.03 390.279 585.94 395.509 578.69C383.699 583.19 373.799 582.82 364.489 578.69H364.499Z" fill="#202222"/>
<path d="M432.399 616.04C432.399 616.04 405.709 611.12 390.689 616.04C390.689 616.04 391.409 638.22 411.549 638.31C432.409 638.41 432.409 616.04 432.409 616.04H432.399Z" fill="#C67E4D"/>
<path d="M430.329 615.69C429.839 617.2 429.089 619.17 428.359 619.79C427.129 620.83 397.609 619.92 396.509 619.79C395.969 619.73 394.999 617.44 394.149 615.11C406.709 612.4 424.379 614.75 430.329 615.69Z" fill="#FFFEF3"/>
<path d="M507.209 753.8C507.719 760.45 508.379 767.08 509.179 773.69C509.949 780.3 510.859 786.9 511.789 793.49C512.759 800.07 513.769 806.65 514.909 813.21C516.019 819.77 517.269 826.32 518.669 832.84C518.159 826.19 517.509 819.56 516.709 812.95C515.939 806.34 515.029 799.74 514.099 793.16C513.119 786.58 512.119 780 510.979 773.44C509.869 766.88 508.619 760.33 507.219 753.81L507.209 753.8Z" fill="#FEFEFE"/>
<path d="M315.779 752.23C315.269 758.88 314.609 765.51 313.809 772.12C313.039 778.73 312.129 785.33 311.199 791.91C310.219 798.49 309.219 805.07 308.079 811.63C306.969 818.19 305.719 824.74 304.319 831.26C304.829 824.61 305.479 817.98 306.279 811.37C307.049 804.76 307.959 798.16 308.889 791.58C309.869 785 310.869 778.42 312.009 771.86C313.119 765.3 314.369 758.75 315.769 752.23H315.779Z" fill="#FEFEFE"/>
<path d="M468.779 781.77C468.779 785.34 471.669 788.23 475.239 788.23C478.809 788.23 481.699 785.34 481.699 781.77C481.699 778.2 478.809 775.31 475.239 775.31C471.669 775.31 468.779 778.2 468.779 781.77Z" fill="#1AA58F"/>
<path d="M342.269 781.77C342.269 785.34 345.159 788.23 348.729 788.23C352.299 788.23 355.189 785.34 355.189 781.77C355.189 778.2 352.299 775.31 348.729 775.31C345.159 775.31 342.269 778.2 342.269 781.77Z" fill="#1AA58F"/>
<path d="M468.469 817.14H355.709V839.9C355.709 858.23 370.589 873.11 388.919 873.11H435.269C453.599 873.11 468.479 858.23 468.479 839.9V817.14H468.469Z" fill="#B5CD96"/>
<path d="M587.28 1074.4C590.33 1081.01 593.51 1087.58 596.81 1094.08C596.81 1094.08 540.04 1136.16 421.75 1139.47H421.74C420.06 1139.52 418.36 1139.56 416.66 1139.59C414.92 1139.62 413.17 1139.65 411.41 1139.66H411.39C409.63 1139.65 407.88 1139.62 406.14 1139.59C404.43 1139.56 402.74 1139.52 401.06 1139.47H401.05C282.76 1136.16 225.99 1094.08 225.99 1094.08C228.53 1089.1 230.96 1084.07 233.35 1079.01C409.94 1159.28 545.03 1098.43 587.29 1074.39L587.28 1074.4Z" fill="#B5CD96"/>
<path d="M580.269 1198.07L610.799 1347.47L656.339 1375.86C656.339 1375.86 652.679 1385.7 651.749 1386.33C650.819 1386.96 629.669 1389.56 629.669 1389.56L575.549 1381.67L559.999 1370.49L498.419 1213.24C525.589 1209.93 555.559 1203.8 580.259 1198.07H580.269Z" fill="#1AA58F"/>
<path d="M312.399 1223.41C349.119 1224.82 374.289 1223.57 389.729 1222.1L386.239 1372.08C386.239 1372.08 385.639 1371.94 384.579 1371.68L370.689 1381.67L316.569 1389.56C316.569 1389.56 295.419 1386.95 294.489 1386.33C293.559 1385.71 289.899 1375.86 289.899 1375.86L334.869 1347.82L312.399 1223.4V1223.41Z" fill="#1AA58F"/>
<path d="M656.349 1375.86L669.409 1384.35C675.459 1388.21 672.729 1397.58 665.549 1397.58H566.349C562.849 1397.58 560.009 1394.74 560.009 1391.24V1370.48C626.079 1391.51 648.899 1385.11 656.339 1375.86H656.349Z" fill="#222222"/>
<path d="M289.899 1375.86L276.839 1384.35C270.789 1388.21 273.519 1397.58 280.699 1397.58H379.899C383.399 1397.58 386.239 1394.74 386.239 1391.24V1370.48C320.169 1391.51 297.349 1385.11 289.909 1375.86H289.899Z" fill="#222222"/>
<path d="M1169.69 217.73C1169.54 217.21 1169.38 216.64 1169.22 216.06C1164.22 198.22 1159.19 180.38 1154.25 162.52C1153.78 160.82 1153.2 160.24 1151.31 160.34C1134.63 161.29 1117.94 162.1 1101.25 162.96C1100.69 162.99 1100.13 163.06 1099.52 163.12C1099.56 163.43 1099.56 163.65 1099.62 163.86C1102.44 173.89 1105.28 183.91 1108.1 193.94C1109.85 200.16 1111.56 206.39 1113.29 212.61C1114.92 218.45 1116.65 224.27 1118.17 230.14C1119.12 233.79 1121.37 236.03 1124.83 237.21C1131.37 239.45 1140 236.88 1144.19 231.45C1148.29 226.14 1146.55 219.76 1140.19 217.65C1133.17 215.32 1126.91 217.06 1121.5 222.02C1121.13 222.36 1120.79 222.75 1120.43 223.11C1120.4 223.14 1120.32 223.12 1120.13 223.14C1116 208.42 1111.87 193.68 1107.66 178.67C1111.6 178.45 1115.46 178.23 1119.33 178.01C1124.58 177.71 1129.83 177.4 1135.08 177.13C1141 176.82 1146.93 176.6 1152.85 176.24C1154.21 176.16 1154.42 176.89 1154.69 177.87C1158.44 191.41 1162.22 204.95 1165.99 218.49C1166.6 220.67 1167.29 222.84 1167.81 225.04C1168.7 228.81 1171.16 231.1 1174.74 232.02C1181.85 233.85 1188.18 232.18 1193.2 226.78C1198.27 221.33 1196.26 214.19 1189.1 212.14C1182.36 210.21 1176.34 211.94 1171.17 216.63C1170.79 216.97 1170.45 217.35 1170.09 217.7C1170.06 217.73 1169.98 217.7 1169.69 217.71V217.73Z" fill="#FFFEF3"/>
<path d="M1568.99 290.85C1569.13 290.26 1569.28 289.61 1569.43 288.95C1574.1 268.65 1578.74 248.33 1583.48 228.05C1583.93 226.12 1583.67 225.23 1581.75 224.32C1564.78 216.27 1547.87 208.09 1530.94 199.95C1530.37 199.68 1529.78 199.45 1529.15 199.18C1529.03 199.5 1528.91 199.73 1528.85 199.97C1526.24 211.39 1523.64 222.81 1521.02 234.22C1519.4 241.3 1517.73 248.37 1516.09 255.44C1514.55 262.08 1513.13 268.75 1511.47 275.36C1510.44 279.47 1511.46 282.89 1514.23 285.93C1519.48 291.66 1529.38 293.77 1536.44 290.67C1543.34 287.64 1545.07 280.41 1539.92 274.9C1534.25 268.82 1527.13 267.17 1519.12 269.15C1518.57 269.29 1518.03 269.49 1517.48 269.65C1517.43 269.66 1517.37 269.61 1517.17 269.52C1521.02 252.77 1524.88 235.99 1528.8 218.92C1532.81 220.82 1536.74 222.69 1540.67 224.55C1546.01 227.09 1551.36 229.6 1556.69 232.16C1562.7 235.05 1568.67 238.02 1574.7 240.85C1576.09 241.5 1575.9 242.33 1575.64 243.44C1572.05 258.83 1568.49 274.22 1564.92 289.61C1564.34 292.09 1563.86 294.6 1563.19 297.06C1562.04 301.26 1563.23 304.85 1566.27 307.68C1572.3 313.32 1579.45 315.07 1587.31 312.45C1595.25 309.8 1597.11 301.67 1591.15 295.79C1585.53 290.26 1578.67 288.73 1571.03 290.57C1570.48 290.7 1569.94 290.89 1569.39 291.05C1569.35 291.06 1569.28 291 1568.99 290.85Z" fill="#1AA58F"/>
<path d="M1357.76 163.38C1358.17 138.75 1358.58 114.22 1358.98 89.69C1354.62 97.16 1349.08 103.6 1343.42 109.92C1339.94 113.81 1336.12 117.4 1332.71 121.34C1329.13 125.48 1326.23 130.08 1325.76 135.76C1325.36 140.52 1327.24 144.37 1330.7 147.59C1328.33 141.41 1329.69 136.06 1334.23 131.49C1335.62 130.09 1337.22 128.84 1338.87 127.75C1343.48 124.69 1348.58 122.73 1354.07 121.18C1354.13 121.88 1354.21 122.4 1354.2 122.91C1353.95 138.5 1353.88 154.1 1353.34 169.69C1353.1 176.76 1357.1 180.9 1361.86 182.87C1368.44 185.59 1375.04 185.54 1381.37 182.17C1385.36 180.05 1388.25 176.96 1388.13 171.97C1388.05 168.62 1386.49 165.89 1383.94 164.1C1375.73 158.37 1367.18 157.98 1358.51 163.22C1358.36 163.31 1358.14 163.3 1357.75 163.37L1357.76 163.38Z" fill="#365447"/>
<path d="M1350.59 295.59C1350.59 295.59 1352.09 310.38 1363.76 311.4C1352.09 312.42 1350.59 327.21 1350.59 327.21C1350.59 327.21 1349.09 312.42 1337.42 311.4C1349.09 310.38 1350.59 295.59 1350.59 295.59Z" fill="#B5D37A"/>
<path d="M1219.99 5.56C1219.99 5.56 1222.74 32.72 1244.18 34.6C1222.75 36.48 1219.99 63.64 1219.99 63.64C1219.99 63.64 1217.24 36.48 1195.8 34.6C1217.24 32.72 1219.99 5.56 1219.99 5.56Z" fill="#B5CD96"/>
<path d="M1496.65 25.62C1496.65 25.62 1499.4 52.78 1520.84 54.66C1499.4 56.54 1496.65 83.7 1496.65 83.7C1496.65 83.7 1493.89 56.54 1472.46 54.66C1493.89 52.78 1496.65 25.62 1496.65 25.62Z" fill="#B5CD96"/>
<path d="M877.24 200.17C877.19 199.61 877.13 199 877.07 198.38C875.29 179.25 873.48 160.11 871.77 140.97C871.61 139.15 871.12 138.44 869.18 138.2C851.99 136.06 834.81 133.78 817.63 131.55C817.05 131.48 816.47 131.45 815.84 131.39C815.82 131.71 815.78 131.94 815.8 132.17C816.81 142.92 817.84 153.68 818.84 164.43C819.46 171.1 820.05 177.77 820.66 184.45C821.23 190.71 821.91 196.97 822.37 203.24C822.66 207.14 824.54 209.84 827.85 211.7C834.1 215.2 843.39 214.19 848.68 209.43C853.85 204.78 853.27 197.95 847.17 194.61C840.44 190.93 833.73 191.54 827.29 195.59C826.84 195.87 826.43 196.2 826 196.5C825.96 196.52 825.89 196.5 825.69 196.47C824.22 180.69 822.75 164.88 821.25 148.79C825.31 149.3 829.29 149.79 833.27 150.29C838.68 150.97 844.1 151.63 849.5 152.33C855.6 153.12 861.68 154 867.79 154.73C869.2 154.9 869.27 155.68 869.36 156.73C870.67 171.24 871.99 185.76 873.32 200.27C873.53 202.61 873.83 204.95 873.95 207.29C874.16 211.3 876.24 214.1 879.72 215.7C886.64 218.89 893.4 218.36 899.53 213.79C905.71 209.18 905 201.51 898.07 198.09C891.55 194.87 885.1 195.51 878.94 199.33C878.49 199.61 878.08 199.93 877.64 200.22C877.6 200.24 877.53 200.21 877.23 200.16L877.24 200.17Z" fill="#B5CD96"/>
<path d="M990.189 369.54C993.849 341.04 997.499 312.65 1001.14 284.27C995.119 292.37 987.869 299.11 980.489 305.71C975.949 309.77 971.059 313.44 966.599 317.57C961.909 321.91 957.959 326.87 956.669 333.39C955.589 338.86 957.269 343.56 960.859 347.74C958.919 340.26 961.179 334.24 967.039 329.53C968.839 328.09 970.849 326.85 972.899 325.79C978.639 322.84 984.809 321.23 991.369 320.14C991.339 320.96 991.369 321.57 991.299 322.16C988.989 340.21 986.889 358.28 984.249 376.28C983.049 384.45 987.159 389.77 992.429 392.66C999.709 396.66 1007.37 397.46 1015.14 394.38C1020.04 392.44 1023.79 389.23 1024.3 383.43C1024.65 379.54 1023.19 376.17 1020.46 373.77C1011.69 366.06 1001.82 364.51 991.099 369.46C990.909 369.55 990.659 369.5 990.199 369.53L990.189 369.54Z" fill="#1AA58F"/>
<path d="M709.19 270.29C709.19 270.29 710.51 283.34 720.81 284.24C710.51 285.14 709.19 298.19 709.19 298.19C709.19 298.19 707.87 285.14 697.57 284.24C707.87 283.34 709.19 270.29 709.19 270.29Z" fill="#B5D37A"/>
<path d="M753.529 29.04C753.529 29.04 755.959 53 774.869 54.66C755.959 56.32 753.529 80.28 753.529 80.28C753.529 80.28 751.099 56.31 732.189 54.66C751.099 53 753.529 29.04 753.529 29.04Z" fill="#1AA58F"/>
<path d="M1005.04 0C1005.04 0 1007.47 23.96 1026.38 25.62C1007.47 27.28 1005.04 51.24 1005.04 51.24C1005.04 51.24 1002.61 27.28 983.7 25.62C1002.61 23.96 1005.04 0 1005.04 0Z" fill="#365447"/>
<path d="M549.85 322.69C549.8 322.16 549.75 321.57 549.69 320.98C547.99 302.67 546.26 284.37 544.62 266.06C544.46 264.31 544 263.64 542.14 263.41C525.69 261.36 509.26 259.18 492.82 257.05C492.27 256.98 491.71 256.95 491.1 256.9C491.08 257.21 491.05 257.43 491.07 257.64C492.04 267.93 493.02 278.22 493.98 288.51C494.58 294.89 495.13 301.28 495.72 307.66C496.27 313.65 496.92 319.63 497.36 325.63C497.63 329.36 499.43 331.95 502.6 333.72C508.58 337.07 517.47 336.1 522.52 331.55C527.46 327.1 526.91 320.56 521.08 317.37C514.65 313.85 508.23 314.43 502.06 318.3C501.63 318.57 501.24 318.89 500.82 319.17C500.79 319.19 500.71 319.17 500.52 319.14C499.11 304.04 497.71 288.91 496.28 273.52C500.16 274.01 503.97 274.48 507.78 274.96C512.96 275.61 518.14 276.24 523.31 276.91C529.14 277.67 534.97 278.51 540.81 279.21C542.15 279.37 542.22 280.12 542.31 281.12C543.56 295.01 544.83 308.89 546.1 322.77C546.3 325.01 546.59 327.25 546.71 329.49C546.91 333.33 548.9 336 552.23 337.54C558.85 340.6 565.32 340.09 571.18 335.72C577.1 331.31 576.41 323.98 569.79 320.7C563.55 317.62 557.38 318.23 551.49 321.89C551.06 322.16 550.66 322.46 550.25 322.75C550.22 322.77 550.14 322.74 549.86 322.69H549.85Z" fill="#365447"/>
<path d="M264.26 368.68C264.08 368.35 263.88 367.98 263.68 367.61C257.47 356.17 251.24 344.73 245.07 333.27C244.48 332.18 243.99 331.87 242.72 332.24C231.44 335.49 220.14 338.66 208.84 341.85C208.46 341.96 208.09 342.09 207.68 342.23C207.76 342.43 207.79 342.59 207.86 342.72C211.36 349.15 214.87 355.57 218.36 362C220.53 365.99 222.67 369.99 224.83 373.98C226.86 377.73 228.95 381.44 230.91 385.22C232.13 387.57 234.02 388.75 236.58 389.03C241.41 389.54 246.92 386.44 248.94 382.06C250.92 377.79 248.73 373.68 244.05 373.23C238.88 372.73 234.86 374.9 231.93 379.14C231.73 379.43 231.56 379.75 231.37 380.05C231.35 380.08 231.3 380.08 231.17 380.12C226.05 370.68 220.91 361.23 215.69 351.61C218.35 350.84 220.97 350.09 223.58 349.34C227.13 348.32 230.68 347.28 234.23 346.28C238.24 345.15 242.26 344.07 246.26 342.9C247.18 342.63 247.43 343.1 247.77 343.73C252.46 352.42 257.15 361.11 261.85 369.79C262.61 371.19 263.42 372.57 264.12 374C265.32 376.44 267.36 377.63 269.96 377.7C275.12 377.84 279.19 375.71 281.79 371.23C284.41 366.71 281.92 362.13 276.7 361.84C271.78 361.57 267.93 363.69 265.12 367.72C264.92 368.01 264.74 368.32 264.55 368.62C264.53 368.64 264.48 368.64 264.28 368.69L264.26 368.68Z" fill="#1AA58F"/>
<path d="M432.66 124.52C425.41 102.96 418.2 81.49 410.98 60.02C409.49 67.87 406.66 75.18 403.69 82.43C401.86 86.89 399.65 91.19 397.9 95.68C396.06 100.39 394.96 105.29 396.3 110.38C397.42 114.65 400.24 117.41 404.25 119.15C400.28 114.5 399.81 109.43 402.35 104.05C403.13 102.4 404.13 100.82 405.23 99.36C408.29 95.27 412.13 92 416.42 88.95C416.68 89.54 416.92 89.97 417.07 90.42C421.66 104.07 426.42 117.66 430.76 131.39C432.73 137.62 437.49 139.99 442.25 140.23C448.81 140.56 454.54 138.48 459.01 133.6C461.83 130.52 463.38 126.94 461.75 122.64C460.65 119.75 458.45 117.85 455.68 117.09C446.77 114.63 439.21 116.94 433.28 124.18C433.18 124.31 432.98 124.36 432.67 124.54L432.66 124.52Z" fill="#B5CD96"/>
<path d="M382.28 207.65C382.28 207.65 383.24 217.08 390.68 217.73C383.24 218.38 382.28 227.81 382.28 227.81C382.28 227.81 381.32 218.38 373.88 217.73C381.32 217.08 382.28 207.65 382.28 207.65Z" fill="#B5D37A"/>
<path d="M616.59 137.53C616.59 137.53 618.35 154.85 632.01 156.05C618.34 157.25 616.59 174.57 616.59 174.57C616.59 174.57 614.83 157.25 601.17 156.05C614.84 154.85 616.59 137.53 616.59 137.53Z" fill="#1AA58F"/>
<path d="M252.91 193.08C252.91 193.08 254.67 210.4 268.33 211.6C254.66 212.8 252.91 230.12 252.91 230.12C252.91 230.12 251.15 212.8 237.49 211.6C251.16 210.4 252.91 193.08 252.91 193.08Z" fill="#365447"/>
<path d="M1962.6 407.71C1962.78 406.95 1962.97 406.1 1963.17 405.25C1969.23 378.88 1975.26 352.5 1981.42 326.16C1982.01 323.65 1981.67 322.5 1979.18 321.32C1957.14 310.87 1935.18 300.25 1913.19 289.68C1912.45 289.33 1911.69 289.03 1910.86 288.68C1910.7 289.1 1910.54 289.39 1910.47 289.7C1907.08 304.53 1903.71 319.35 1900.3 334.18C1898.19 343.37 1896.02 352.55 1893.9 361.74C1891.91 370.37 1890.05 379.03 1887.9 387.61C1886.56 392.95 1887.88 397.39 1891.49 401.33C1898.31 408.77 1911.17 411.51 1920.34 407.48C1929.3 403.54 1931.54 394.15 1924.86 387C1917.49 379.11 1908.25 376.96 1897.85 379.53C1897.13 379.71 1896.43 379.97 1895.72 380.18C1895.66 380.2 1895.57 380.12 1895.31 380.01C1900.31 358.26 1905.32 336.47 1910.42 314.3C1915.62 316.77 1920.73 319.19 1925.83 321.62C1932.77 324.91 1939.71 328.18 1946.64 331.51C1954.44 335.26 1962.19 339.12 1970.03 342.79C1971.84 343.64 1971.58 344.71 1971.25 346.16C1966.59 366.14 1961.96 386.13 1957.33 406.12C1956.58 409.34 1955.95 412.6 1955.08 415.79C1953.59 421.24 1955.13 425.9 1959.08 429.58C1966.92 436.9 1976.2 439.18 1986.4 435.77C1996.7 432.33 1999.13 421.77 1991.38 414.14C1984.09 406.95 1975.17 404.97 1965.26 407.36C1964.54 407.53 1963.84 407.78 1963.13 407.98C1963.07 408 1962.99 407.91 1962.61 407.72L1962.6 407.71Z" fill="#365447"/>
<path d="M1770.95 211.09C1771.48 179.11 1772.01 147.25 1772.54 115.39C1766.88 125.1 1759.69 133.45 1752.33 141.66C1747.81 146.71 1742.85 151.37 1738.42 156.5C1733.77 161.88 1730.01 167.85 1729.39 175.23C1728.87 181.41 1731.31 186.41 1735.8 190.59C1732.73 182.56 1734.49 175.62 1740.39 169.68C1742.2 167.86 1744.27 166.24 1746.41 164.82C1752.39 160.84 1759.02 158.3 1766.14 156.28C1766.21 157.19 1766.32 157.86 1766.31 158.53C1765.98 178.78 1765.89 199.04 1765.2 219.28C1764.88 228.47 1770.08 233.84 1776.27 236.4C1784.81 239.93 1793.39 239.86 1801.61 235.49C1806.8 232.73 1810.54 228.72 1810.39 222.24C1810.29 217.89 1808.27 214.34 1804.95 212.02C1794.29 204.57 1783.19 204.07 1771.93 210.88C1771.73 211 1771.45 210.98 1770.95 211.07V211.09Z" fill="#1AA58F"/>
<path d="M1925.61 132.57C1925.61 132.57 1926.96 145.83 1937.42 146.75C1926.95 147.67 1925.61 160.93 1925.61 160.93C1925.61 160.93 1924.27 147.67 1913.8 146.75C1924.27 145.83 1925.61 132.57 1925.61 132.57Z" fill="#B5D37A"/>
<path d="M1749.34 283.68C1749.34 283.68 1751.81 308.04 1771.03 309.73C1751.81 311.42 1749.34 335.78 1749.34 335.78C1749.34 335.78 1746.87 311.42 1727.64 309.73C1746.86 308.04 1749.34 283.68 1749.34 283.68Z" fill="#FFFEF3"/>
<path d="M1654.1 37.6C1654.1 37.6 1656.57 61.96 1675.79 63.65C1656.57 65.33 1654.1 89.7 1654.1 89.7C1654.1 89.7 1651.63 65.34 1632.4 63.65C1651.62 61.96 1654.1 37.6 1654.1 37.6Z" fill="#365447"/>
</svg>
