<svg width="2119" height="1924" viewBox="0 0 2119 1924" fill="none" xmlns="http://www.w3.org/2000/svg">
<g clip-path="url(#clip0_605_2)">
<path opacity="0.5" d="M394.991 1783.01C789.391 1971 1428.83 1971 1823.18 1783.01C2217.58 1595.02 2217.58 1290.27 1823.18 1102.28C1428.78 914.288 789.342 914.288 394.991 1102.28C0.591457 1290.27 0.591457 1595.02 394.991 1783.01Z" fill="#FFFEF3"/>
<path d="M1865.79 1393.28C1759.38 1444.02 1586.81 1444.02 1480.4 1393.28C1374 1342.59 1374 1260.32 1480.4 1209.58C1586.81 1158.88 1759.38 1158.88 1865.79 1209.58C1972.2 1260.32 1972.2 1342.54 1865.79 1393.28Z" fill="#EBEBEB"/>
<path d="M1260.94 1818.58C1188.13 1853.26 1070.09 1853.26 997.281 1818.58C924.47 1783.89 924.47 1727.63 997.281 1692.9C1070.09 1658.22 1188.13 1658.22 1260.94 1692.9C1333.75 1727.59 1333.75 1783.89 1260.94 1818.58Z" fill="#EBEBEB"/>
<path d="M281.686 1375.35L321.688 1352.24C321.688 1352.24 342.871 1258 311.343 1138.29C279.814 1018.58 189.072 929.067 141.582 947.837C94.0926 966.606 95.472 1002.03 121.581 1037.94C143.257 1067.75 213.555 1139.42 247.399 1222.29C281.243 1305.15 281.686 1375.35 281.686 1375.35Z" fill="#1AA58F"/>
<path opacity="0.1" d="M281.686 1375.35L321.688 1352.24C321.688 1352.24 342.871 1258 311.343 1138.29C279.814 1018.58 189.072 929.067 141.582 947.837C94.0926 966.606 95.472 1002.03 121.581 1037.94C143.257 1067.75 213.555 1139.42 247.399 1222.29C281.243 1305.15 281.686 1375.35 281.686 1375.35Z" fill="#222222"/>
<path d="M303.018 1365.5C303.018 1365.5 302.771 1365.5 302.673 1365.5C301.343 1365.3 300.407 1364.07 300.554 1362.74C327.945 1165.68 205.772 1006.36 150.204 973.109C149.021 972.419 148.677 970.892 149.366 969.71C150.056 968.527 151.583 968.183 152.765 968.872C209.172 1002.62 333.167 1164.06 305.431 1363.38C305.284 1364.61 304.2 1365.5 303.018 1365.5Z" fill="#EDEEDC"/>
<path d="M281.686 1375.35L221.635 1410.03C221.635 1410.03 207.151 1401.66 181.633 1398.45C156.115 1395.25 139.07 1370.62 141.632 1352.24C143.356 1339.83 147.297 1325.69 145.376 1313.18C143.701 1301.95 132.814 1291.85 122.665 1287.91C114.241 1284.65 104.98 1284.51 95.9648 1284.06C81.5307 1283.37 66.5547 1281.75 54.239 1274.21C41.9232 1266.67 33.1051 1251.6 37.0462 1237.71C39.1645 1230.32 44.3864 1224.31 49.6083 1218.69C54.8301 1213.07 60.2983 1207.36 63.0571 1200.22C68.3775 1186.27 58.9682 1177.46 47.7855 1171C8.52289 1148.34 -9.35959 1130.46 4.7789 1113.31C18.9174 1096.17 57.983 1088.68 97.9353 1109.67C137.888 1130.61 170.992 1108.14 197.397 1112.58C238.631 1119.47 241.094 1148.64 235.97 1174.01C230.847 1199.33 281.834 1210.07 294.643 1240.37C303.953 1262.39 311.737 1334.95 281.686 1375.4V1375.35Z" fill="#1AA58F"/>
<path d="M261.686 1389.39C260.356 1389.39 259.272 1388.35 259.223 1387.02C254.444 1246.38 74.0429 1123.71 31.5289 1116.71C30.1988 1116.52 29.2628 1115.24 29.5092 1113.91C29.7062 1112.58 30.987 1111.64 32.3171 1111.89C77.0972 1119.28 259.173 1241.01 264.149 1386.93C264.149 1388.31 263.114 1389.44 261.784 1389.49H261.686V1389.39Z" fill="#EDEEDC"/>
<path d="M1034.77 1643.64C1032.8 1619.01 1013.78 1576.94 985.655 1546.98C957.526 1517.03 912.451 1502.6 884.666 1514.67C858.803 1525.9 864.468 1560.58 898.608 1581.12C932.747 1601.67 983.636 1626.79 1001.03 1665.66L1034.77 1712.31V1643.64Z" fill="#1AA58F"/>
<path opacity="0.1" d="M1034.77 1643.64C1032.8 1619.01 1013.78 1576.94 985.655 1546.98C957.526 1517.03 912.451 1502.6 884.666 1514.67C858.803 1525.9 864.468 1560.58 898.608 1581.12C932.747 1601.67 983.636 1626.79 1001.03 1665.66L1034.77 1712.31V1643.64Z" fill="#222222"/>
<path d="M1034.77 1688.57C1034.77 1688.57 1035.07 1688.57 1035.21 1688.57C1037.09 1688.32 1038.37 1686.6 1038.12 1684.77C1025.81 1593.54 933.043 1529.99 896.194 1522.99C894.371 1522.65 892.598 1523.88 892.253 1525.65C891.908 1527.48 893.091 1529.25 894.913 1529.59C929.299 1536.15 1019.75 1598.96 1031.42 1685.66C1031.67 1687.34 1033.1 1688.57 1034.77 1688.57Z" fill="#EDEEDC"/>
<path d="M1031.08 1745.37C1026 1731.82 1007.23 1710.34 978.365 1693.64C946.393 1675.17 907.327 1668.67 897.179 1653.1C885.011 1634.43 899.987 1614.62 931.417 1616C962.847 1617.38 1020.93 1655.41 1034.82 1718.62L1031.13 1745.42L1031.08 1745.37Z" fill="#1AA58F"/>
<path d="M1033.29 1732.31C1033.29 1732.31 1033.74 1732.31 1033.93 1732.27C1035.76 1731.87 1036.94 1730.1 1036.59 1728.27C1027.28 1681.47 959.447 1633 915.603 1630.98C913.879 1630.98 912.155 1632.36 912.056 1634.18C911.958 1636.05 913.436 1637.63 915.258 1637.73C955.95 1639.6 1021.32 1686.25 1029.94 1729.6C1030.29 1731.23 1031.67 1732.31 1033.24 1732.31H1033.29Z" fill="#EDEEDC"/>
<path d="M238.63 1411.8C233.112 1408.6 229.861 1400.67 231.339 1394.02L406.026 620.872C407.503 614.222 413.514 606.093 419.425 602.694L1458.63 2.66019C1464.54 -0.739015 1473.75 -0.93607 1479.32 2.26608C1484.84 5.46823 1488.09 13.3997 1486.61 20.0503L1311.92 793.197C1310.45 799.848 1304.44 807.977 1298.52 811.376L259.271 1411.41C253.359 1414.81 244.147 1415.01 238.58 1411.8H238.63Z" fill="#FFFEF3"/>
<path d="M426.027 632.4L251.34 1405.55C249.862 1412.2 253.409 1414.81 259.271 1411.41L1298.52 811.376C1304.44 807.976 1310.4 799.848 1311.92 793.197L1486.61 20.0503C1488.09 13.3996 1484.54 10.7887 1478.68 14.1879L439.426 614.222C433.515 617.621 427.554 625.749 426.027 632.4Z" fill="#EDEEDC"/>
<path d="M1499.32 13.843C1493.8 10.6408 1484.54 10.8379 1478.63 14.2371L439.425 614.222C433.514 617.621 429.524 625.848 430.509 632.597L567.115 1590.24C568.051 1596.99 573.322 1605.02 578.84 1608.22C584.357 1611.42 593.619 1611.22 599.53 1607.82L1638.78 1007.79C1644.69 1004.39 1648.68 996.164 1647.7 989.464L1511.04 31.8243C1510.11 25.0751 1504.84 17.0451 1499.32 13.843Z" fill="#FFFEF3"/>
<path d="M450.51 644.125L587.116 1601.77C588.052 1608.51 593.619 1611.22 599.53 1607.78L1638.78 1007.74C1644.69 1004.34 1648.69 996.115 1647.7 989.415L1511.04 31.8245C1510.11 25.0753 1504.54 22.3658 1498.63 25.765L459.426 625.799C453.515 629.198 449.525 637.425 450.51 644.125Z" fill="#FAFAFA"/>
<path d="M252.275 1401.46L518.246 1247.8L526.178 1303.52L404.203 1373.97C404.203 1373.97 371.689 1385.5 358.782 1388.7C345.826 1391.9 252.275 1401.46 252.275 1401.46Z" fill="#EBEBEB"/>
<path d="M526.178 1303.57L566.081 1583.39L404.203 1373.97L526.178 1303.57Z" fill="#EDEEDC"/>
<path d="M561.302 1592.7L416.223 1404.27C412.085 1398.9 403.267 1395.3 396.518 1396.29L260.798 1415.89C254.049 1416.88 244.147 1415.06 238.58 1411.85C233.063 1408.65 233.999 1405.05 240.649 1403.72L396.567 1373.72C403.267 1372.44 411.937 1375.84 416.026 1381.26L581.451 1604.08C585.491 1609.55 584.308 1611.37 578.791 1608.17C573.273 1604.97 565.44 1598.02 561.253 1592.65L561.302 1592.7Z" fill="#EBEBEB"/>
<path d="M1486.91 16.2571C1486.81 10.641 1483.8 4.82785 1479.32 2.26613C1473.75 -0.886753 1464.54 -0.738961 1458.63 2.66025L419.376 602.694C416.518 604.32 413.661 607.128 411.247 610.281C408.735 613.631 406.764 617.473 405.976 620.872L381.345 730.09L401.346 741.569L1461.93 129.268L1486.61 20.0997C1486.95 18.671 1486.91 17.4394 1486.91 16.3063V16.2571Z" fill="#1AA58F"/>
<path opacity="0.2" d="M1486.61 20.0505C1488.09 13.3999 1484.54 10.7889 1478.68 14.1881L439.426 614.222C433.514 617.621 427.554 625.75 426.026 632.4L401.346 741.569L1461.93 129.268L1486.61 20.0998V20.0505Z" fill="#222222"/>
<path opacity="0.1" d="M431.248 621.858C428.736 625.208 426.765 629.001 426.026 632.4L401.346 741.569L381.345 730.09L405.976 620.872C406.764 617.473 408.735 613.631 411.247 610.281L431.248 621.858Z" fill="#222222"/>
<path opacity="0.4" d="M1486.91 16.2571C1486.41 12.5623 1483.21 11.577 1478.63 14.2373L439.376 614.222C436.519 615.847 433.612 618.656 431.248 621.858L411.247 610.281C413.661 607.128 416.518 604.32 419.375 602.694L1458.63 2.66024C1464.54 -0.738961 1473.75 -0.886753 1479.32 2.26613C1483.8 4.82785 1486.81 10.641 1486.91 16.2571Z" fill="#EDEEDC"/>
<path d="M1512.32 40.9874L1511.04 31.8243C1510.99 31.3809 1510.85 30.9375 1510.75 30.4942C1510.75 30.3956 1510.75 30.2479 1510.65 30.1001C1509.12 23.7943 1504.34 16.7988 1499.27 13.843C1493.75 10.6408 1484.49 10.8379 1478.58 14.2371L439.425 614.222C436.42 615.946 433.908 619 432.282 622.399C430.755 625.651 430.065 629.247 430.508 632.548L450.115 769.748L470.116 781.325L1530.7 169.024L1512.37 40.9381L1512.32 40.9874Z" fill="#1AA58F"/>
<path opacity="0.1" d="M470.067 781.374L450.066 769.797L430.46 632.597C430.016 629.296 430.706 625.7 432.233 622.449L452.283 633.976C450.707 637.228 450.017 640.873 450.46 644.125L470.067 781.374Z" fill="#222222"/>
<path opacity="0.4" d="M1510.7 30.1001C1509.07 24.6318 1504 22.6612 1498.68 25.7648L459.427 625.799C456.422 627.523 453.86 630.528 452.283 633.976L432.233 622.449C433.859 619 436.372 615.995 439.377 614.222L1478.63 14.2371C1484.54 10.8379 1493.8 10.6408 1499.32 13.843C1504.39 16.7988 1509.22 23.745 1510.7 30.1001Z" fill="#EDEEDC"/>
<path d="M745.989 1443.14L733.526 1355.89C732.737 1350.52 728.304 1348.35 723.624 1351.06L633.029 1403.38C628.3 1406.09 625.098 1412.69 625.886 1418.06L638.349 1505.31C639.138 1510.68 643.571 1512.84 648.251 1510.13L738.846 1457.82C743.575 1455.11 746.777 1448.51 745.989 1443.14Z" fill="#1AA58F"/>
<path d="M886.094 1362.34L873.63 1275.1C872.842 1269.73 868.408 1267.56 863.728 1270.27L773.133 1322.59C768.404 1325.3 765.202 1331.9 765.99 1337.27L778.454 1424.51C779.242 1429.88 783.676 1432.05 788.356 1429.34L878.95 1377.02C883.68 1374.31 886.882 1367.71 886.094 1362.34Z" fill="#EDEEDC"/>
<path d="M1026.2 1281.55L1013.73 1194.3C1012.95 1188.93 1008.51 1186.77 1003.83 1189.48L913.237 1241.79C908.508 1244.5 905.306 1251.1 906.094 1256.47L918.557 1343.72C919.346 1349.09 923.779 1351.26 928.459 1348.55L1019.05 1296.23C1023.78 1293.52 1026.99 1286.92 1026.2 1281.55Z" fill="#EDEEDC"/>
<path d="M1166.3 1200.76L1153.84 1113.51C1153.05 1108.14 1148.62 1105.97 1143.94 1108.68L1053.34 1161C1048.61 1163.71 1045.41 1170.31 1046.2 1175.68L1058.66 1262.93C1059.45 1268.3 1063.88 1270.47 1068.56 1267.76L1159.16 1215.44C1163.89 1212.73 1167.09 1206.13 1166.3 1200.76Z" fill="#FFFEF3"/>
<path d="M1306.41 1119.96L1293.94 1032.72C1293.15 1027.35 1288.72 1025.18 1284.04 1027.89L1193.45 1080.21C1188.72 1082.92 1185.51 1089.52 1186.3 1094.89L1198.77 1182.14C1199.55 1187.51 1203.99 1189.67 1208.67 1186.96L1299.26 1134.65C1303.99 1131.94 1307.19 1125.33 1306.41 1119.96Z" fill="#EDEEDC"/>
<path d="M1446.51 1039.17L1434.05 951.925C1433.26 946.556 1428.82 944.388 1424.14 947.098L1333.55 999.416C1328.82 1002.13 1325.62 1008.73 1326.41 1014.1L1338.87 1101.34C1339.66 1106.71 1344.09 1108.88 1348.77 1106.17L1439.37 1053.85C1444.1 1051.14 1447.3 1044.54 1446.51 1039.17Z" fill="#EDEEDC"/>
<path d="M1586.61 958.428L1574.15 871.182C1573.36 865.812 1568.93 863.645 1564.25 866.354L1473.65 918.672C1468.92 921.382 1465.72 927.983 1466.51 933.353L1478.97 1020.6C1479.76 1025.97 1484.2 1028.14 1488.88 1025.43L1579.47 973.109C1584.2 970.399 1587.4 963.798 1586.61 958.428Z" fill="#EDEEDC"/>
<path d="M721.653 1272.44L709.19 1185.19C708.401 1179.82 703.968 1177.65 699.288 1180.36L608.693 1232.68C603.964 1235.39 600.762 1241.99 601.55 1247.36L614.013 1334.61C614.802 1339.98 619.235 1342.14 623.915 1339.44L714.51 1287.12C719.239 1284.41 722.441 1277.81 721.653 1272.44Z" fill="#1AA58F"/>
<path d="M861.758 1191.64L849.294 1104.4C848.506 1099.03 844.072 1096.86 839.392 1099.57L748.798 1151.89C744.068 1154.6 740.866 1161.2 741.654 1166.57L754.118 1253.81C754.906 1259.18 759.34 1261.35 764.02 1258.64L854.615 1206.32C859.344 1203.61 862.546 1197.01 861.758 1191.64Z" fill="#EDEEDC"/>
<path d="M1001.86 1110.85L989.398 1023.6C988.609 1018.23 984.176 1016.07 979.496 1018.78L888.901 1071.09C884.172 1073.8 880.97 1080.41 881.758 1085.78L894.221 1173.02C895.01 1178.39 899.443 1180.56 904.123 1177.85L994.718 1125.53C999.447 1122.82 1002.65 1116.22 1001.86 1110.85Z" fill="#EDEEDC"/>
<path d="M1141.97 1030.06L1129.5 942.812C1128.71 937.442 1124.28 935.274 1119.6 937.984L1029.01 990.302C1024.28 993.012 1021.07 999.613 1021.86 1004.98L1034.33 1092.23C1035.11 1097.6 1039.55 1099.77 1044.23 1097.06L1134.82 1044.74C1139.55 1042.03 1142.75 1035.43 1141.97 1030.06Z" fill="#FFFEF3"/>
<path d="M1282.07 949.265L1269.61 862.019C1268.82 856.649 1264.38 854.482 1259.7 857.191L1169.11 909.509C1164.38 912.219 1161.18 918.82 1161.97 924.19L1174.43 1011.44C1175.22 1016.81 1179.65 1018.97 1184.33 1016.26L1274.93 963.946C1279.66 961.236 1282.86 954.635 1282.07 949.265Z" fill="#EDEEDC"/>
<path d="M1422.17 868.473L1409.71 781.226C1408.92 775.857 1404.49 773.689 1399.81 776.398L1309.21 828.717C1304.48 831.426 1301.28 838.027 1302.07 843.397L1314.53 930.644C1315.32 936.013 1319.76 938.181 1324.44 935.471L1415.03 883.153C1419.76 880.444 1422.96 873.842 1422.17 868.473Z" fill="#EDEEDC"/>
<path d="M1562.28 787.68L1549.81 700.434C1549.03 695.064 1544.59 692.896 1539.91 695.606L1449.32 747.924C1444.59 750.633 1441.39 757.235 1442.17 762.605L1454.64 849.851C1455.43 855.221 1459.86 857.388 1464.54 854.679L1555.13 802.36C1559.86 799.651 1563.07 793.05 1562.28 787.68Z" fill="#EDEEDC"/>
<path d="M697.317 1101.69L684.854 1014.44C684.066 1009.07 679.632 1006.9 674.952 1009.61L584.357 1061.93C579.628 1064.64 576.426 1071.24 577.214 1076.61L589.678 1163.86C590.466 1169.23 594.899 1171.4 599.579 1168.69L690.174 1116.37C694.903 1113.66 698.105 1107.06 697.317 1101.69Z" fill="#1AA58F"/>
<path d="M837.422 1020.89L824.958 933.649C824.17 928.279 819.736 926.111 815.056 928.821L724.462 981.139C719.732 983.849 716.53 990.45 717.318 995.82L729.782 1083.07C730.57 1088.44 735.004 1090.6 739.684 1087.89L830.279 1035.58C835.008 1032.87 838.21 1026.26 837.422 1020.89Z" fill="#EDEEDC"/>
<path d="M977.525 940.152L965.062 852.905C964.273 847.536 959.84 845.368 955.16 848.077L864.565 900.396C859.836 903.105 856.634 909.706 857.422 915.076L869.886 1002.32C870.674 1007.69 875.107 1009.86 879.787 1007.15L970.382 954.832C975.111 952.123 978.313 945.521 977.525 940.152Z" fill="#EDEEDC"/>
<path d="M1117.63 859.359L1105.17 772.112C1104.38 766.743 1099.94 764.575 1095.26 767.285L1004.67 819.603C999.94 822.312 996.738 828.914 997.526 834.284L1009.99 921.53C1010.78 926.9 1015.21 929.067 1019.89 926.358L1110.49 874.039C1115.22 871.33 1118.42 864.729 1117.63 859.359Z" fill="#EDEEDC"/>
<path d="M1257.73 778.566L1245.27 691.32C1244.48 685.95 1240.05 683.782 1235.37 686.492L1144.77 738.81C1140.04 741.52 1136.84 748.121 1137.63 753.491L1150.09 840.737C1150.88 846.107 1155.32 848.274 1160 845.565L1250.59 793.247C1255.32 790.537 1258.52 783.936 1257.73 778.566Z" fill="#EDEEDC"/>
<path d="M1397.84 697.773L1385.37 610.527C1384.59 605.157 1380.15 602.99 1375.47 605.699L1284.88 658.017C1280.15 660.727 1276.95 667.328 1277.73 672.698L1290.2 759.944C1290.99 765.314 1295.42 767.482 1300.1 764.772L1390.69 712.454C1395.42 709.744 1398.63 703.143 1397.84 697.773Z" fill="#EDEEDC"/>
<path d="M1537.89 616.981L1525.43 529.734C1524.64 524.365 1520.21 522.197 1515.53 524.906L1424.93 577.225C1420.2 579.934 1417 586.536 1417.79 591.905L1430.25 679.152C1431.04 684.521 1435.47 686.689 1440.15 683.979L1530.75 631.661C1535.48 628.952 1538.68 622.35 1537.89 616.981Z" fill="#EDEEDC"/>
<path d="M672.933 930.988L660.469 843.742C659.681 838.372 655.247 836.205 650.567 838.914L559.972 891.233C555.243 893.942 552.041 900.543 552.829 905.913L565.293 993.159C566.081 998.529 570.515 1000.7 575.195 997.987L665.789 945.669C670.519 942.96 673.721 936.358 672.933 930.988Z" fill="#1AA58F"/>
<path d="M813.037 850.196L800.573 762.949C799.785 757.58 795.352 755.412 790.672 758.122L700.077 810.44C695.348 813.149 692.146 819.751 692.934 825.12L705.397 912.367C706.185 917.736 710.619 919.904 715.299 917.195L805.894 864.876C810.623 862.167 813.825 855.565 813.037 850.196Z" fill="#EDEEDC"/>
<path d="M953.14 769.403L940.677 682.157C939.889 676.787 935.455 674.619 930.775 677.329L840.18 729.647C835.451 732.357 832.249 738.958 833.037 744.328L845.501 831.574C846.289 836.944 850.723 839.111 855.403 836.402L945.997 784.084C950.727 781.374 953.929 774.773 953.14 769.403Z" fill="#EDEEDC"/>
<path d="M1093.25 688.61L1080.78 601.364C1079.99 595.994 1075.56 593.827 1070.88 596.536L980.285 648.854C975.556 651.564 972.354 658.165 973.142 663.535L985.605 750.781C986.394 756.151 990.827 758.319 995.507 755.609L1086.1 703.291C1090.83 700.581 1094.03 693.98 1093.25 688.61Z" fill="#EDEEDC"/>
<path d="M1233.35 607.867L1220.88 520.621C1220.1 515.251 1215.66 513.083 1210.98 515.793L1120.39 568.111C1115.66 570.82 1112.46 577.422 1113.25 582.792L1125.71 670.038C1126.5 675.408 1130.93 677.575 1135.61 674.866L1226.21 622.548C1230.93 619.838 1234.14 613.237 1233.35 607.867Z" fill="#EDEEDC"/>
<path d="M1373.45 527.074L1360.99 439.828C1360.2 434.458 1355.77 432.29 1351.09 435L1260.49 487.318C1255.76 490.028 1252.56 496.629 1253.35 501.999L1265.81 589.245C1266.6 594.615 1271.04 596.782 1275.72 594.073L1366.31 541.755C1371.04 539.045 1374.24 532.444 1373.45 527.074Z" fill="#EDEEDC"/>
<path d="M1513.56 446.281L1501.09 359.035C1500.3 353.665 1495.87 351.498 1491.19 354.207L1400.6 406.525C1395.87 409.235 1392.67 415.836 1393.45 421.206L1405.92 508.452C1406.71 513.822 1411.14 515.99 1415.82 513.28L1506.41 460.962C1511.14 458.253 1514.34 451.651 1513.56 446.281Z" fill="#EDEEDC"/>
<path d="M651.405 776.792L648.301 754.525C647.513 749.155 643.079 746.988 638.399 749.697L547.804 802.016C543.075 804.725 539.873 811.326 540.661 816.696L543.765 838.963C544.553 844.333 548.987 846.501 553.667 843.791L644.261 791.473C648.991 788.764 652.193 782.162 651.405 776.792Z" fill="#EDEEDC"/>
<path d="M791.509 696L788.405 673.732C787.617 668.363 783.184 666.195 778.504 668.905L687.909 721.223C683.18 723.932 679.978 730.534 680.766 735.903L683.869 758.171C684.658 763.54 689.091 765.708 693.771 762.999L784.366 710.68C789.095 707.971 792.297 701.369 791.509 696Z" fill="#EDEEDC"/>
<path d="M931.613 615.207L928.509 592.94C927.721 587.57 923.287 585.402 918.607 588.112L828.012 640.43C823.283 643.14 820.081 649.741 820.869 655.111L823.973 677.378C824.761 682.748 829.195 684.915 833.875 682.206L924.469 629.888C929.199 627.178 932.401 620.577 931.613 615.207Z" fill="#EDEEDC"/>
<path d="M1071.72 534.414L1068.61 512.147C1067.83 506.777 1063.39 504.61 1058.71 507.319L968.117 559.637C963.388 562.347 960.186 568.948 960.974 574.318L964.077 596.585C964.865 601.955 969.299 604.123 973.979 601.413L1064.57 549.095C1069.3 546.385 1072.51 539.784 1071.72 534.414Z" fill="#EDEEDC"/>
<path d="M1211.82 453.621L1208.72 431.354C1207.93 425.984 1203.5 423.817 1198.82 426.526L1108.22 478.845C1103.49 481.554 1100.29 488.155 1101.08 493.525L1104.18 515.792C1104.97 521.162 1109.4 523.33 1114.08 520.62L1204.68 468.302C1209.41 465.593 1212.61 458.991 1211.82 453.621Z" fill="#EDEEDC"/>
<path d="M1351.93 372.829L1348.82 350.561C1348.03 345.192 1343.6 343.024 1338.92 345.734L1248.32 398.052C1243.6 400.761 1240.39 407.363 1241.18 412.732L1244.29 435C1245.07 440.37 1249.51 442.537 1254.19 439.828L1344.78 387.509C1349.51 384.8 1352.71 378.199 1351.93 372.829Z" fill="#EDEEDC"/>
<path d="M1492.03 292.085L1488.92 269.818C1488.14 264.448 1483.7 262.281 1479.02 264.99L1388.43 317.308C1383.7 320.018 1380.5 326.619 1381.29 331.989L1384.39 354.256C1385.18 359.626 1389.61 361.794 1394.29 359.084L1484.89 306.766C1489.61 304.056 1492.82 297.455 1492.03 292.085Z" fill="#EDEEDC"/>
<path opacity="0.2" d="M545.784 645.258C544.109 633.484 551.696 618.754 562.731 612.35C573.766 605.945 584.111 610.33 585.786 622.153C587.461 633.977 579.874 648.657 568.84 655.062C557.805 661.466 547.459 657.032 545.784 645.258Z" fill="#222222"/>
<path opacity="0.2" d="M685.988 564.318C684.313 552.543 691.899 537.814 702.934 531.409C713.969 525.005 724.314 529.439 725.989 541.213C727.664 552.987 720.078 567.717 709.043 574.121C698.008 580.525 687.662 576.141 685.988 564.318Z" fill="#222222"/>
<path opacity="0.2" d="M825.944 483.475C824.269 471.701 831.855 456.972 842.89 450.567C853.925 444.163 864.27 448.597 865.945 460.371C867.62 472.145 860.034 486.875 848.999 493.279C837.964 499.683 827.619 495.299 825.944 483.475Z" fill="#222222"/>
<path opacity="0.2" d="M1106.05 321.791C1104.38 310.017 1111.96 295.287 1123 288.883C1134.03 282.479 1144.38 286.913 1146.05 298.687C1147.73 310.461 1140.14 325.191 1129.11 331.595C1118.07 337.999 1107.73 333.615 1106.05 321.791Z" fill="#222222"/>
<path opacity="0.2" d="M1246.26 240.851C1244.58 229.077 1252.17 214.347 1263.2 207.943C1274.24 201.538 1284.58 205.972 1286.26 217.746C1287.93 229.52 1280.35 244.25 1269.31 250.654C1258.28 257.059 1247.93 252.674 1246.26 240.851Z" fill="#222222"/>
<path opacity="0.2" d="M1386.21 160.009C1384.54 148.235 1392.12 133.505 1403.16 127.101C1414.19 120.696 1424.54 125.081 1426.21 136.904C1427.89 148.728 1420.3 163.408 1409.27 169.813C1398.23 176.217 1387.89 171.783 1386.21 160.009Z" fill="#222222"/>
<path d="M531.252 512.147C516.276 503.526 501.99 502.245 490.955 508.649C479.92 515.004 473.812 528.01 473.812 545.302C473.812 552.987 475.092 561.115 477.358 569.195L486.127 564.17C484.551 557.765 483.664 551.41 483.664 545.302C483.664 531.705 487.999 521.704 495.881 517.172C498.985 515.398 502.532 514.512 506.473 514.512C512.434 514.512 519.183 516.581 526.326 520.67C552.534 535.843 573.865 572.791 573.865 603.039C573.865 605.305 573.766 607.473 573.52 609.492C572.338 619.789 568.249 627.375 561.697 631.169C557.46 633.582 552.435 634.371 546.819 633.533C545.834 636.785 545.391 640.135 545.588 643.287C547.46 643.583 549.332 643.731 551.154 643.731C556.77 643.731 561.992 642.401 566.623 639.691C575.096 634.814 580.614 626.045 582.732 614.37C583.373 610.823 583.717 607.029 583.717 603.039C583.717 569.638 560.17 528.848 531.252 512.147Z" fill="#EDEEDC"/>
<path d="M671.454 431.207C656.478 422.585 642.192 421.305 631.157 427.709C620.122 434.064 614.014 447.07 614.014 464.361C614.014 472.046 615.295 480.175 617.561 488.254L626.329 483.229C624.753 476.825 623.866 470.47 623.866 464.361C623.866 450.764 628.201 440.764 636.083 436.232C639.187 434.458 642.734 433.571 646.675 433.571C652.636 433.571 659.385 435.64 666.528 439.729C692.736 454.903 714.067 491.85 714.067 522.098C714.067 524.365 713.968 526.532 713.722 528.552C712.54 538.848 708.451 546.435 701.899 550.228C697.662 552.642 692.638 553.43 687.022 552.593C686.036 555.844 685.593 559.194 685.79 562.347C687.662 562.643 689.534 562.79 691.357 562.79C696.973 562.79 702.194 561.46 706.825 558.751C715.298 553.874 720.816 545.105 722.934 533.429C723.575 529.882 723.919 526.089 723.919 522.098C723.919 488.698 700.372 447.907 671.454 431.207Z" fill="#EDEEDC"/>
<path d="M811.411 350.414C796.435 341.793 782.149 340.512 771.114 346.916C760.079 353.271 753.971 366.277 753.971 383.568C753.971 391.254 755.252 399.382 757.518 407.461L766.286 402.437C764.71 396.032 763.823 389.677 763.823 383.568C763.823 369.972 768.158 359.971 776.041 355.439C779.144 353.665 782.691 352.779 786.632 352.779C792.593 352.779 799.342 354.848 806.485 358.937C832.693 374.11 854.024 411.058 854.024 441.306C854.024 443.572 853.925 445.739 853.679 447.759C852.497 458.055 848.408 465.642 841.856 469.435C837.619 471.849 832.594 472.638 826.978 471.8C825.993 475.051 825.55 478.401 825.747 481.554C827.619 481.85 829.491 481.998 831.314 481.998C836.93 481.998 842.152 480.668 846.782 477.958C855.255 473.081 860.773 464.312 862.891 452.636C863.532 449.089 863.877 445.296 863.877 441.306C863.877 407.905 840.329 367.114 811.411 350.414Z" fill="#EDEEDC"/>
<path d="M1091.57 188.878C1076.59 180.256 1062.31 178.975 1051.27 185.38C1040.24 191.735 1034.13 204.74 1034.13 222.032C1034.13 229.717 1035.41 237.846 1037.68 245.925L1046.44 240.9C1044.87 234.496 1043.98 228.141 1043.98 222.032C1043.98 208.435 1048.32 198.435 1056.2 193.902C1059.3 192.129 1062.85 191.242 1066.79 191.242C1072.75 191.242 1079.5 193.311 1086.64 197.4C1112.85 212.573 1134.18 249.521 1134.18 279.769C1134.18 282.035 1134.08 284.203 1133.84 286.223C1132.65 296.519 1128.57 304.106 1122.01 307.899C1117.78 310.313 1112.75 311.101 1107.14 310.264C1106.15 313.515 1105.71 316.865 1105.91 320.018C1107.78 320.314 1109.65 320.461 1111.47 320.461C1117.09 320.461 1122.31 319.131 1126.94 316.422C1135.41 311.545 1140.93 302.776 1143.05 291.1C1143.69 287.553 1144.03 283.76 1144.03 279.769C1144.03 246.368 1120.49 205.578 1091.57 188.878Z" fill="#EDEEDC"/>
<path d="M1231.77 107.986C1216.8 99.3652 1202.51 98.0844 1191.48 104.489C1180.44 110.844 1174.33 123.849 1174.33 141.141C1174.33 148.826 1175.61 156.955 1177.88 165.034L1186.65 160.009C1185.07 153.605 1184.18 147.25 1184.18 141.141C1184.18 127.544 1188.52 117.544 1196.4 113.011C1199.51 111.238 1203.05 110.351 1206.99 110.351C1212.95 110.351 1219.7 112.42 1226.85 116.509C1253.05 131.682 1274.39 168.63 1274.39 198.878C1274.39 201.144 1274.29 203.312 1274.04 205.332C1272.86 215.628 1268.77 223.215 1262.22 227.008C1257.98 229.422 1252.96 230.21 1247.34 229.373C1246.35 232.624 1245.91 235.974 1246.11 239.127C1247.98 239.422 1249.85 239.57 1251.67 239.57C1257.29 239.57 1262.51 238.24 1267.14 235.531C1275.62 230.653 1281.13 221.884 1283.25 210.209C1283.89 206.662 1284.24 202.869 1284.24 198.878C1284.24 165.477 1260.69 124.687 1231.77 107.986Z" fill="#EDEEDC"/>
<path d="M1371.73 27.1444C1356.75 18.5232 1342.47 17.2423 1331.43 23.6466C1320.4 30.0017 1314.29 43.0073 1314.29 60.2989C1314.29 67.9841 1315.57 76.1127 1317.84 84.1919L1326.6 79.167C1325.03 72.7627 1324.14 66.4077 1324.14 60.2989C1324.14 46.7021 1328.48 36.7016 1336.36 32.1693C1339.46 30.3958 1343.01 29.509 1346.95 29.509C1352.91 29.509 1359.66 31.5781 1366.8 35.667C1393.01 50.8403 1414.34 87.7882 1414.34 118.036C1414.34 120.302 1414.24 122.47 1414 124.49C1412.81 134.786 1408.73 142.373 1402.17 146.166C1397.94 148.58 1392.91 149.368 1387.3 148.531C1386.31 151.782 1385.87 155.132 1386.06 158.285C1387.94 158.58 1389.81 158.728 1391.63 158.728C1397.25 158.728 1402.47 157.398 1407.1 154.689C1415.57 149.811 1421.09 141.042 1423.21 129.367C1423.85 125.82 1424.19 122.027 1424.19 118.036C1424.19 84.6353 1400.65 43.8448 1371.73 27.1444Z" fill="#EDEEDC"/>
<path d="M1517.3 1308.65L1484.2 1366.14C1479.76 1373.57 1482.18 1383.18 1489.61 1387.62C1497.05 1392.05 1506.66 1389.64 1511.09 1382.2L1544.4 1324.36C1547.6 1318.84 1544.15 1310.81 1536.66 1306.48C1529.17 1302.14 1520.5 1303.08 1517.3 1308.65Z" fill="#365447"/>
<path d="M1780.76 1207.21L1838.25 1240.32C1845.69 1244.75 1855.29 1242.34 1859.73 1234.9C1864.16 1227.46 1861.75 1217.85 1854.31 1213.42L1796.47 1180.12C1790.96 1176.91 1782.93 1180.36 1778.59 1187.85C1774.26 1195.34 1775.24 1204.01 1780.76 1207.21Z" fill="#365447"/>
<path d="M1844.46 948.034L1844.16 947.886L1704.16 867.044C1704.16 867.044 1704.16 867.044 1704.11 867.044L1703.71 866.847C1672.97 849.358 1630.61 852.018 1583.86 879.015C1489.91 933.255 1413.75 1065.13 1413.75 1173.61C1413.75 1227.7 1432.67 1265.69 1463.31 1283.57L1463.6 1283.72L1603.66 1364.56L1604 1364.76C1634.74 1382.29 1677.11 1379.68 1723.91 1352.64C1817.85 1298.4 1894.02 1166.52 1894.02 1058.04C1894.02 1003.95 1875.1 965.966 1844.46 948.083V948.034Z" fill="#1AA58F"/>
<path opacity="0.1" d="M1601.39 1363.13L1463.6 1283.62H1463.55L1463.26 1283.42C1432.67 1265.54 1413.75 1227.51 1413.75 1173.51C1413.75 1125.14 1428.92 1072.13 1454 1023.46L1594.05 1104.3C1568.93 1152.97 1553.8 1205.98 1553.8 1254.36C1553.8 1307.27 1571.93 1344.8 1601.39 1363.13Z" fill="#222222"/>
<path opacity="0.4" d="M1844.16 1225.6C1910.59 1110.55 1910.59 986.186 1844.17 947.837C1777.75 909.488 1670.06 971.671 1603.63 1086.73C1537.2 1201.78 1537.2 1326.14 1603.62 1364.49C1670.04 1402.84 1777.74 1340.66 1844.16 1225.6Z" fill="#EDEEDC"/>
<path d="M1647.95 1341.31C1594.1 1341.31 1588.29 1280.52 1588.29 1254.36C1588.29 1158.69 1658.29 1037.45 1741.15 989.612C1762.24 977.444 1782.53 970.991 1799.87 970.991C1853.72 970.991 1859.53 1031.78 1859.53 1057.94C1859.53 1153.61 1789.53 1274.85 1706.67 1322.69C1685.58 1334.85 1665.29 1341.31 1647.95 1341.31Z" fill="#FAFAFA"/>
<path d="M1686.17 1266.97C1685.93 1266.97 1685.63 1266.97 1685.39 1266.82C1684.11 1266.38 1683.42 1264.95 1683.86 1263.67L1721.55 1156.03C1721.99 1154.75 1723.42 1154.06 1724.7 1154.5C1725.98 1154.94 1726.67 1156.37 1726.23 1157.65L1688.54 1265.29C1688.19 1266.33 1687.21 1266.92 1686.22 1266.92L1686.17 1266.97Z" fill="#1AA58F"/>
<path d="M1780.37 1188.69C1779.38 1188.69 1778.39 1188.49 1777.46 1188.1L1716.52 1161.74V1051.19C1716.52 1047.1 1719.82 1043.8 1723.91 1043.8C1728 1043.8 1731.3 1047.1 1731.3 1051.19V1152.04L1783.32 1174.55C1787.07 1176.17 1788.79 1180.51 1787.16 1184.25C1785.93 1187.06 1783.22 1188.69 1780.37 1188.69Z" fill="#263C32"/>
<path d="M1723.91 1133.07C1734.94 1126.66 1743.91 1131.84 1743.91 1144.65C1743.91 1157.45 1734.94 1172.92 1723.91 1179.33C1712.88 1185.73 1703.91 1180.56 1703.91 1167.75C1703.91 1154.99 1712.88 1139.47 1723.91 1133.07Z" fill="#1AA58F"/>
<path d="M1561.14 1053.7C1537.01 1095.48 1491.54 1114.35 1457.4 1094.59C1415.62 1070.45 1401.34 1017 1425.47 975.277C1449.61 933.501 1503.21 918.968 1544.79 943.354C1578.83 963.306 1585.28 1011.93 1561.14 1053.7Z" fill="#365447"/>
<path d="M1457.35 1094.64C1491.54 1114.4 1536.96 1095.53 1561.1 1053.75C1566.71 1044 1570.65 1033.9 1572.97 1023.85C1571.59 1025.67 1531.39 1076.91 1481.44 1062.47C1430.6 1047.79 1420.99 1008.63 1425.38 975.326C1401.24 1017.1 1415.52 1070.55 1457.3 1094.69L1457.35 1094.64Z" fill="#263C32"/>
<path d="M1443.31 966.754L1417.4 951.778C1409.96 947.344 1400.35 949.758 1395.92 957.197C1391.48 964.636 1393.9 974.242 1401.34 978.676L1427.54 993.849C1433.06 997.051 1441.09 993.603 1445.43 986.115C1449.76 978.627 1448.83 969.956 1443.26 966.754H1443.31Z" fill="#1AA58F"/>
<path d="M1829.88 841.821L1844.85 815.908C1849.28 808.469 1846.87 798.863 1839.43 794.429C1831.99 789.995 1822.39 792.409 1817.95 799.848L1802.78 826.056C1799.58 831.574 1803.03 839.604 1810.51 843.939C1818 848.274 1826.67 847.289 1829.88 841.772V841.821Z" fill="#1AA58F"/>
<path d="M1704.65 852.462C1728.79 810.686 1782.24 796.399 1823.96 820.539C1865.74 844.678 1880.02 898.129 1855.89 939.856L1704.65 852.412V852.462Z" fill="#365447"/>
<path d="M1836.92 829.801C1841.9 840.146 1855.25 883.744 1836.92 894.533C1818.5 905.371 1733.96 869.409 1733.96 869.409L1855.94 939.955C1877.36 902.859 1868.45 856.6 1836.97 829.801H1836.92Z" fill="#263C32"/>
<path d="M1284.04 1079.42C1196.85 962.172 1168.17 949.118 1151.77 945.127L1180.49 1023.75L1240.1 1100.65" fill="#F5B68B"/>
<path d="M1143.25 943.896C1143.25 943.896 1161.77 938.23 1188.52 964.488C1215.27 990.746 1247.88 1029.02 1247.88 1029.02C1247.88 1029.02 1239.11 1060.31 1211.87 1070.01L1172.31 1029.02L1143.2 943.846L1143.25 943.896Z" fill="#1AA58F"/>
<path opacity="0.1" d="M1143.25 943.896C1143.25 943.896 1161.77 938.23 1188.52 964.488C1215.27 990.746 1247.88 1029.02 1247.88 1029.02C1247.88 1029.02 1239.11 1060.31 1211.87 1070.01L1172.31 1029.02L1143.2 943.846L1143.25 943.896Z" fill="#222222"/>
<path d="M1160.25 878.993C1187.15 872.643 1203.81 845.686 1197.46 818.782C1191.11 791.878 1164.16 775.216 1137.25 781.566C1110.35 787.916 1093.69 814.873 1100.04 841.777C1106.39 868.681 1133.35 885.343 1160.25 878.993Z" fill="#365447"/>
<path d="M1028.86 1737.63H1064.13V1677.29H1028.86V1737.63Z" fill="#F5B68B"/>
<path d="M1143.89 1693.79L1179.11 1694.97L1180.88 1631.13L1145.66 1629.89L1143.89 1693.79Z" fill="#F5B68B"/>
<path d="M1031.22 1198.79C1031.22 1232.43 1031.22 1442.69 1031.22 1442.69C1030.39 1452.4 1023.24 1469.15 1021.32 1510.43C1018.96 1560.97 1026.64 1700.19 1026.64 1700.19C1026.64 1700.19 1043.19 1716.6 1066.5 1700.19C1066.5 1700.19 1097.78 1501.46 1104.13 1451.36C1109.65 1407.67 1119.01 1288.89 1119.01 1288.89L1140.09 1467.82C1140.09 1467.82 1134.33 1500.68 1133.1 1523.88C1131.82 1547.08 1143.25 1670.78 1143.25 1670.78C1143.25 1670.78 1161.18 1683.15 1181.62 1672.26C1181.62 1672.26 1205.76 1486.78 1209.41 1465.8C1213.05 1444.86 1196.2 1198.79 1196.2 1198.79H1031.27H1031.22Z" fill="#263C32"/>
<path d="M1065.07 955.177C1060.34 956.014 1054.82 956.852 1050.53 958.527C1040.88 962.32 1036.44 974.242 1034.13 984.784C1032.45 992.371 1031.22 1001.39 1031.22 1011.53V1198.74C1055.95 1225.64 1142.16 1238.15 1196.16 1198.74C1196.16 1198.74 1195.07 1033.41 1191.03 1006.21C1183.99 959.02 1161.42 942.171 1138.71 943.945L1084.28 951.728L1065.07 955.128V955.177Z" fill="#1AA58F"/>
<path d="M1062.21 865.812C1062.21 865.812 1070.34 903.942 1073.59 910.199C1076.84 916.455 1083.54 918.229 1083.54 918.229L1082.95 891.429L1062.16 865.812H1062.21Z" fill="#365447"/>
<path d="M1072.41 811.228C1072.41 811.228 1063.69 809.75 1056.84 816.696C1050.14 823.544 1053.88 844.875 1062.21 865.812L1077.48 867.586L1072.36 811.228H1072.41Z" fill="#365447"/>
<path d="M1082.11 867.586C1079.06 869.409 1074.67 863.546 1070.88 859.556C1067.09 855.615 1054.77 850.196 1048.61 863.152C1042.36 876.355 1054.03 893.844 1063.74 896.849C1080.49 902.12 1083 891.38 1083 891.38L1084.28 951.729C1084.28 951.729 1095.22 978.528 1124.92 982.568C1154.58 986.607 1148.47 962.123 1138.71 950.152V931.777C1138.71 931.777 1153.84 934.092 1161.23 932.959C1173.54 931.038 1181.28 921.333 1185.02 908.032C1191.03 886.651 1193.3 869.359 1188.22 827.288C1182.66 781.177 1129.01 780.684 1100.04 798.912C1071.08 817.14 1082.11 867.586 1082.11 867.586Z" fill="#F5B68B"/>
<path d="M1082.11 872.759C1080.58 872.759 1074.72 863.054 1070.88 859.605C1065.61 854.777 1072.41 811.228 1072.41 811.228C1072.41 811.228 1067.33 800.39 1077.53 789.207C1084.77 781.226 1096.89 780.34 1117.53 777.088C1128.37 775.364 1144.82 772.359 1155.61 770.339C1168.52 767.925 1179.26 765.413 1188.37 773.344C1195.47 779.502 1198.52 790.439 1194.73 799.011C1193.84 801.03 1192.51 802.853 1191.03 804.479C1188.42 807.385 1187.98 811.326 1184.23 812.558C1184.23 812.558 1176.45 819.603 1156.84 822.017C1137.24 824.381 1106.69 821.573 1102.51 820.982C1096.84 820.194 1095.26 822.017 1092.21 837.042C1089.5 850.245 1087.28 872.66 1082.11 872.759Z" fill="#365447"/>
<path d="M1072.46 814.627L1053.93 804.676C1056.54 799.355 1062.85 797.286 1067.97 800.045C1073.1 802.804 1075.12 809.307 1072.46 814.627Z" fill="#365447"/>
<path d="M1138.67 931.826C1138.67 931.826 1111.18 926.308 1101.57 921.185C1095.17 917.786 1089.85 911.825 1088.27 908.031C1088.27 908.031 1090.09 916.16 1095.81 923.55C1102.85 932.516 1138.62 939.166 1138.62 939.166V931.875L1138.67 931.826Z" fill="#C67E4D"/>
<path d="M1133.84 865.763C1133.84 868.916 1131.37 871.478 1128.32 871.478C1125.27 871.478 1122.8 868.916 1122.8 865.763C1122.8 862.61 1125.27 860.048 1128.32 860.048C1131.37 860.048 1133.84 862.61 1133.84 865.763Z" fill="#365447"/>
<path d="M1127.98 844.974L1116.2 851.477C1114.48 848.077 1115.71 843.89 1118.96 842.116C1122.21 840.343 1126.25 841.624 1127.98 844.974Z" fill="#365447"/>
<path d="M1136.2 898.77L1148.76 903.499C1147.53 907.095 1143.69 908.967 1140.24 907.687C1136.79 906.406 1134.97 902.415 1136.2 898.819V898.77Z" fill="#C67E4D"/>
<path d="M1182.9 849.555L1172.16 841.279C1174.33 838.225 1178.52 837.584 1181.52 839.85C1184.48 842.116 1185.12 846.501 1182.9 849.555Z" fill="#365447"/>
<path d="M1179.6 864.187C1179.6 867.339 1177.14 869.901 1174.08 869.901C1171.03 869.901 1168.57 867.339 1168.57 864.187C1168.57 861.034 1171.03 858.472 1174.08 858.472C1177.14 858.472 1179.6 861.034 1179.6 864.187Z" fill="#365447"/>
<path d="M1149.8 853.94L1151.62 887.045L1168.91 881.133L1149.8 853.94Z" fill="#C67E4D"/>
<path d="M1064.13 1720.24V1715.22C1067.48 1716.7 1075.36 1746.6 1089.35 1759.36C1100.49 1769.51 1115.66 1781.23 1119.5 1792.51C1123.49 1804.29 1098.37 1810.79 1087.97 1808.92C1075.9 1806.8 1054.97 1798.28 1049.7 1790.4C1044.43 1782.51 1041.96 1770.89 1037.73 1765.12C1033.44 1759.36 1023.64 1752.91 1021.32 1746.21C1020.04 1742.51 1021.57 1734.48 1023.34 1727.68C1024.97 1721.43 1026.74 1714.58 1028.86 1715.17C1028.86 1715.91 1028.86 1719.01 1028.86 1719.01C1031.42 1721.87 1038.51 1724.68 1046.49 1724.97C1051.67 1725.17 1064.18 1724.14 1064.13 1720.2V1720.24Z" fill="#365447"/>
<path d="M1179.5 1684.13C1181.33 1684.18 1182.81 1686.79 1186.84 1691.13C1191.72 1696.4 1199.7 1702.12 1207.58 1706.06C1220.79 1712.66 1246.45 1722.86 1258.08 1728.08C1265.32 1731.33 1264.98 1740.1 1257.49 1745.12C1250 1750.15 1231.87 1753.69 1210.15 1748.87C1198.32 1746.21 1182.85 1735.27 1173.1 1735.86C1163.35 1736.45 1145.07 1736.3 1137.88 1731.33C1130.68 1726.35 1133.54 1715.76 1135.61 1706.65C1137.83 1696.7 1141.03 1681.47 1144.33 1682.16L1144.23 1685.32C1148.47 1691.72 1170.05 1694.38 1179.36 1689.65L1179.55 1684.23L1179.5 1684.13Z" fill="#365447"/>
<path d="M1118.96 1288.84C1118.96 1288.84 1147.14 1280.91 1168.08 1260.71C1168.08 1260.71 1158.62 1278.45 1130.44 1294.95L1131.03 1391.06L1118.96 1288.89V1288.84Z" fill="#365447"/>
<path d="M1052.16 1287.22C1046.3 1282.19 1042.7 1275.93 1033.88 1269.53C1026.15 1263.86 1023.05 1261.4 1018.41 1253.77C1013.39 1245.49 1008.76 1217.9 1007.08 1191.74C1005.11 1160.85 1013.39 1121.69 1019.25 1105.38C1031.22 1072.33 1055.51 1027.94 1063.59 1009.27C1071.67 990.548 1067.33 981.139 1060.09 971.631C1051.57 960.448 1035.9 960.448 1021.07 985.819C1006.25 1011.19 984.768 1058.63 974.029 1097.2C968.856 1115.92 963.092 1146.52 965.506 1186.18C967.181 1213.91 973.191 1235.09 981.024 1261.75C983.142 1268.99 982.945 1274.95 985.359 1289.28C986.344 1295.05 987.231 1301.45 989.891 1306.63C993.29 1313.23 997.428 1319.53 1002.55 1324.9C1009.01 1331.7 1017.13 1337.12 1026.15 1339.63C1031.12 1341.01 1036.4 1341.5 1041.47 1340.52C1046.54 1339.48 1051.37 1336.87 1054.52 1332.83C1055.16 1332 1055.76 1331.11 1055.9 1330.07C1056.2 1328.2 1054.97 1326.48 1053.83 1324.95C1047.48 1316.48 1039.4 1308.35 1034.03 1299.28C1029.5 1291.65 1027.33 1285.64 1029.06 1285.93C1030.83 1286.28 1033.19 1290.91 1039.75 1295C1046.05 1298.89 1054.52 1298.99 1056.45 1295.29C1058.37 1291.6 1057.92 1292.24 1052.06 1287.22H1052.16Z" fill="#F5B68B"/>
<path d="M1054.52 957.443C1040.43 958.33 1027.63 961.433 1013.54 989.415C999.448 1017.4 977.378 1069.62 977.378 1069.62C977.378 1069.62 992.502 1100.65 1031.22 1100.7C1031.22 1100.7 1063.59 1033.01 1068.91 1015.18C1074.18 997.347 1077.97 968.675 1054.52 957.394V957.443Z" fill="#1AA58F"/>
<path opacity="0.1" d="M1054.52 957.443C1040.43 958.33 1027.63 961.433 1013.54 989.415C999.448 1017.4 977.378 1069.62 977.378 1069.62C977.378 1069.62 992.502 1100.65 1031.22 1100.7C1031.22 1100.7 1063.59 1033.01 1068.91 1015.18C1074.18 997.347 1077.97 968.675 1054.52 957.394V957.443Z" fill="#222222"/>
<path d="M1240.15 1100.7C1236.9 1110.06 1206.2 1138.59 1183.54 1147.65C1179.55 1149.28 1170.98 1150.11 1166.94 1148.69C1161.92 1146.86 1155.56 1144.89 1150.14 1145.43C1143.59 1146.07 1136.84 1147.36 1130.24 1148.09C1128.86 1148.24 1127.43 1148.44 1126.2 1149.08C1122.21 1151.3 1124.48 1154.74 1127.73 1155.93C1132.85 1157.8 1138.17 1159.33 1143.54 1160.46C1143.54 1160.95 1143.54 1161.4 1143.49 1161.89C1129.99 1167.31 1115.27 1168.88 1100.83 1170.46C1098.27 1170.76 1095.51 1171.1 1093.69 1172.92C1091.91 1174.7 1091.52 1177.46 1092.06 1179.87C1092.6 1182.28 1094.03 1184.45 1095.56 1186.42C1101.92 1194.8 1110.54 1202.48 1121.23 1203.91C1131.77 1205.34 1142.66 1202.78 1152.75 1199.97C1157.63 1198.59 1162.41 1197.06 1167.19 1195.39C1178.22 1191.54 1194.78 1184.2 1207.83 1177.21C1241.87 1158.98 1270 1137.65 1285.37 1122.67C1299.56 1108.83 1296.06 1095.53 1284.14 1079.47" fill="#F5B68B"/>
<path d="M1180.49 1148.49C1180.49 1148.49 1185.56 1146.67 1191.03 1155.68C1196.5 1164.7 1200.24 1181.2 1193.15 1184.4C1193.15 1184.4 1200.1 1185.44 1205.61 1178.24C1205.61 1178.24 1211.18 1157.36 1193.15 1143.17C1193.15 1143.17 1184.04 1143.51 1180.54 1148.44L1180.49 1148.49Z" fill="#263C32"/>
<path d="M1206.55 1151.84C1209.36 1156.76 1207.59 1163.07 1202.56 1165.93C1197.54 1168.79 1191.23 1167.11 1188.42 1162.18C1185.61 1157.26 1187.39 1150.95 1192.41 1148.09C1197.44 1145.24 1203.74 1146.91 1206.55 1151.84Z" fill="#1AA58F"/>
<path d="M1204.14 1153.17C1206.21 1156.81 1204.88 1161.44 1201.18 1163.56C1197.49 1165.68 1192.81 1164.4 1190.74 1160.8C1188.67 1157.16 1190 1152.53 1193.69 1150.41C1197.39 1148.29 1202.07 1149.57 1204.14 1153.17Z" fill="#FAFAFA"/>
</g>
<defs>
<clipPath id="clip0_605_2">
<rect width="2119" height="1924" fill="white"/>
</clipPath>
</defs>
</svg>
