<svg width="24" height="24" viewBox="0 0 24 24" fill="none" xmlns="http://www.w3.org/2000/svg">
<path d="M11 21V19.5H19.5V11.9C19.5 10.9333 19.2917 10.0042 18.875 9.1125C18.4583 8.22083 17.9 7.43333 17.2 6.75C16.5 6.06667 15.7 5.52083 14.8 5.1125C13.9 4.70417 12.9667 4.5 12 4.5C11.0333 4.5 10.1 4.70417 9.2 5.1125C8.3 5.52083 7.5 6.06667 6.8 6.75C6.1 7.43333 5.54167 8.22083 5.125 9.1125C4.70833 10.0042 4.5 10.9333 4.5 11.9V18H4C3.45 18 2.97917 17.8042 2.5875 17.4125C2.19583 17.0208 2 16.55 2 16V14C2 13.6167 2.09167 13.2792 2.275 12.9875C2.45833 12.6958 2.7 12.4583 3 12.275L3.075 10.95C3.225 9.73333 3.57083 8.63333 4.1125 7.65C4.65417 6.66667 5.32917 5.83333 6.1375 5.15C6.94583 4.46667 7.85417 3.9375 8.8625 3.5625C9.87083 3.1875 10.9167 3 12 3C13.1 3 14.1542 3.1875 15.1625 3.5625C16.1708 3.9375 17.075 4.47083 17.875 5.1625C18.675 5.85417 19.3458 6.6875 19.8875 7.6625C20.4292 8.6375 20.775 9.725 20.925 10.925L21 12.225C21.3 12.375 21.5417 12.5958 21.725 12.8875C21.9083 13.1792 22 13.5 22 13.85V16.15C22 16.5167 21.9083 16.8417 21.725 17.125C21.5417 17.4083 21.3 17.625 21 17.775V19.5C21 19.9125 20.8531 20.2656 20.5594 20.5594C20.2656 20.8531 19.9125 21 19.5 21H11ZM9 13.75C8.8 13.75 8.625 13.675 8.475 13.525C8.325 13.375 8.25 13.1958 8.25 12.9875C8.25 12.7792 8.325 12.6042 8.475 12.4625C8.625 12.3208 8.80417 12.25 9.0125 12.25C9.22083 12.25 9.39583 12.3219 9.5375 12.4656C9.67917 12.6094 9.75 12.7875 9.75 13C9.75 13.2 9.67812 13.375 9.53438 13.525C9.39062 13.675 9.2125 13.75 9 13.75ZM15 13.75C14.8 13.75 14.625 13.675 14.475 13.525C14.325 13.375 14.25 13.1958 14.25 12.9875C14.25 12.7792 14.325 12.6042 14.475 12.4625C14.625 12.3208 14.8042 12.25 15.0125 12.25C15.2208 12.25 15.3958 12.3219 15.5375 12.4656C15.6792 12.6094 15.75 12.7875 15.75 13C15.75 13.2 15.6781 13.375 15.5344 13.525C15.3906 13.675 15.2125 13.75 15 13.75ZM6.025 12.45C5.95833 11.4667 6.09583 10.575 6.4375 9.775C6.77917 8.975 7.2375 8.29583 7.8125 7.7375C8.3875 7.17917 9.05 6.75 9.8 6.45C10.55 6.15 11.3 6 12.05 6C13.5667 6 14.8417 6.47917 15.875 7.4375C16.9083 8.39583 17.5417 9.59167 17.775 11.025C16.2083 11.0083 14.8292 10.5875 13.6375 9.7625C12.4458 8.9375 11.525 7.86667 10.875 6.55C10.6083 7.9 10.0458 9.09583 9.1875 10.1375C8.32917 11.1792 7.275 11.95 6.025 12.45Z" fill="#FFFDF0"/>
</svg>
