<svg width="100" height="100" viewBox="0 0 100 100" fill="none" xmlns="http://www.w3.org/2000/svg">
<path d="M26.2884 35.7015L24.6938 34.5225V36.5056V68.0459C24.6938 68.6916 25.2217 69.2194 25.8674 69.2194H74.1322C74.7779 69.2194 75.3057 68.6916 75.3057 68.0459V36.9995V35.0512L73.7227 36.187L49.9819 53.221L26.2884 35.7015Z" fill="#222222" stroke="#222222" stroke-width="2"/>
<mask id="path-2-inside-1_526_66" fill="white">
<path fill-rule="evenodd" clip-rule="evenodd" d="M50 0C22.3839 0 0 22.3839 0 50C0 77.6161 22.3839 100 50 100C77.6161 100 100 77.6161 100 50C100 22.3839 77.6161 0 50 0ZM81.5003 68.0593C81.5003 72.1169 78.19 75.4271 74.1324 75.4271H25.8676C21.8099 75.4271 18.4997 72.1169 18.4997 68.0593V31.9541C18.4997 27.8964 21.8099 24.5862 25.8676 24.5862H74.1324C78.19 24.5862 81.5003 27.8964 81.5003 31.9541V68.0593Z"/>
</mask>
<path fill-rule="evenodd" clip-rule="evenodd" d="M50 0C22.3839 0 0 22.3839 0 50C0 77.6161 22.3839 100 50 100C77.6161 100 100 77.6161 100 50C100 22.3839 77.6161 0 50 0ZM81.5003 68.0593C81.5003 72.1169 78.19 75.4271 74.1324 75.4271H25.8676C21.8099 75.4271 18.4997 72.1169 18.4997 68.0593V31.9541C18.4997 27.8964 21.8099 24.5862 25.8676 24.5862H74.1324C78.19 24.5862 81.5003 27.8964 81.5003 31.9541V68.0593Z" fill="#222222"/>
<path d="M100 50H73H100ZM50 -27C7.47216 -27 -27 7.47221 -27 50H27C27 37.2956 37.2956 27 50 27V-27ZM-27 50C-27 92.5278 7.47218 127 50 127V73C37.2956 73 27 62.7044 27 50H-27ZM50 127C92.5278 127 127 92.5278 127 50H73C73 62.7044 62.7044 73 50 73V127ZM127 50C127 7.47221 92.5278 -27 50 -27V27C62.7044 27 73 37.2956 73 50L127 50ZM54.5003 68.0593C54.5003 57.205 63.2786 48.4271 74.1324 48.4271V102.427C93.1015 102.427 108.5 87.0288 108.5 68.0593H54.5003ZM74.1324 48.4271H25.8676V102.427H74.1324V48.4271ZM25.8676 48.4271C36.7214 48.4271 45.4997 57.205 45.4997 68.0593H-8.50029C-8.50029 87.0288 6.89845 102.427 25.8676 102.427V48.4271ZM45.4997 68.0593V31.9541H-8.50029V68.0593H45.4997ZM45.4997 31.9541C45.4997 42.8082 36.7215 51.5862 25.8676 51.5862V-2.41378C6.89835 -2.41378 -8.50029 12.9846 -8.50029 31.9541H45.4997ZM25.8676 51.5862H74.1324V-2.41378H25.8676V51.5862ZM74.1324 51.5862C63.2785 51.5862 54.5003 42.8082 54.5003 31.9541H108.5C108.5 12.9846 93.1016 -2.41378 74.1324 -2.41378V51.5862ZM54.5003 31.9541V68.0593H108.5V31.9541H54.5003Z" fill="#222222" mask="url(#path-2-inside-1_526_66)"/>
<path d="M69.8167 32.5935L72.347 30.7806H69.2342H31.4072H28.3717L30.8129 32.5848L49.4327 46.3461L50.0179 46.7787L50.6095 46.3548L69.8167 32.5935Z" fill="#222222" stroke="#222222" stroke-width="2"/>
</svg>
