<svg width="100" height="100" viewBox="0 0 100 100" fill="none" xmlns="http://www.w3.org/2000/svg">
<path d="M52.419 60.2036C58.0606 58.8715 61.5541 53.2181 60.2219 47.5765C58.8898 41.9349 53.2365 38.4415 47.5949 39.7736C41.9533 41.1057 38.4598 46.759 39.7919 52.4006C41.1241 58.0422 46.7774 61.5357 52.419 60.2036Z" fill="#222222"/>
<path fill-rule="evenodd" clip-rule="evenodd" d="M50 0C22.3852 0 0 22.3852 0 50C0 77.6148 22.3852 100 50 100C77.6148 100 100 77.6148 100 50C100 22.3852 77.6148 0 50 0ZM81.2889 62.9778C81.1333 66.3259 80.6074 68.6148 79.8222 70.6222C79.0148 72.6889 77.9407 74.4444 76.1926 76.2C74.4444 77.9481 72.6889 79.0296 70.6148 79.8296C68.6148 80.6074 66.3259 81.1407 62.9704 81.2963C59.6148 81.4518 58.5407 81.4889 49.9926 81.4889C41.4444 81.4889 40.3704 81.4518 37.0148 81.2963C33.6667 81.1407 31.3778 80.6148 29.3704 79.8296C27.3037 79.0222 25.5481 77.9481 23.7926 76.2C22.0444 74.4518 20.963 72.6963 20.163 70.6222C19.3852 68.6222 18.8519 66.3333 18.6963 62.9778C18.5407 59.6222 18.5037 58.5481 18.5037 50C18.5037 41.4519 18.5407 40.3778 18.6963 37.0222C18.8519 33.6741 19.3778 31.3852 20.163 29.3778C20.9704 27.3111 22.0444 25.5556 23.7926 23.8C25.5407 22.0519 27.2963 20.9704 29.3704 20.1704C31.3704 19.3926 33.6593 18.8593 37.0148 18.7037C40.3704 18.5481 41.4444 18.5111 49.9926 18.5111C58.5407 18.5111 59.6148 18.5481 62.9704 18.7037C66.3185 18.8593 68.6074 19.3852 70.6148 20.1704C72.6815 20.9778 74.437 22.0519 76.1926 23.8C77.9407 25.5482 79.0222 27.3037 79.8222 29.3778C80.6 31.3778 81.1333 33.6667 81.2889 37.0222C81.4444 40.3778 81.4815 41.4519 81.4815 50C81.4815 58.5481 81.4444 59.6222 81.2889 62.9778Z" fill="#222222"/>
<path fill-rule="evenodd" clip-rule="evenodd" d="M74.541 31.4296C73.9707 29.963 73.2892 28.9111 72.1855 27.8074C71.0818 26.7037 70.0373 26.0222 68.5632 25.4519C67.4521 25.0222 65.7855 24.5111 62.7188 24.3704C59.4003 24.2222 58.4003 24.1852 50.0003 24.1852C41.5929 24.1852 40.6003 24.2148 37.2818 24.3704C34.2151 24.5111 32.5484 25.0222 31.4373 25.4519C29.9706 26.0222 28.9188 26.7037 27.8151 27.8074C26.7114 28.9111 26.0299 29.9556 25.4595 31.4296C25.0299 32.5408 24.5188 34.2074 24.3781 37.2741C24.2299 40.5926 24.1929 41.5926 24.1929 49.9926C24.1929 58.4 24.2225 59.3926 24.3781 62.7111C24.5188 65.7778 25.0299 67.4445 25.4595 68.5556C26.0299 70.0222 26.7114 71.0741 27.8151 72.1778C28.9188 73.2815 29.9632 73.963 31.4373 74.5333C32.5484 74.963 34.2151 75.4741 37.2818 75.6148C40.6003 75.763 41.5929 75.8 50.0003 75.8C58.4077 75.8 59.4003 75.7704 62.7188 75.6148C65.7855 75.4741 67.4521 74.963 68.5632 74.5333C70.0299 73.963 71.0818 73.2815 72.1855 72.1778C73.2892 71.0741 73.9707 70.0296 74.541 68.5556C74.9707 67.4445 75.4818 65.7778 75.6225 62.7111C75.7706 59.3926 75.8077 58.3926 75.8077 49.9926C75.8077 41.5852 75.7781 40.5926 75.6225 37.2741C75.4892 34.2074 74.9707 32.5408 74.541 31.4296ZM50.0003 66.163C41.0744 66.163 33.8373 58.9259 33.8373 50C33.8373 41.0741 41.0744 33.837 50.0003 33.837C58.9262 33.837 66.1632 41.0741 66.1632 50C66.1632 58.9259 58.9262 66.163 50.0003 66.163ZM66.8077 36.9704C64.7188 36.9704 63.0299 35.2815 63.0299 33.1926C63.0299 31.1037 64.7188 29.4148 66.8077 29.4148C68.8966 29.4148 70.5855 31.1037 70.5855 33.1926C70.5855 35.2815 68.8892 36.9704 66.8077 36.9704Z" fill="#222222"/>
</svg>
