<svg width="100" height="100" viewBox="0 0 100 100" fill="none" xmlns="http://www.w3.org/2000/svg">
<path fill-rule="evenodd" clip-rule="evenodd" d="M50 0C22.3839 0 0 22.3839 0 50C0 77.6161 22.3839 100 50 100C77.6161 100 100 77.6161 100 50C99.9867 22.3839 77.6028 0 50 0ZM49.3727 83.7426C49.3727 83.7426 24.7464 61.7325 24.7464 39.0283C24.7464 24.8398 35.7715 13.3476 49.3727 13.3476C62.9739 13.3476 73.9989 24.8398 73.9989 39.0283C73.9989 61.7325 49.3727 83.7426 49.3727 83.7426Z" fill="#222222"/>
<path d="M49.3727 55.1233C58.4534 55.1233 65.8148 47.762 65.8148 38.6813C65.8148 29.6006 58.4534 22.2392 49.3727 22.2392C40.292 22.2392 32.9307 29.6006 32.9307 38.6813C32.9307 47.762 40.292 55.1233 49.3727 55.1233Z" fill="#222222" stroke="#222222" stroke-width="4"/>
</svg>
