<svg width="100" height="100" viewBox="0 0 100 100" fill="var(--contrast)" xmlns="http://www.w3.org/2000/svg">
<path fill-rule="evenodd" clip-rule="evenodd" d="M50 0C22.3852 0 0 22.3852 0 50C0 77.6148 22.3852 100 50 100C77.6148 100 100 77.6148 100 50C100 22.3852 77.6148 0 50 0ZM50.1333 81.4444H50.1185C44.8074 81.4444 39.5926 80.1111 34.963 77.5852L18.1481 81.9926L22.6444 65.563C19.8667 60.7556 18.4074 55.2963 18.4074 49.7111C18.4148 32.2296 32.6444 18.0074 50.1259 18.0074C58.6074 18.0074 66.5778 21.3111 72.563 27.3037C78.5482 33.2963 81.8444 41.2667 81.8444 49.7333C81.8444 67.2222 67.6148 81.4444 50.1333 81.4444Z" fill="#222222"/>
<path fill-rule="evenodd" clip-rule="evenodd" d="M50.141 23.363C35.6002 23.363 23.7706 35.1852 23.7632 49.7185C23.7632 54.6963 25.1558 59.5482 27.7928 63.7408L28.4224 64.7408L25.7558 74.4667L35.7336 71.8519L36.6965 72.4222C40.741 74.8222 45.3854 76.0963 50.1113 76.0963H50.1187C64.6521 76.0963 76.4743 64.2741 76.4817 49.7408C76.4817 42.6963 73.7484 36.0741 68.7706 31.0963C63.8002 26.1111 57.1854 23.363 50.141 23.363ZM65.6521 61.0445C64.9928 62.8963 61.8224 64.5852 60.3039 64.8148C58.941 65.0222 57.2076 65.1037 55.3113 64.5037C54.1632 64.1408 52.6817 63.6519 50.7928 62.837C42.8447 59.4074 37.6521 51.4 37.2521 50.8741C36.8521 50.3482 34.015 46.5778 34.015 42.6815C34.015 38.7852 36.0595 36.8667 36.7854 36.0741C37.5113 35.2815 38.3706 35.0815 38.8965 35.0815C39.4224 35.0815 39.9558 35.0889 40.415 35.1111C40.9039 35.1333 41.5558 34.9259 42.2002 36.4741C42.8595 38.0593 44.4447 41.963 44.6447 42.3556C44.8447 42.7482 44.978 43.2148 44.7113 43.7408C44.4447 44.2667 44.3187 44.6 43.9187 45.0593C43.5187 45.5185 43.0891 46.0889 42.7336 46.4445C42.3336 46.837 41.9261 47.2667 42.3854 48.0593C42.8447 48.8519 44.4373 51.4445 46.7928 53.5482C49.8224 56.2445 52.3706 57.0815 53.1632 57.4815C53.9558 57.8815 54.415 57.8148 54.8817 57.2815C55.341 56.7556 56.8595 54.9704 57.3928 54.1778C57.9187 53.3852 58.4521 53.5185 59.178 53.7778C59.9039 54.0445 63.8002 55.9556 64.5928 56.3556C65.3854 56.7556 65.9113 56.9482 66.1113 57.2815C66.3113 57.6074 66.3113 59.1926 65.6521 61.0445Z" fill="#222222"/>
</svg>
